<svg width="61" height="60" viewBox="0 0 61 60" fill="none" xmlns="http://www.w3.org/2000/svg">
<path d="M60.5 30C60.5 46.5685 47.0685 60 30.5 60C13.9315 60 0.5 46.5685 0.5 30C0.5 13.4315 13.9315 0 30.5 0C47.0685 0 60.5 13.4315 60.5 30ZM3.5 30C3.5 44.9117 15.5883 57 30.5 57C45.4117 57 57.5 44.9117 57.5 30C57.5 15.0883 45.4117 3 30.5 3C15.5883 3 3.5 15.0883 3.5 30Z" fill="#E4E4E4"/>
<path d="M59 30C59.8284 30 60.5039 29.328 60.4625 28.5006C60.291 25.0732 59.5325 21.6968 58.2164 18.5195C56.7087 14.8797 54.499 11.5726 51.7132 8.7868C48.9274 6.00104 45.6203 3.79125 41.9805 2.28361C38.8032 0.967533 35.4268 0.209002 31.9994 0.0374914C31.172 -0.00391226 30.5 0.671573 30.5 1.5C30.5 2.32843 31.1721 2.99566 31.9993 3.04166C35.0325 3.21034 38.0192 3.88996 40.8325 5.05525C44.1082 6.41213 47.0847 8.40093 49.5919 10.9081C52.0991 13.4153 54.0879 16.3918 55.4447 19.6675C56.61 22.4808 57.2897 25.4675 57.4583 28.5007C57.5043 29.3279 58.1716 30 59 30Z" fill="#ED1F24"/>
</svg>
