<svg width="18" height="21" viewBox="0 0 18 21" fill="none" xmlns="http://www.w3.org/2000/svg">
<path fill-rule="evenodd" clip-rule="evenodd" d="M1.23926 9.39136C1.25367 5.15077 4.70302 1.72477 8.94361 1.73918C13.1842 1.75359 16.6102 5.20294 16.5958 9.44353V9.53049C16.5436 12.287 15.0045 14.8348 13.1175 16.8261C12.0384 17.9468 10.8333 18.9389 9.52621 19.7827C9.17672 20.085 8.65832 20.085 8.30882 19.7827C6.36033 18.5144 4.65019 16.9132 3.25665 15.0522C2.01461 13.4294 1.30942 11.4598 1.23926 9.41744L1.23926 9.39136Z" stroke="#200E32" stroke-width="1.5" stroke-linecap="round" stroke-linejoin="round"/>
<path fill-rule="evenodd" clip-rule="evenodd" d="M8.91741 12.0001C10.2765 12.0001 11.3783 10.8983 11.3783 9.53924C11.3783 8.18014 10.2765 7.07837 8.91741 7.07837C7.55831 7.07837 6.45654 8.18014 6.45654 9.53924C6.45654 10.8983 7.55831 12.0001 8.91741 12.0001Z" stroke="#200E32" stroke-width="1.5" stroke-linecap="round" stroke-linejoin="round"/>
</svg>
