<svg width="34" height="39" viewBox="0 0 34 39" fill="none" xmlns="http://www.w3.org/2000/svg">
<path d="M16.5837 0C25.743 0 33.1674 7.05407 33.1674 15.7565C33.1674 22.4146 28.2434 29.6707 18.5227 37.6023C17.9822 38.0435 17.2931 38.2858 16.5805 38.2852C15.868 38.2846 15.1793 38.0411 14.6396 37.5991L13.9967 37.069C4.70638 29.3443 0 22.266 0 15.7565C0 7.05407 7.42441 0 16.5837 0ZM16.5837 2.42408C12.8621 2.42408 9.29291 3.82874 6.66133 6.32906C4.02975 8.82938 2.55134 12.2205 2.55134 15.7565C2.55134 21.4159 6.88522 27.9367 15.672 35.2413L16.3065 35.7632C16.3836 35.8263 16.482 35.8609 16.5837 35.8609C16.6855 35.8609 16.7838 35.8263 16.861 35.7632C26.073 28.2454 30.6161 21.5501 30.6161 15.7565C30.6161 14.0057 30.2531 12.272 29.548 10.6544C28.8428 9.03685 27.8091 7.56709 26.5061 6.32906C25.2031 5.09103 23.6562 4.10897 21.9537 3.43895C20.2512 2.76893 18.4265 2.42408 16.5837 2.42408ZM16.5837 9.69632C18.2754 9.69632 19.8977 10.3348 21.0939 11.4713C22.2901 12.6078 22.9621 14.1492 22.9621 15.7565C22.9621 17.3638 22.2901 18.9052 21.0939 20.0417C19.8977 21.1782 18.2754 21.8167 16.5837 21.8167C14.8921 21.8167 13.2697 21.1782 12.0735 20.0417C10.8774 18.9052 10.2054 17.3638 10.2054 15.7565C10.2054 14.1492 10.8774 12.6078 12.0735 11.4713C13.2697 10.3348 14.8921 9.69632 16.5837 9.69632ZM16.5837 12.1204C15.5687 12.1204 14.5953 12.5035 13.8776 13.1854C13.1599 13.8673 12.7567 14.7922 12.7567 15.7565C12.7567 16.7209 13.1599 17.6457 13.8776 18.3276C14.5953 19.0095 15.5687 19.3926 16.5837 19.3926C17.5987 19.3926 18.5721 19.0095 19.2898 18.3276C20.0075 17.6457 20.4107 16.7209 20.4107 15.7565C20.4107 14.7922 20.0075 13.8673 19.2898 13.1854C18.5721 12.5035 17.5987 12.1204 16.5837 12.1204Z" fill="#ED1F24"/>
</svg>
