<svg width="173" height="84" viewBox="0 0 173 84" fill="none" xmlns="http://www.w3.org/2000/svg">
<path d="M162.989 0.549318C160.074 -0.000165761 157.424 0.549318 155.024 2.19777C152.624 3.84622 151.154 6.11909 150.606 9.04134C150.049 12.0302 150.589 14.7027 152.234 17.0755C153.878 19.4482 156.154 20.9052 159.069 21.4547C162.05 22.0125 164.716 21.488 167.075 19.8728C169.434 18.2577 170.895 15.9515 171.452 12.971C172 10.0487 171.468 7.39289 169.865 4.99514C168.263 2.58907 165.97 1.10713 162.989 0.549318Z" fill="#ED1F24"/>
<path d="M17.8561 18.3496H0V69.8929H17.8561V18.3496Z" fill="#ED1F24"/>
<path d="M64.2234 18.3494H54.7223L58.5344 6.26904H40.8278L37.0489 18.3494H24.832V32.5194H32.6057C31.1938 37.1068 30.1307 40.8532 29.4248 43.7588C28.7189 46.6644 28.3617 49.0622 28.3617 50.9521C28.3617 57.4959 30.2636 62.4746 34.0674 65.8881C37.8711 69.2932 43.4107 70.9999 50.686 70.9999C54.4566 70.9999 58.4264 70.159 62.6039 68.469L60.9927 54.4988C58.5012 55.3729 56.209 55.8142 54.1244 55.8142C51.6328 55.8142 49.7475 55.1731 48.4685 53.891C47.1895 52.6089 46.55 50.7856 46.55 48.4211C46.55 45.9235 47.3889 41.9106 49.0748 36.3741L50.2874 32.5277H64.2234V18.3494Z" fill="#ED1F24"/>
<path d="M124.254 25.876L124.229 25.9842L124.254 25.876Z" fill="#ED1F24"/>
<path d="M140.424 54.0411C138.871 52.6591 138.098 50.8857 138.098 48.7294C138.098 47.9218 138.165 47.0393 138.298 46.0985L143.68 18.9574L143.729 18.6826L143.68 18.949C136.662 20.0147 130.084 22.4624 124.229 25.9924L120.923 42.6518C120.251 45.8904 119.91 48.9958 119.91 51.968C119.91 55.548 120.815 58.7866 122.634 61.6839C124.453 64.5895 126.978 66.8624 130.209 68.5192C133.439 70.1759 137.077 71.0002 141.113 71.0002C142.392 71.0002 143.572 70.9336 144.643 70.8004L147.674 56.1225H146.462C143.987 56.1141 141.969 55.4231 140.424 54.0411Z" fill="#ED1F24"/>
<path d="M97.6852 32.2699C97.6105 32.195 97.544 32.1201 97.4693 32.0534C97.4361 32.0285 97.4028 32.0035 97.3696 31.9785C97.4028 32.0035 97.4361 32.0285 97.4693 32.0534C97.544 32.1284 97.6105 32.2033 97.6852 32.2699Z" fill="#ED1F24"/>
<path d="M103.881 68.6688C107.486 67.1202 110.401 64.9389 112.618 62.1332C112.743 61.9751 112.834 61.8085 112.951 61.6504L101.224 54.632L99.4132 53.5496C98.8734 54.3239 98.2007 55.0149 97.3619 55.5977C95.8088 56.68 93.9567 57.2212 91.8057 57.2212C89.3141 57.2212 87.2378 56.4303 85.5934 54.8401C85.4024 54.6569 85.2197 54.4571 85.0453 54.2573C83.7497 52.767 83.0354 50.9104 82.9192 48.7125H86.6648H103.524H117.369C117.71 46.6894 117.876 44.8328 117.876 43.1427C117.876 38.98 117.153 35.1835 115.725 31.7368C115.367 30.8792 114.977 30.03 114.537 29.2141C114.113 28.4399 113.648 27.7072 113.158 26.9912C113.648 27.6989 114.113 28.4315 114.537 29.2141C114.985 30.03 115.367 30.8709 115.725 31.7368C110.625 36.5156 106.456 42.2769 103.516 48.7125H86.6565C87.9687 44.8328 89.6214 41.1113 91.5648 37.573H82.9109C83.0437 35.2751 83.8909 33.4185 85.4356 32.0032C86.9804 30.5879 88.9072 29.8802 91.1994 29.8802C92.9352 29.8802 94.4467 30.2215 95.7507 30.8876C96.0164 31.0291 96.2739 31.179 96.5313 31.3455C96.2822 31.179 96.0247 31.0208 95.7507 30.8876C98.591 26.8747 101.847 23.1781 105.451 19.8563C106.921 20.7138 108.267 21.6879 109.496 22.7868C108.267 21.6879 106.921 20.7055 105.451 19.8563C105.36 19.8063 105.277 19.748 105.185 19.6981C101.174 17.4335 96.5812 16.3013 91.3904 16.3013C86.1333 16.3013 81.4741 17.4668 77.3962 19.798C73.3184 22.1291 70.1541 25.3511 67.8951 29.4722C65.6361 33.5934 64.5149 38.3223 64.5149 43.6506C64.5149 48.9872 65.6776 53.7161 68.0031 57.8289C70.3285 61.9501 73.5426 65.1721 77.6537 67.5032C79.3396 68.4606 81.1252 69.2016 83.0105 69.7677C85.7263 70.5753 88.6414 70.9916 91.7808 70.9999H91.814C94.2308 70.9999 96.5147 70.7585 98.6824 70.3006C100.51 69.9093 102.237 69.3764 103.881 68.6688Z" fill="#ED1F24"/>
<path d="M113.166 26.9998C112.095 25.4429 110.882 24.0359 109.503 22.7954C110.874 24.0359 112.095 25.4429 113.166 26.9998Z" fill="url(#paint0_linear)"/>
<path d="M96.531 31.3457C96.8217 31.5372 97.0957 31.7453 97.3615 31.9701C97.0957 31.7453 96.8217 31.5372 96.531 31.3457Z" fill="url(#paint1_linear)"/>
<path d="M146.827 2.88882L143.738 18.674L146.877 2.83887C140.3 3.29677 133.971 4.67881 128.024 6.86009L124.254 25.8756L128.074 6.91004C134.021 4.72876 140.25 3.34672 146.827 2.88882Z" fill="url(#paint2_linear)"/>
<path d="M97.6856 32.2695C99.1473 33.6849 99.8948 35.4499 99.8948 37.5729H91.5813H99.8948C99.8864 35.4499 99.1473 33.6932 97.6856 32.2695Z" fill="url(#paint3_linear)"/>
<path d="M124.287 25.9504C124.271 25.9587 124.254 25.967 124.229 25.9837C130.084 22.4537 136.654 20.006 143.68 18.9403L143.738 18.6655L146.827 2.88037C140.25 3.33827 134.021 4.72031 128.074 6.90159L124.254 25.8671L124.229 25.9753C124.254 25.9753 124.271 25.967 124.287 25.9504Z" fill="#ED1F24"/>
<path d="M124.287 25.9504C124.271 25.9587 124.254 25.967 124.229 25.9837C130.084 22.4537 136.654 20.006 143.68 18.9403L143.738 18.6655L146.827 2.88037C140.25 3.33827 134.021 4.72031 128.074 6.90159L124.254 25.8671L124.229 25.9753C124.254 25.9753 124.271 25.967 124.287 25.9504Z" fill="url(#paint4_linear)"/>
<path d="M95.7506 30.8878C96.0164 31.0293 96.2739 31.1792 96.5313 31.3457C96.822 31.5372 97.0961 31.7453 97.3618 31.9701C97.3951 31.9951 97.4283 32.0201 97.4615 32.045C97.5363 32.1116 97.6027 32.1866 97.6774 32.2615C99.1391 33.6768 99.8866 35.4418 99.8866 37.5648H91.5731C89.6297 41.1032 87.977 44.8247 86.6648 48.7044H103.524C106.464 42.2688 110.633 36.5075 115.733 31.7287C115.376 30.8711 114.994 30.0219 114.545 29.206C114.122 28.4318 113.657 27.6991 113.167 26.9831C112.095 25.4262 110.883 24.0192 109.504 22.7787C108.275 21.6798 106.929 20.6973 105.459 19.8481C101.855 23.1784 98.591 26.8749 95.7506 30.8878Z" fill="#ED1F24"/>
<path d="M95.7506 30.8878C96.0164 31.0293 96.2739 31.1792 96.5313 31.3457C96.822 31.5372 97.0961 31.7453 97.3618 31.9701C97.3951 31.9951 97.4283 32.0201 97.4615 32.045C97.5363 32.1116 97.6027 32.1866 97.6774 32.2615C99.1391 33.6768 99.8866 35.4418 99.8866 37.5648H91.5731C89.6297 41.1032 87.977 44.8247 86.6648 48.7044H103.524C106.464 42.2688 110.633 36.5075 115.733 31.7287C115.376 30.8711 114.994 30.0219 114.545 29.206C114.122 28.4318 113.657 27.6991 113.167 26.9831C112.095 25.4262 110.883 24.0192 109.504 22.7787C108.275 21.6798 106.929 20.6973 105.459 19.8481C101.855 23.1784 98.591 26.8749 95.7506 30.8878Z" fill="url(#paint5_linear)"/>
<defs>
<linearGradient id="paint0_linear" x1="87.0943" y1="49.1813" x2="140.212" y2="-3.80669" gradientUnits="userSpaceOnUse">
<stop stop-color="#ED1C24"/>
<stop offset="0.0951" stop-color="#EF3131"/>
<stop offset="0.5398" stop-color="#F88D6E"/>
<stop offset="0.8512" stop-color="#FDC793"/>
<stop offset="1" stop-color="#FFDDA2"/>
</linearGradient>
<linearGradient id="paint1_linear" x1="83.2799" y1="45.3567" x2="136.398" y2="-7.62922" gradientUnits="userSpaceOnUse">
<stop stop-color="#ED1C24"/>
<stop offset="0.0951" stop-color="#EF3131"/>
<stop offset="0.5398" stop-color="#F88D6E"/>
<stop offset="0.8512" stop-color="#FDC793"/>
<stop offset="1" stop-color="#FFDDA2"/>
</linearGradient>
<linearGradient id="paint2_linear" x1="93.3208" y1="55.4224" x2="146.439" y2="2.43418" gradientUnits="userSpaceOnUse">
<stop stop-color="#ED1C24"/>
<stop offset="0.0951" stop-color="#EF3131"/>
<stop offset="0.5398" stop-color="#F88D6E"/>
<stop offset="0.8512" stop-color="#FDC793"/>
<stop offset="1" stop-color="#FFDDA2"/>
</linearGradient>
<linearGradient id="paint3_linear" x1="85.6163" y1="47.699" x2="138.734" y2="-5.28907" gradientUnits="userSpaceOnUse">
<stop stop-color="#ED1C24"/>
<stop offset="0.0951" stop-color="#EF3131"/>
<stop offset="0.5398" stop-color="#F88D6E"/>
<stop offset="0.8512" stop-color="#FDC793"/>
<stop offset="1" stop-color="#FFDDA2"/>
</linearGradient>
<linearGradient id="paint4_linear" x1="93.4003" y1="55.5019" x2="146.518" y2="2.5137" gradientUnits="userSpaceOnUse">
<stop stop-color="#ED1C24"/>
<stop offset="0.0951" stop-color="#EF3131"/>
<stop offset="0.5398" stop-color="#F88D6E"/>
<stop offset="0.8512" stop-color="#FDC793"/>
<stop offset="1" stop-color="#FFDDA2"/>
</linearGradient>
<linearGradient id="paint5_linear" x1="88.3347" y1="50.4242" x2="141.453" y2="-2.56391" gradientUnits="userSpaceOnUse">
<stop stop-color="#ED1C24"/>
<stop offset="0.0951" stop-color="#EF3131"/>
<stop offset="0.5398" stop-color="#F88D6E"/>
<stop offset="0.8512" stop-color="#FDC793"/>
<stop offset="1" stop-color="#FFDDA2"/>
</linearGradient>
</defs>
</svg>
