<svg width="22" height="19" viewBox="0 0 22 19" fill="none" xmlns="http://www.w3.org/2000/svg">
<path d="M19.963 2.92308H16.5L15.675 0.553297C15.618 0.391139 15.5136 0.250972 15.3759 0.151942C15.2383 0.0529113 15.0742 -0.000152057 14.906 3.27288e-07H7.09398C6.75023 3.27288e-07 6.44213 0.221841 6.32755 0.553297L5.5 2.92308H2.03704C0.911574 2.92308 0 3.85742 0 5.01099V16.9121C0 18.0657 0.911574 19 2.03704 19H19.963C21.0884 19 22 18.0657 22 16.9121V5.01099C22 3.85742 21.0884 2.92308 19.963 2.92308ZM20.1667 16.9121C20.1667 17.0269 20.075 17.1209 19.963 17.1209H2.03704C1.925 17.1209 1.83333 17.0269 1.83333 16.9121V5.01099C1.83333 4.89615 1.925 4.8022 2.03704 4.8022H6.79097L7.22639 3.55467L7.80949 1.87912H14.188L14.7711 3.55467L15.2065 4.8022H19.963C20.075 4.8022 20.1667 4.89615 20.1667 5.01099V16.9121ZM11 6.47253C8.74907 6.47253 6.92593 8.34121 6.92593 10.6484C6.92593 12.9555 8.74907 14.8242 11 14.8242C13.2509 14.8242 15.0741 12.9555 15.0741 10.6484C15.0741 8.34121 13.2509 6.47253 11 6.47253ZM11 13.1538C9.65046 13.1538 8.55556 12.0316 8.55556 10.6484C8.55556 9.26511 9.65046 8.14286 11 8.14286C12.3495 8.14286 13.4444 9.26511 13.4444 10.6484C13.4444 12.0316 12.3495 13.1538 11 13.1538Z" fill="black"/>
</svg>
