<svg viewBox="0 0 23 23" class="ionicon" xmlns="http://www.w3.org/2000/svg">
<path d="M11.3516 12.2929C10.9611 12.6834 10.3279 12.6834 9.93742 12.2929L9.14453 11.5C8.86839 11.2239 8.42067 11.2239 8.14453 11.5C7.86839 11.7761 7.86839 12.2239 8.14453 12.5L9.93742 14.2929C10.3279 14.6834 10.9611 14.6834 11.3516 14.2929L15.1445 10.5C15.4207 10.2239 15.4207 9.77614 15.1445 9.5C14.8684 9.22386 14.4207 9.22386 14.1445 9.5L11.3516 12.2929Z"/>
<path fill="none" d="M22 11.5C22 17.299 17.299 22 11.5 22C5.70101 22 1 17.299 1 11.5C1 5.70101 5.70101 1 11.5 1C17.299 1 22 5.70101 22 11.5Z"  stroke-width="2"/>
</svg>
