<svg viewBox="0 0 55 37" fill="none" xmlns="http://www.w3.org/2000/svg">
<g clip-path="url(#clip0)">
<path d="M54.4236 1.45997C53.9084 0.707179 53.1745 0.241659 52.2205 0.0648792C51.2874 -0.107481 50.4367 0.0648792 49.6684 0.58196C48.9001 1.09904 48.4283 1.81647 48.2531 2.73278C48.0733 3.67119 48.2471 4.51236 48.7758 5.25778C49.3029 6.00321 50.0323 6.46136 50.9654 6.63372C51.9194 6.8105 52.7746 6.64403 53.5294 6.13579C54.2843 5.62755 54.7516 4.90422 54.9313 3.96582C55.108 3.04804 54.9388 2.21275 54.4236 1.45997Z" fill="#EB2427"/>
<path d="M5.71971 5.66162H0V21.8664H5.71971V5.66162Z" fill="#EB2427"/>
<path d="M18.7574 1.86206H13.0811L11.8709 5.66135H7.95596V10.1177H10.4481C9.99433 11.5614 9.65585 12.7384 9.4282 13.6503C9.20205 14.5637 9.08822 15.3165 9.08822 15.9102C9.08822 17.9682 9.69778 19.5341 10.9169 20.6051C12.136 21.6761 13.9108 22.2124 16.2397 22.2124C17.4484 22.2124 18.7199 21.9472 20.0574 21.4168L19.5392 17.0253C18.7409 17.3008 18.007 17.4393 17.339 17.4393C16.5408 17.4393 15.9372 17.2375 15.5268 16.8353C15.1165 16.4317 14.9128 15.8601 14.9128 15.1161C14.9128 14.3309 15.1824 13.0684 15.7215 11.3286L16.1094 10.1191H20.5741V5.66135H17.5322L18.7574 1.86206Z" fill="#EB2427"/>
<path d="M44.9892 16.8811C44.4935 16.4465 44.2448 15.8897 44.2448 15.2105C44.2448 14.9557 44.2658 14.6802 44.3092 14.3826L46.0331 5.84858L47.041 0.800049C44.9338 0.944419 42.9373 1.379 41.0323 2.0655L39.8027 8.06275C39.8087 8.0598 39.8146 8.05686 39.8206 8.05244C39.8146 8.05538 39.8087 8.05833 39.8027 8.06275L38.7453 13.3013C38.5296 14.3193 38.4218 15.296 38.4218 16.23C38.4218 17.3555 38.7138 18.3734 39.2949 19.2853C39.8776 20.1987 40.6863 20.9146 41.7212 21.4332C42.7561 21.9532 43.9213 22.2125 45.2153 22.2125C45.6242 22.2125 46.0031 22.1904 46.3476 22.1491L47.3181 17.5337H46.9302C46.1334 17.5322 45.4864 17.3157 44.9892 16.8811Z" fill="#EB2427"/>
<path d="M36.6969 9.07761C36.0005 7.82247 35.0284 6.84282 33.7868 6.1357C33.7584 6.1195 33.7314 6.10182 33.703 6.08561C32.418 5.37408 30.9457 5.01904 29.2848 5.01904C27.6014 5.01904 26.1067 5.38586 24.8022 6.11802C23.4962 6.85019 22.4822 7.86372 21.7588 9.15863C21.0354 10.4535 20.6745 11.94 20.6745 13.6164C20.6745 15.2944 21.0474 16.7793 21.7918 18.0742C22.5361 19.3691 23.5666 20.3827 24.883 21.1148C25.4222 21.4154 25.9958 21.6496 26.6009 21.8278C27.4726 22.0827 28.4086 22.2138 29.4151 22.2138C30.1909 22.2138 30.9262 22.1387 31.6227 21.9928C32.2038 21.872 32.7579 21.7026 33.2836 21.4802C34.4383 20.9926 35.3714 20.3075 36.0843 19.4266C36.1233 19.378 36.1532 19.3249 36.1907 19.2749L32.4344 17.0695L31.8533 16.7292C31.6796 16.9738 31.4639 17.1903 31.1958 17.373C30.6986 17.7133 30.1055 17.8827 29.4151 17.8827C28.6168 17.8827 27.9518 17.6337 27.4246 17.1343C27.3617 17.0754 27.3048 17.015 27.2494 16.9517C26.833 16.4817 26.6054 15.9013 26.5679 15.2074H27.7691H33.1713H37.6075C37.7153 14.571 37.7692 13.9877 37.7692 13.4559C37.7692 12.1477 37.5371 10.9544 37.0818 9.87017C36.9635 9.60058 36.8392 9.33394 36.6969 9.07761ZM31.2258 9.96887C31.744 10.4256 32.0031 11.003 32.0031 11.7043H29.3387H26.5649C26.6084 10.9824 26.878 10.399 27.3737 9.95267C27.8694 9.50777 28.485 9.28385 29.2189 9.28385C29.776 9.28385 30.2613 9.3914 30.6776 9.60206C30.8768 9.70223 31.0595 9.82303 31.2258 9.96887Z" fill="#EB2427"/>
<path d="M41.0177 2.04913L39.8031 8.06112C41.6782 6.95182 43.784 6.18283 46.035 5.84842L47.058 0.785156C44.9492 0.929526 42.9228 1.36264 41.0177 2.04913ZM36.6969 9.0776C36.8392 9.33393 36.9635 9.60057 37.0773 9.87016C35.4433 11.3713 34.1088 13.1818 33.1668 15.2074H27.7646C28.1854 13.9877 28.7141 12.818 29.3372 11.7057H32.0016C32.0016 11.0045 31.7425 10.427 31.2243 9.97034C31.058 9.82449 30.8738 9.70369 30.6761 9.60352C31.5867 8.34249 32.6291 7.18016 33.7838 6.13569C35.0299 6.84281 36.0004 7.82246 36.6969 9.0776Z" fill="url(#paint0_linear)"/>
<path d="M13.2439 33.1624C13.0178 32.364 12.7736 31.5699 12.5385 30.773L12.1596 29.5001L14.1066 28.9227L12.0877 29.2615L11.1157 26.0014L10.7323 24.7197L10.265 25.9646L9.46523 28.0977C9.24956 28.6663 9.04138 29.2364 8.8347 29.808L6.23769 30.2456L5.13388 30.4312L6.06245 31.1133C6.67202 31.5582 7.28158 31.9986 7.89564 32.4391C7.65002 33.133 7.41488 33.8342 7.17674 34.534L6.93561 35.2529L7.53469 34.8109C7.9226 34.5251 8.3105 34.2408 8.69841 33.9535C8.80025 33.8769 8.90359 33.8003 9.00543 33.7208C9.11626 33.6353 9.2256 33.5528 9.33643 33.4703C9.33643 33.4703 9.33942 33.4718 9.34242 33.4718C9.40083 33.4306 9.45774 33.3864 9.51465 33.3422C9.75279 33.161 9.98942 32.9827 10.2291 32.8015C10.2261 32.8 10.2231 32.7971 10.2201 32.7956C10.2994 32.7323 10.3758 32.6733 10.4552 32.61C10.3594 32.6616 10.265 32.7116 10.1721 32.7617C9.73032 32.4583 9.29149 32.1504 8.85267 31.8454C9.03988 31.4005 9.22709 30.9542 9.40832 30.5048C9.43527 30.4341 9.46673 30.3649 9.49668 30.2927L11.222 29.78L11.5665 31.044C11.7852 31.844 11.9963 32.6483 12.227 33.4468L12.4966 34.3984C11.89 33.9668 11.2834 33.5366 10.6694 33.1079C10.6694 33.105 10.6664 33.1065 10.6619 33.105L10.4882 33.2361C10.4702 33.2508 10.4507 33.2641 10.4312 33.2788L9.76776 33.7782L9.77226 33.7812C9.58804 33.9211 9.40083 34.0581 9.21361 34.1951L9.91604 33.8828C10.9734 34.64 12.0443 35.3766 13.1076 36.1279L14.3507 37.0044L13.9344 35.5578L13.2439 33.1624ZM7.47179 30.8893L8.55912 30.5682C8.45428 30.854 8.35244 31.1398 8.25209 31.4285C7.99299 31.2488 7.73389 31.0676 7.47179 30.8893ZM9.15071 33.3318C9.05336 33.3878 8.95451 33.4438 8.85716 33.4998C8.53815 33.6766 8.22214 33.8622 7.90912 34.0449C8.08585 33.6383 8.26407 33.2302 8.43481 32.8221C8.67444 32.9915 8.91258 33.1624 9.15071 33.3318ZM9.75279 29.6534C9.92352 29.232 10.0958 28.8137 10.262 28.3923L10.605 27.5261L11.1217 29.4235L9.75279 29.6534Z" fill="#EB2427"/>
<path d="M17.8627 34.2894C17.2442 33.9624 16.7574 33.5086 16.404 32.9282C16.0505 32.3478 15.8723 31.6922 15.8723 30.9601C15.8723 30.2279 16.049 29.5723 16.404 28.9919C16.7574 28.4115 17.2442 27.9577 17.8627 27.6307C18.4813 27.3037 19.1777 27.1401 19.949 27.1401C20.6005 27.1401 21.1876 27.2521 21.7148 27.4775C22.2405 27.7029 22.6823 28.027 23.0403 28.4483L21.9245 29.4618C21.4168 28.8844 20.7877 28.5971 20.0359 28.5971C19.5716 28.5971 19.1567 28.6973 18.7913 28.8976C18.4259 29.098 18.1428 29.3779 17.9376 29.7373C17.7339 30.0968 17.6321 30.5048 17.6321 30.9615C17.6321 31.4197 17.7339 31.8277 17.9376 32.1857C18.1413 32.5452 18.4259 32.8236 18.7913 33.0254C19.1567 33.2258 19.5716 33.326 20.0359 33.326C20.7862 33.326 21.4168 33.0343 21.9245 32.4494L23.0403 33.463C22.6823 33.8916 22.239 34.2187 21.7103 34.4441C21.1816 34.6695 20.59 34.7814 19.94 34.7814C19.1732 34.78 18.4813 34.6164 17.8627 34.2894Z" fill="#EB2427"/>
<path d="M24.0903 26.8235H25.7647V34.6548H24.0903V26.8235Z" fill="#EB2427"/>
<path d="M33.1364 28.9758V34.6534H31.5488V33.9772C31.3271 34.2233 31.062 34.4118 30.755 34.5415C30.448 34.6711 30.114 34.7374 29.7576 34.7374C28.9997 34.7374 28.3991 34.5223 27.9543 34.0936C27.511 33.6649 27.2893 33.027 27.2893 32.1829V28.9744H28.9638V31.9398C28.9638 32.8547 29.3532 33.3114 30.1335 33.3114C30.5334 33.3114 30.8554 33.1832 31.0995 32.9269C31.3421 32.6705 31.4649 32.289 31.4649 31.7822V28.9744H33.1364V28.9758Z" fill="#EB2427"/>
<path d="M39.569 29.2557C40.0093 29.4988 40.3538 29.8391 40.6039 30.2795C40.854 30.72 40.9798 31.2312 40.9798 31.8146C40.9798 32.3979 40.854 32.9106 40.6039 33.3496C40.3538 33.7901 40.0078 34.1304 39.569 34.3735C39.1286 34.6165 38.6404 34.7373 38.1042 34.7373C37.3104 34.7373 36.7054 34.4913 36.2905 33.9993V34.6534H34.6925V26.822H36.3669V29.5768C36.7892 29.1202 37.3688 28.8903 38.1057 28.8903C38.6404 28.8918 39.1286 29.0126 39.569 29.2557ZM38.871 32.9607C39.1466 32.6764 39.2844 32.2948 39.2844 31.816C39.2844 31.3373 39.1466 30.9557 38.871 30.6714C38.5955 30.3871 38.2435 30.2442 37.8137 30.2442C37.3838 30.2442 37.0319 30.3871 36.7563 30.6714C36.4807 30.9557 36.3429 31.3387 36.3429 31.816C36.3429 32.2948 36.4807 32.6764 36.7563 32.9607C37.0319 33.245 37.3838 33.3879 37.8137 33.3879C38.2435 33.3879 38.5955 33.245 38.871 32.9607Z" fill="#EB2427"/>
</g>
<defs>
<linearGradient id="paint0_linear" x1="29.1468" y1="16.5656" x2="45.8435" y2="-0.409159" gradientUnits="userSpaceOnUse">
<stop stop-color="#EB2227"/>
<stop offset="0.0998" stop-color="#ED412F"/>
<stop offset="0.7264" stop-color="#FAB27B"/>
<stop offset="1" stop-color="#FFDEA2"/>
</linearGradient>
<clipPath id="clip0">
<rect width="55" height="37" fill="white"/>
</clipPath>
</defs>
</svg>
