<svg viewBox="0 0 20 20" xmlns="http://www.w3.org/2000/svg">
<path fill-rule="evenodd" clip-rule="evenodd" d="M14.4335 18.5727C16.7825 18.5227 18.6555 16.5657 18.6035 14.2117V9.86969C18.6055 9.7647 18.6045 9.6717 18.6005 9.5787C18.4995 7.24069 16.6105 5.4967 14.1955 5.4967C14.1844 5.4967 14.1741 5.49713 14.1631 5.49759C14.1504 5.49812 14.1367 5.4987 14.1195 5.4987H5.88251C5.75651 5.4937 5.66551 5.4927 5.57451 5.4947C4.43151 5.5197 3.36951 5.9857 2.58151 6.8107C1.79151 7.6337 1.37151 8.71469 1.39651 9.85569V14.1957C1.39451 14.3037 1.39551 14.3977 1.39951 14.4897C1.50251 16.8427 3.48051 18.6827 5.85051 18.5697C8.56951 18.6157 11.3325 18.6157 14.1065 18.5687C14.2425 18.5747 14.3385 18.5757 14.4335 18.5727ZM14.1145 4.1037C17.2975 4.0777 19.8605 6.4407 19.9945 9.5177C19.9995 9.6387 20.0005 9.7627 19.9985 9.8857V14.1957C20.0665 17.3037 17.5825 19.8997 14.4605 19.9687C14.3325 19.9717 14.2115 19.9687 14.0895 19.9637C12.7115 19.9877 11.3255 19.9997 9.94651 19.9997C8.57551 19.9997 7.21151 19.9877 5.86951 19.9647C2.79051 20.0957 0.142506 17.6717 0.00550628 14.5527C-0.000493722 14.4297 -0.000493722 14.3057 0.00150628 14.1817V9.8697C-0.0314937 8.3727 0.526506 6.9387 1.57351 5.8457C2.61951 4.7517 4.02851 4.1317 5.54151 4.0997C5.66451 4.0957 5.79051 4.0967 5.91651 4.1047L9.87151 4.1037V3.8727C9.86251 3.1967 9.30051 2.6437 8.61651 2.6437H8.60651H7.61851H7.60051C6.53651 2.6437 5.66051 1.7767 5.64851 0.705696C5.64451 0.319696 5.95451 0.00469551 6.33851 0.000695509C6.68251 -0.0153045 7.04051 0.305696 7.04351 0.690696C7.04651 0.998695 7.29951 1.2477 7.60651 1.2477H7.61251H8.60151H8.62151C10.0615 1.2477 11.2475 2.4167 11.2665 3.8637V4.1037H14.1145ZM7.07981 9.58533C7.45253 9.58533 7.76056 9.85765 7.80931 10.211L7.81603 10.3092V11.3257H8.8499C9.2565 11.3257 9.58612 11.6498 9.58612 12.0496C9.58612 12.416 9.30915 12.7189 8.9498 12.7668L8.8499 12.7734H7.81603V13.79C7.81603 14.1897 7.48641 14.5138 7.07981 14.5138C6.70708 14.5138 6.39905 14.2415 6.3503 13.8882L6.34358 13.79V12.7734H5.30972C4.90311 12.7734 4.57349 12.4494 4.57349 12.0496C4.57349 11.6831 4.85046 11.3802 5.20981 11.3323L5.30972 11.3257H6.34358V10.3092C6.34358 9.90942 6.6732 9.58533 7.07981 9.58533ZM13.8541 10.4152C13.8541 10.0154 13.5245 9.69134 13.1179 9.69134H13.019L12.9191 9.69795C12.5598 9.74588 12.2828 10.0487 12.2828 10.4152C12.2828 10.815 12.6124 11.1391 13.019 11.1391H13.1179L13.2178 11.1325C13.5771 11.0845 13.8541 10.7817 13.8541 10.4152ZM14.7981 13.0131C15.2047 13.0131 15.5343 13.3372 15.5343 13.737C15.5343 14.1034 15.2574 14.4063 14.898 14.4542L14.7981 14.4608H14.6993C14.2927 14.4608 13.9631 14.1367 13.9631 13.737C13.9631 13.3705 14.24 13.0676 14.5994 13.0197L14.6993 13.0131H14.7981Z"/>
</svg>
