<?xml version="1.0" standalone="no"?>
<!DOCTYPE svg PUBLIC "-//W3C//DTD SVG 20010904//EN"
 "http://www.w3.org/TR/2001/REC-SVG-20010904/DTD/svg10.dtd">
<svg version="1.0" xmlns="http://www.w3.org/2000/svg"
 width="40.000000pt" height="20.000000pt" viewBox="0 0 40.000000 20.000000"
 preserveAspectRatio="xMidYMid meet">

<g transform="translate(0.000000,20.000000) scale(0.100000,-0.100000)"
fill="#000000" stroke="none">
<path d="M140 135 c-24 -25 -39 -45 -32 -45 7 0 12 -15 12 -40 0 -39 1 -40 35
-40 32 0 35 2 35 30 0 17 5 30 10 30 6 0 10 -13 10 -30 0 -28 3 -30 35 -30 34
0 35 1 35 40 0 25 5 40 12 40 7 0 -8 20 -32 45 -24 25 -51 45 -60 45 -9 0 -36
-20 -60 -45z m94 -4 c22 -23 27 -36 24 -66 -4 -51 -28 -60 -28 -11 0 33 -2 36
-30 36 -28 0 -30 -3 -30 -36 0 -49 -24 -40 -28 11 -3 30 2 43 24 66 15 16 31
29 34 29 3 0 19 -13 34 -29z"/>
</g>
</svg>
