<?xml version="1.0" standalone="no"?>
<!DOCTYPE svg PUBLIC "-//W3C//DTD SVG 20010904//EN"
 "http://www.w3.org/TR/2001/REC-SVG-20010904/DTD/svg10.dtd">
<svg version="1.0" xmlns="http://www.w3.org/2000/svg"
 width="40.000000pt" height="20.000000pt" viewBox="0 0 40.000000 20.000000"
 preserveAspectRatio="xMidYMid meet">

<g transform="translate(0.000000,20.000000) scale(0.100000,-0.100000)"
fill="#000000" stroke="none">
<path d="M354 165 c-7 -18 3 -35 21 -35 21 0 28 19 15 35 -16 19 -29 19 -36 0z"/>
<path d="M90 150 c0 -5 -7 -10 -15 -10 -12 0 -13 -10 -9 -47 3 -27 7 -54 10
-60 5 -19 64 -17 64 2 0 8 -7 15 -15 15 -24 0 -19 51 5 57 24 6 25 19 6 39
-17 16 -46 19 -46 4z"/>
<path d="M0 80 c0 -53 2 -60 20 -60 18 0 20 7 20 60 0 53 -2 60 -20 60 -18 0
-20 -7 -20 -60z"/>
<path d="M170 120 c-24 -24 -25 -48 -4 -78 12 -18 24 -22 50 -20 41 4 50 22
14 26 -45 6 -46 22 -2 22 31 0 42 4 42 15 0 8 -7 15 -15 15 -8 0 -15 9 -15 20
0 15 -7 20 -25 20 -14 0 -34 -9 -45 -20z m60 -20 c0 -5 -9 -10 -21 -10 -11 0
-17 5 -14 10 3 6 13 10 21 10 8 0 14 -4 14 -10z"/>
<path d="M290 104 c-13 -34 -13 -57 2 -72 17 -17 48 -15 48 3 0 8 -5 15 -11
15 -8 0 -9 13 -5 40 5 32 3 40 -9 40 -9 0 -20 -12 -25 -26z"/>
</g>
</svg>
