<svg width="13" height="12" viewBox="0 0 13 12" fill="none" xmlns="http://www.w3.org/2000/svg">
<path d="M12.25 6.37008H12.75H12.25ZM8.58943 7.89268L9.084 7.8192L8.58943 7.89268ZM9.43159 8.73485L9.35811 9.22942L9.43159 8.73485ZM8.58943 7.2231L9.084 7.29659L8.58943 7.2231ZM9.43159 6.38094L9.35811 5.88637L9.43159 6.38094ZM11.9571 4.28734L12.3107 3.93379L11.9571 4.28734ZM10.25 11.1213V10.6213V11.1213ZM5.23571 11.1213V10.6213V11.1213ZM1.8215 10.5356L2.17505 10.182L1.8215 10.5356ZM2.72048 1.52491L11.2139 1.52491V0.524909L2.72048 0.524909V1.52491ZM5.23571 11.6213L10.25 11.6213V10.6213L5.23571 10.6213V11.6213ZM0.735714 2.50968L0.735714 7.12134H1.73571L1.73571 2.50968H0.735714ZM10.25 3.49445L2.72048 3.49445V4.49445L10.25 4.49445V3.49445ZM11.75 8.74571V9.12134H12.75L12.75 8.74571H11.75ZM11.75 5.99445V6.37008H12.75V5.99445H11.75ZM9.76639 9.24571H12.25V8.24571H9.76639V9.24571ZM11.75 6.37008L11.75 8.74571H12.75L12.75 6.37008H11.75ZM12.25 5.87008H9.76638V6.87008H12.25V5.87008ZM9.09278 3.49445H8.57857L8.57857 4.49445H9.09278L9.09278 3.49445ZM11.1381 1.44913C11.1381 2.57873 10.2224 3.49445 9.09278 3.49445L9.09278 4.49445C10.7747 4.49445 12.1381 3.13101 12.1381 1.44913H11.1381ZM8.07857 7.55789C8.07857 7.71443 8.0772 7.84733 8.09486 7.96617L9.084 7.8192C9.07994 7.79186 9.07857 7.75029 9.07857 7.55789L8.07857 7.55789ZM9.76639 8.24571C9.57399 8.24571 9.53241 8.24434 9.50508 8.24028L9.35811 9.22942C9.47695 9.24708 9.60985 9.24571 9.76639 9.24571V8.24571ZM8.09486 7.96617C8.19193 8.61943 8.70484 9.13235 9.35811 9.22942L9.50508 8.24028C9.28733 8.20792 9.11636 8.03695 9.084 7.8192L8.09486 7.96617ZM9.07857 7.55789C9.07857 7.36549 9.07994 7.32392 9.084 7.29659L8.09486 7.14961C8.0772 7.26846 8.07857 7.40135 8.07857 7.55789L9.07857 7.55789ZM9.76638 5.87008C9.60985 5.87008 9.47695 5.86871 9.35811 5.88637L9.50508 6.87551C9.53241 6.87145 9.57399 6.87008 9.76638 6.87008V5.87008ZM9.084 7.29659C9.11636 7.07884 9.28733 6.90786 9.50508 6.87551L9.35811 5.88637C8.70484 5.98343 8.19193 6.49635 8.09486 7.14961L9.084 7.29659ZM10.25 4.49445C10.7355 4.49445 11.0494 4.49551 11.2806 4.5266C11.4975 4.55576 11.5655 4.60283 11.6036 4.64089L12.3107 3.93379C12.0558 3.67896 11.7417 3.57958 11.4139 3.53552C11.1005 3.49338 10.7073 3.49445 10.25 3.49445V4.49445ZM12.75 5.99445C12.75 5.53718 12.7511 5.14393 12.7089 4.83055C12.6649 4.50279 12.5655 4.18862 12.3107 3.93379L11.6036 4.64089C11.6416 4.67896 11.6887 4.74693 11.7178 4.9638C11.7489 5.19505 11.75 5.50891 11.75 5.99445H12.75ZM10.25 11.6213C10.7073 11.6213 11.1005 11.6224 11.4139 11.5803C11.7417 11.5362 12.0558 11.4368 12.3107 11.182L11.6036 10.4749C11.5655 10.513 11.4975 10.56 11.2806 10.5892C11.0494 10.6203 10.7355 10.6213 10.25 10.6213V11.6213ZM11.75 9.12134C11.75 9.60688 11.7489 9.92073 11.7178 10.152C11.6887 10.3689 11.6416 10.4368 11.6036 10.4749L12.3107 11.182C12.5655 10.9272 12.6649 10.613 12.7089 10.2852C12.7511 9.97186 12.75 9.57861 12.75 9.12134H11.75ZM5.23571 10.6213C4.27877 10.6213 3.61136 10.6203 3.10779 10.5526C2.61861 10.4868 2.35956 10.3665 2.17505 10.182L1.46795 10.8891C1.86922 11.2904 2.37447 11.463 2.97455 11.5437C3.56024 11.6224 4.30704 11.6213 5.23571 11.6213V10.6213ZM0.735714 7.12134C0.735714 8.05001 0.734653 8.79682 0.813396 9.38251C0.894073 9.98258 1.06667 10.4878 1.46795 10.8891L2.17505 10.182C1.99055 9.99749 1.87025 9.73844 1.80448 9.24926C1.73678 8.74569 1.73571 8.07828 1.73571 7.12134H0.735714ZM0.735714 2.50968C0.735714 3.60584 1.62433 4.49445 2.72048 4.49445V3.49445C2.17661 3.49445 1.73571 3.05355 1.73571 2.50968H0.735714ZM11.2139 1.52491C11.172 1.52491 11.1381 1.49098 11.1381 1.44913H12.1381C12.1381 0.938695 11.7243 0.524909 11.2139 0.524909V1.52491ZM1.73571 2.50968C1.73571 1.96581 2.17661 1.52491 2.72048 1.52491V0.524909C1.62432 0.524909 0.735714 1.41352 0.735714 2.50968H1.73571Z" fill="#ED1F24"/>
</svg>
