<svg width="22" height="27" viewBox="0 0 22 27" fill="none" xmlns="http://www.w3.org/2000/svg">
<path d="M18.1187 25.2576H1.72604V1.74239H17.2557V13.5012C17.2557 13.9815 17.6429 14.3724 18.1187 14.3724C18.5946 14.3724 18.9794 13.9815 18.9818 13.5012V0.871196C18.9818 0.390861 18.5946 0 18.1187 0H0.86302C0.387193 0 0 0.390861 0 0.871196V26.1288C0 26.6091 0.387193 27 0.86302 27H18.1187C18.5946 27 18.9818 26.6115 18.9841 26.1312C18.9864 25.6508 18.5992 25.26 18.1234 25.2576C18.1211 25.2576 18.1187 25.2576 18.1187 25.2576Z" fill="black"/>
<path d="M21.1628 17.6476C20.687 17.6335 20.2905 18.0126 20.2765 18.4929C20.2555 19.1969 19.7213 19.7785 19.3248 20.0422C19.3248 20.0305 19.3248 20.021 19.3225 20.0116C19.2945 19.4371 19.2525 18.653 18.6531 18.1845C17.5825 17.3486 16.3252 18.4199 15.11 19.4536C14.7182 19.8021 14.3076 20.1246 13.8785 20.4237C13.9065 19.9904 13.9554 19.5595 14.0254 19.1334C14.226 17.7559 14.4359 16.3314 13.6452 15.4484C12.3624 14.0145 9.673 15.0435 4.65582 18.8885C4.27563 19.1805 4.20332 19.7267 4.49022 20.1082C4.77944 20.492 5.32058 20.565 5.69844 20.2753C11.3431 15.95 12.3577 16.6069 12.367 16.6163C12.6119 16.8895 12.423 18.1821 12.3204 18.8767C12.1244 20.2071 11.9425 21.4621 12.8172 22.0719C13.0388 22.232 13.3047 22.3168 13.5776 22.3168C14.4243 22.3168 15.3363 21.5398 16.2249 20.7816C16.6495 20.4001 17.0996 20.0493 17.5755 19.7361C17.5871 19.8586 17.5941 19.9951 17.5988 20.0987C17.6268 20.6568 17.6664 21.422 18.3265 21.7729C18.828 22.0389 19.4741 21.9683 20.1412 21.5727C21.0392 21.0429 21.9605 19.901 21.9978 18.54C22.0142 18.062 21.6386 17.6594 21.1628 17.6476Z" fill="black"/>
<path d="M14.0205 5.22487H4.96116C4.48534 5.22487 4.09814 5.61573 4.09814 6.09606C4.09814 6.5764 4.48534 6.96726 4.96116 6.96726H14.0205C14.4964 6.96726 14.8836 6.5764 14.8836 6.09606C14.8836 5.61573 14.4964 5.22487 14.0205 5.22487Z" fill="black"/>
<path d="M14.0207 9.58084H4.96128C4.48546 9.58084 4.09826 9.9717 4.1006 10.4544C4.1006 10.9347 4.48546 11.3232 4.96128 11.3232H14.0207C14.4965 11.3232 14.8837 10.9347 14.8837 10.452C14.8837 9.9717 14.4988 9.58084 14.0207 9.58084Z" fill="black"/>
</svg>
