<svg viewBox="0 0 23 17" xmlns="http://www.w3.org/2000/svg">
    <path d="M2.46429 0C1.11304 0 0 1.11304 0 2.46429V13.9643C0 15.3155 1.11304 16.4286 2.46429 16.4286H20.5357C21.887 16.4286 23 15.3155 23 13.9643V2.46429C23 1.11304 21.887 0 20.5357 0H2.46429ZM2.46429 1.64286H20.5357C21.0006 1.64286 21.3571 1.99936 21.3571 2.46429V13.9643C21.3571 14.4292 21.0006 14.7857 20.5357 14.7857H2.46429C1.99936 14.7857 1.64286 14.4292 1.64286 13.9643V2.46429C1.64286 1.99936 1.99936 1.64286 2.46429 1.64286ZM7.39286 3.28571C5.58571 3.28571 4.10714 4.76429 4.10714 6.57143C4.10714 7.48568 4.49896 8.31039 5.10846 8.90757C4.54934 9.28488 4.09096 9.79318 3.77326 10.3882C3.45556 10.9832 3.28819 11.6469 3.28571 12.3214H4.92857C4.92857 10.9513 6.02271 9.85714 7.39286 9.85714C8.763 9.85714 9.85714 10.9513 9.85714 12.3214H11.5C11.4975 11.6469 11.3302 10.9832 11.0125 10.3882C10.6948 9.79318 10.2364 9.28488 9.67725 8.90757C10.2868 8.31039 10.6786 7.4865 10.6786 6.57143C10.6786 4.76429 9.2 3.28571 7.39286 3.28571ZM13.1429 4.10714V5.75H19.7143V4.10714H13.1429ZM7.39286 4.92857C8.31039 4.92857 9.03571 5.65389 9.03571 6.57143C9.03571 7.48896 8.31039 8.21429 7.39286 8.21429C6.47532 8.21429 5.75 7.48896 5.75 6.57143C5.75 5.65389 6.47532 4.92857 7.39286 4.92857ZM13.1429 7.39286V9.03571H19.7143V7.39286H13.1429ZM13.1429 10.6786V12.3214H17.25V10.6786H13.1429Z"/>
</svg>
 