<svg width="63" height="63" viewBox="0 0 63 63" fill="none" xmlns="http://www.w3.org/2000/svg">
<circle cx="31.5" cy="31.5" r="31.5" fill="#F0F0F0"/>
<path d="M22.284 46.764H43.484V22.284C43.484 19.368 41.12 17 38.2 17H22.284C19.368 17 17 19.364 17 22.284V41.484C17 44.4 19.364 46.764 22.284 46.764Z" fill="#41D3CF"/>
<path d="M22.284 46.764H43.484V22.284C43.484 19.368 41.12 17 38.2 17H22.284C19.368 17 17 19.364 17 22.284V41.484C17 44.4 19.364 46.764 22.284 46.764Z" fill="#67DCD9"/>
<path d="M28.164 49.904L34.468 47.508C34.856 47.36 35.288 47.36 35.676 47.508L41.98 49.904C45.436 51.22 49.14 48.664 49.14 44.968V26.284C49.14 23.368 46.776 21 43.856 21H26.284C23.368 21 21 23.364 21 26.284V44.968C21.004 48.664 24.704 51.22 28.164 49.904Z" fill="#ED1F24"/>
<path fill-rule="evenodd" clip-rule="evenodd" d="M38.9901 41.7158C41.1042 41.6708 42.79 39.9094 42.7432 37.7908V33.8829C42.745 33.7884 42.7441 33.7047 42.7405 33.621C42.6496 31.5167 40.9494 29.9471 38.7759 29.9471C38.7659 29.9471 38.7566 29.9475 38.7467 29.9479C38.7352 29.9484 38.7229 29.9489 38.7075 29.9489H31.294C31.1806 29.9444 31.0987 29.9435 31.0168 29.9453C29.988 29.9678 29.0322 30.3872 28.323 31.1297C27.612 31.8704 27.234 32.8433 27.2565 33.8703V37.7764C27.2547 37.8736 27.2556 37.9582 27.2592 38.041C27.3519 40.1587 29.1321 41.8148 31.2652 41.7131C33.7123 41.7545 36.1991 41.7545 38.6958 41.7122C38.8182 41.7176 38.9046 41.7185 38.9901 41.7158ZM38.7033 28.6933C41.5681 28.6699 43.8748 30.7967 43.9954 33.566C43.9999 33.6749 44.0008 33.7865 43.999 33.8973V37.7764C44.0602 40.5736 41.8246 42.9101 39.0147 42.9722C38.8995 42.9749 38.7906 42.9722 38.6808 42.9677C37.4405 42.9893 36.1931 43.0001 34.952 43.0001C33.7181 43.0001 32.4904 42.9893 31.2826 42.9686C28.5114 43.0865 26.1281 40.9048 26.0048 38.0977C25.9994 37.987 25.9994 37.8754 26.0012 37.7638V33.8829C25.9715 32.5355 26.4738 31.2449 27.4161 30.2612C28.3575 29.2765 29.6256 28.7185 30.9874 28.6897C31.0981 28.6861 31.2115 28.687 31.3249 28.6942L34.8845 28.6933V28.4854C34.8764 27.877 34.3706 27.3793 33.755 27.3793H33.746H32.8567H32.8405C31.8829 27.3793 31.0945 26.599 31.0837 25.635C31.0801 25.2876 31.3591 25.0041 31.7047 25.0005C32.0143 24.9861 32.3365 25.275 32.3392 25.6215C32.3419 25.8987 32.5696 26.1228 32.8459 26.1228H32.8513H33.7415H33.7595C35.0555 26.1228 36.1229 27.175 36.14 28.4773V28.6933H38.7033ZM32.3717 33.6269C32.7071 33.6269 32.9844 33.872 33.0283 34.19L33.0343 34.2784V35.1934H33.9649C34.3308 35.1934 34.6275 35.4851 34.6275 35.8449C34.6275 36.1747 34.3782 36.4473 34.0548 36.4904L33.9649 36.4964H33.0343V37.4112C33.0343 37.771 32.7376 38.0627 32.3717 38.0627C32.0362 38.0627 31.759 37.8176 31.7151 37.4996L31.7091 37.4112V36.4964H30.7786C30.4127 36.4964 30.116 36.2047 30.116 35.8449C30.116 35.515 30.3653 35.2425 30.6887 35.1993L30.7786 35.1934H31.7091V34.2784C31.7091 33.9186 32.0057 33.6269 32.3717 33.6269ZM38.4687 34.3738C38.4687 34.0139 38.172 33.7223 37.8061 33.7223H37.7171L37.6272 33.7282C37.3038 33.7713 37.0545 34.0439 37.0545 34.3738C37.0545 34.7336 37.3512 35.0253 37.7171 35.0253H37.8061L37.896 35.0193C38.2194 34.9762 38.4687 34.7036 38.4687 34.3738ZM39.3183 36.7119C39.6842 36.7119 39.9809 37.0036 39.9809 37.3634C39.9809 37.6933 39.7316 37.9659 39.4082 38.009L39.3183 38.0149H39.2293C38.8633 38.0149 38.5667 37.7233 38.5667 37.3634C38.5667 37.0336 38.816 36.761 39.1394 36.7179L39.2293 36.7119H39.3183Z" fill="white"/>
<path d="M22.284 46.764H43.484V22.284C43.484 19.368 41.12 17 38.2 17H22.284C19.368 17 17 19.364 17 22.284V41.484C17 44.4 19.364 46.764 22.284 46.764Z" fill="#41D3CF"/>
<path d="M22.284 46.764H43.484V22.284C43.484 19.368 41.12 17 38.2 17H22.284C19.368 17 17 19.364 17 22.284V41.484C17 44.4 19.364 46.764 22.284 46.764Z" fill="#67DCD9"/>
<path d="M28.164 49.904L34.468 47.508C34.856 47.36 35.288 47.36 35.676 47.508L41.98 49.904C45.436 51.22 49.14 48.664 49.14 44.968V26.284C49.14 23.368 46.776 21 43.856 21H26.284C23.368 21 21 23.364 21 26.284V44.968C21.004 48.664 24.704 51.22 28.164 49.904Z" fill="#ED1F24"/>
<path fill-rule="evenodd" clip-rule="evenodd" d="M38.9901 41.7158C41.1042 41.6708 42.79 39.9094 42.7432 37.7908V33.8829C42.745 33.7884 42.7441 33.7047 42.7405 33.621C42.6496 31.5167 40.9494 29.9471 38.7759 29.9471C38.7659 29.9471 38.7566 29.9475 38.7467 29.9479C38.7352 29.9484 38.7229 29.9489 38.7075 29.9489H31.294C31.1806 29.9444 31.0987 29.9435 31.0168 29.9453C29.988 29.9678 29.0322 30.3872 28.323 31.1297C27.612 31.8704 27.234 32.8433 27.2565 33.8703V37.7764C27.2547 37.8736 27.2556 37.9582 27.2592 38.041C27.3519 40.1587 29.1321 41.8148 31.2652 41.7131C33.7123 41.7545 36.1991 41.7545 38.6958 41.7122C38.8182 41.7176 38.9046 41.7185 38.9901 41.7158ZM38.7033 28.6933C41.5681 28.6699 43.8748 30.7967 43.9954 33.566C43.9999 33.6749 44.0008 33.7865 43.999 33.8973V37.7764C44.0602 40.5736 41.8246 42.9101 39.0147 42.9722C38.8995 42.9749 38.7906 42.9722 38.6808 42.9677C37.4405 42.9893 36.1931 43.0001 34.952 43.0001C33.7181 43.0001 32.4904 42.9893 31.2826 42.9686C28.5114 43.0865 26.1281 40.9048 26.0048 38.0977C25.9994 37.987 25.9994 37.8754 26.0012 37.7638V33.8829C25.9715 32.5355 26.4738 31.2449 27.4161 30.2612C28.3575 29.2765 29.6256 28.7185 30.9874 28.6897C31.0981 28.6861 31.2115 28.687 31.3249 28.6942L34.8845 28.6933V28.4854C34.8764 27.877 34.3706 27.3793 33.755 27.3793H33.746H32.8567H32.8405C31.8829 27.3793 31.0945 26.599 31.0837 25.635C31.0801 25.2876 31.3591 25.0041 31.7047 25.0005C32.0143 24.9861 32.3365 25.275 32.3392 25.6215C32.3419 25.8987 32.5696 26.1228 32.8459 26.1228H32.8513H33.7415H33.7595C35.0555 26.1228 36.1229 27.175 36.14 28.4773V28.6933H38.7033ZM32.3717 33.6269C32.7071 33.6269 32.9844 33.872 33.0283 34.19L33.0343 34.2784V35.1934H33.9649C34.3308 35.1934 34.6275 35.4851 34.6275 35.8449C34.6275 36.1747 34.3782 36.4473 34.0548 36.4904L33.9649 36.4964H33.0343V37.4112C33.0343 37.771 32.7376 38.0627 32.3717 38.0627C32.0362 38.0627 31.759 37.8176 31.7151 37.4996L31.7091 37.4112V36.4964H30.7786C30.4127 36.4964 30.116 36.2047 30.116 35.8449C30.116 35.515 30.3653 35.2425 30.6887 35.1993L30.7786 35.1934H31.7091V34.2784C31.7091 33.9186 32.0057 33.6269 32.3717 33.6269ZM38.4687 34.3738C38.4687 34.0139 38.172 33.7223 37.8061 33.7223H37.7171L37.6272 33.7282C37.3038 33.7713 37.0545 34.0439 37.0545 34.3738C37.0545 34.7336 37.3512 35.0253 37.7171 35.0253H37.8061L37.896 35.0193C38.2194 34.9762 38.4687 34.7036 38.4687 34.3738ZM39.3183 36.7119C39.6842 36.7119 39.9809 37.0036 39.9809 37.3634C39.9809 37.6933 39.7316 37.9659 39.4082 38.009L39.3183 38.0149H39.2293C38.8633 38.0149 38.5667 37.7233 38.5667 37.3634C38.5667 37.0336 38.816 36.761 39.1394 36.7179L39.2293 36.7119H39.3183Z" fill="white"/>
</svg>
