<svg width="258" height="107" viewBox="0 0 258 107" fill="none" xmlns="http://www.w3.org/2000/svg">
<g clip-path="url(#clip0_1_2)">
<path d="M26.8344 27.2714H0V105.324H26.8344V27.2714Z" fill="white"/>
<path d="M87.9865 8.97261H61.363L55.6898 27.2714H37.3215V48.7365H49.01C46.8816 55.6919 45.2902 61.3616 44.228 65.7535C43.1657 70.1534 42.6326 73.7778 42.6326 76.6427C42.6326 86.5556 45.4891 94.0977 51.2061 99.253C56.9231 104.412 65.2499 107 76.1786 107C81.8439 107 87.8115 105.718 94.0894 103.163L91.6626 82.011C87.9189 83.337 84.4736 84.004 81.3426 84.004C77.5989 84.004 74.7623 83.0356 72.8407 81.0949C70.9152 79.1501 69.9564 76.3936 69.9564 72.8134C69.9564 69.0363 71.2215 62.9528 73.7518 54.5669L75.5739 48.7405H96.5163V27.2714H82.2497L87.9865 8.97261Z" fill="white"/>
<path d="M255.295 7.03182C252.884 3.4034 249.438 1.16126 244.963 0.313425C240.582 -0.518337 236.592 0.313425 232.992 2.80068C229.387 5.29194 227.175 8.74356 226.356 13.1636C225.52 17.684 226.332 21.7383 228.806 25.3306C231.281 28.9188 234.702 31.1248 239.083 31.9606C243.558 32.8084 247.565 32.0088 251.109 29.5617C254.654 27.1106 256.846 23.6269 257.686 19.1064C258.509 14.6864 257.71 10.6602 255.295 7.03182Z" fill="white"/>
<path d="M145.916 47.547C145.801 47.4546 145.685 47.3702 145.566 47.2859C145.681 47.3702 145.801 47.4546 145.916 47.547Z" fill="white"/>
<path d="M172.579 48.8489C172.321 49.1061 172.062 49.3673 171.808 49.6285C171.553 49.8896 171.29 50.1508 171.04 50.412C170.785 50.6772 170.539 50.9464 170.288 51.2156C170.037 51.4849 169.787 51.7501 169.54 52.0233C169.293 52.2965 169.051 52.5698 168.808 52.843C168.565 53.1162 168.323 53.3935 168.084 53.6748C167.845 53.952 167.606 54.2333 167.368 54.5146C167.133 54.7958 166.898 55.0811 166.668 55.3664C166.437 55.6517 166.202 55.937 165.971 56.2263C165.741 56.5156 165.518 56.8089 165.291 57.1023C165.064 57.3956 164.837 57.6889 164.619 57.9822C164.396 58.2796 164.177 58.581 163.962 58.8783C163.743 59.1797 163.525 59.481 163.31 59.7824C163.095 60.0878 162.88 60.3931 162.669 60.6985C162.458 61.0079 162.248 61.3173 162.041 61.6267C161.834 61.9361 161.627 62.2495 161.42 62.563C161.217 62.8804 161.018 63.1978 160.815 63.5153C160.616 63.8327 160.413 64.1501 160.219 64.4716C160.024 64.7931 159.833 65.1225 159.638 65.448C159.447 65.7735 159.252 66.103 159.065 66.4325C158.878 66.762 158.691 67.0955 158.504 67.429C158.317 67.7625 158.138 68.1 157.955 68.4375C157.776 68.7751 157.593 69.1126 157.418 69.4541C157.239 69.7957 157.068 70.1453 156.897 70.4908C156.726 70.8364 156.55 71.182 156.379 71.5315C156.212 71.8811 156.049 72.2387 155.882 72.5923C155.783 72.8093 155.675 73.0223 155.58 73.2433H176.387C176.892 70.1774 177.147 67.3647 177.147 64.8051C177.147 58.5046 176.065 52.7586 173.92 47.539C173.733 47.7158 173.55 47.9006 173.363 48.0774C173.105 48.3386 172.838 48.5918 172.579 48.8489Z" fill="white"/>
<path d="M169.456 39.4505C170.431 40.7925 171.322 42.215 172.138 43.7218C172.138 43.7258 172.142 43.7258 172.142 43.7298C172.611 44.6018 173.041 45.4978 173.439 46.4059C173.041 45.4978 172.615 44.6018 172.142 43.7298C170.049 39.8523 167.42 36.5252 164.269 33.7366C166.194 35.4363 167.925 37.3409 169.456 39.4505Z" fill="white"/>
<path d="M169.262 93.5753C169.449 93.3422 169.576 93.0851 169.759 92.844L152.134 82.2239L149.417 80.5845C148.598 81.7659 147.587 82.7985 146.33 83.6866C144.003 85.322 141.218 86.1376 137.979 86.1376C134.232 86.1376 131.116 84.9402 128.638 82.5333C128.348 82.2521 128.077 81.9587 127.814 81.6574C125.861 79.3952 124.791 76.5945 124.62 73.2554H130.249C130.38 72.8696 130.516 72.4879 130.651 72.1022C130.786 71.7164 130.918 71.3307 131.057 70.949C131.196 70.5672 131.339 70.1935 131.479 69.8158C131.622 69.4381 131.761 69.0604 131.904 68.6867C132.047 68.313 132.199 67.9434 132.35 67.5737C132.497 67.204 132.648 66.8343 132.799 66.4647C132.951 66.099 133.11 65.7374 133.265 65.3717C133.42 65.0101 133.575 64.6444 133.734 64.2868C133.893 63.9292 134.057 63.5716 134.22 63.214C134.383 62.8563 134.546 62.5027 134.709 62.1491C134.876 61.7955 135.043 61.446 135.214 61.0964C135.381 60.7468 135.552 60.3972 135.723 60.0517C135.895 59.7061 136.07 59.3605 136.245 59.019C136.42 58.6774 136.595 58.3319 136.774 57.9944C136.953 57.6528 137.132 57.3153 137.315 56.9778C137.418 56.7849 137.518 56.588 137.625 56.3951H138.286H139.833H141.381H142.928H144.476H146.024H147.571H149.119H150.129V56.3911H137.629H124.62C124.819 52.9154 126.084 50.1027 128.415 47.9569C130.743 45.8072 133.627 44.7304 137.072 44.7304C139.678 44.7304 141.958 45.2487 143.911 46.2613C144.098 45.9961 144.293 45.7349 144.484 45.4697C144.699 45.1683 144.918 44.867 145.136 44.5656C145.355 44.2683 145.574 43.9669 145.797 43.6696C146.02 43.3722 146.246 43.0829 146.469 42.7896C146.696 42.4962 146.915 42.1989 147.142 41.9096C147.368 41.6203 147.603 41.335 147.834 41.0457C148.065 40.7564 148.295 40.4711 148.526 40.1858C148.761 39.9005 148.992 39.6152 149.226 39.3339C149.461 39.0527 149.704 38.7754 149.942 38.4941C150.181 38.2129 150.416 37.9316 150.658 37.6543C150.901 37.3771 151.148 37.1039 151.39 36.8306C151.633 36.5574 151.88 36.2842 152.126 36.0109C152.373 35.7377 152.62 35.4685 152.866 35.1992C153.117 34.93 153.368 34.6648 153.622 34.3996C153.873 34.1344 154.124 33.8652 154.378 33.6C154.633 33.3348 154.891 33.0776 155.15 32.8165C155.409 32.5553 155.667 32.2941 155.926 32.0369C156.184 31.7798 156.443 31.5186 156.706 31.2654C156.968 31.0083 157.235 30.7592 157.501 30.506C157.768 30.2529 158.03 29.9957 158.297 29.7466C158.361 29.6863 158.424 29.622 158.492 29.5617C158.365 29.4854 158.233 29.397 158.102 29.3207C152.075 25.8972 145.164 24.1854 137.371 24.1854C129.481 24.1854 122.463 25.9494 116.341 29.4774C110.214 33.0013 105.456 37.8874 102.066 44.1196C98.6725 50.3598 96.9777 57.5162 96.9777 65.5927C96.9777 73.6693 98.7243 80.8256 102.217 87.0618C105.71 93.3021 110.544 98.1841 116.715 101.712C119.249 103.155 121.938 104.288 124.771 105.14C128.861 106.369 133.253 107.004 137.979 107.004C141.62 107.004 145.069 106.638 148.335 105.939C151.06 105.357 153.662 104.541 156.121 103.476C161.535 101.117 165.92 97.8185 169.262 93.5753Z" fill="white"/>
<path d="M186.715 38.8316L186.763 38.5825L186.715 38.8316Z" fill="white"/>
<path d="M215.94 28.1754C215.817 28.1955 215.694 28.2156 215.574 28.2357C215.129 28.304 214.687 28.3804 214.245 28.4567C213.808 28.5331 213.374 28.6174 212.94 28.7018C212.511 28.7862 212.077 28.8706 211.647 28.959C211.222 29.0474 210.8 29.1398 210.374 29.2362C209.957 29.3327 209.539 29.4331 209.125 29.5336C208.711 29.634 208.298 29.7345 207.888 29.843C207.482 29.9515 207.072 30.06 206.67 30.1725C206.269 30.285 205.867 30.4015 205.469 30.522C205.071 30.6386 204.673 30.7551 204.275 30.8797C203.886 31.0042 203.496 31.1328 203.106 31.2614C202.72 31.39 202.334 31.5186 201.948 31.6552C201.566 31.7878 201.184 31.9204 200.802 32.061C200.424 32.1976 200.05 32.3423 199.676 32.4869C199.302 32.6316 198.929 32.7722 198.559 32.9209C198.189 33.0696 197.823 33.2182 197.456 33.3709C197.094 33.5236 196.732 33.6803 196.37 33.837C196.012 33.9938 195.65 34.1464 195.292 34.3112C194.938 34.4719 194.588 34.6407 194.234 34.8054C193.884 34.9702 193.534 35.1349 193.184 35.3077C192.838 35.4765 192.491 35.6492 192.149 35.822C191.807 35.9948 191.465 36.1716 191.127 36.3524C190.789 36.5292 190.447 36.706 190.112 36.8868C189.778 37.0677 189.448 37.2565 189.118 37.4413C188.788 37.6262 188.457 37.811 188.127 38.0039C187.801 38.1927 187.475 38.3856 187.152 38.5825C187.013 38.6669 186.874 38.7432 186.735 38.8276L186.802 38.7915L186.719 38.8397L181.758 64.0738C180.739 68.976 180.238 73.6773 180.238 78.1736C180.238 83.5901 181.603 88.4963 184.332 92.8922C187.069 97.284 190.86 100.736 195.718 103.243C200.576 105.746 206.038 107 212.109 107C214.031 107 215.801 106.896 217.42 106.695L221.975 84.462H220.153C216.406 84.462 213.374 83.4173 211.047 81.3198C208.715 79.2264 207.558 76.5462 207.558 73.2714C207.558 72.0459 207.657 70.7159 207.856 69.2894L215.94 28.1754L216.183 26.9378L216.123 27.2312L215.94 28.1754Z" fill="white"/>
<path d="M130.245 73.2554H131.789L130.647 72.1022C130.512 72.4839 130.377 72.8656 130.245 73.2554Z" fill="white"/>
<path d="M130.647 72.0981L131.789 73.2513H133.336L131.053 70.9449C130.914 71.3306 130.782 71.7164 130.647 72.0981Z" fill="#FFFEFD"/>
<path d="M131.053 70.9449L133.336 73.2514H134.884L131.479 69.8118C131.335 70.1895 131.188 70.5672 131.053 70.9449Z" fill="#FFFDFB"/>
<path d="M131.475 69.8117L134.88 73.2513H136.428L131.9 68.6786C131.757 69.0563 131.618 69.434 131.475 69.8117Z" fill="#FFFDF9"/>
<path d="M131.904 68.6826L136.432 73.2553H137.979L132.35 67.5696C132.199 67.9393 132.047 68.309 131.904 68.6826Z" fill="#FFFCF7"/>
<path d="M132.346 67.5696L137.975 73.2553H139.523L132.799 66.4646C132.644 66.8303 132.497 67.2 132.346 67.5696Z" fill="#FFFBF6"/>
<path d="M132.795 66.4607L139.519 73.2514H141.066L133.261 65.3677C133.106 65.7334 132.951 66.095 132.795 66.4607Z" fill="#FFFBF5"/>
<path d="M133.261 65.3677L141.067 73.2514H142.614L133.73 64.2788C133.571 64.6444 133.416 65.006 133.261 65.3677Z" fill="#FFFAF3"/>
<path d="M133.73 64.2827L142.614 73.2553H144.162L134.216 63.2099C134.053 63.5675 133.889 63.9211 133.73 64.2827Z" fill="#FFFAF2"/>
<path d="M134.216 63.2099L144.162 73.2553H145.709L134.709 62.1451C134.542 62.4987 134.379 62.8523 134.216 63.2099Z" fill="#FFF9F1"/>
<path d="M134.709 62.1451L145.709 73.2553H147.257L135.214 61.0923C135.043 61.4419 134.872 61.7915 134.709 62.1451Z" fill="#FFF9F0"/>
<path d="M135.21 61.0884L147.253 73.2514H148.801L135.723 60.0436C135.548 60.3932 135.381 60.7388 135.21 61.0884Z" fill="#FFF8EE"/>
<path d="M135.723 60.0436L148.801 73.2514H150.348L136.245 59.0069C136.07 59.3525 135.895 59.698 135.723 60.0436Z" fill="#FFF8ED"/>
<path d="M136.245 59.0109L150.348 73.2553H151.896L136.778 57.9863C136.595 58.3238 136.42 58.6653 136.245 59.0109Z" fill="#FFF7EC"/>
<path d="M136.774 57.9823L151.892 73.2513H153.439L137.315 56.9657C137.132 57.3072 136.953 57.6447 136.774 57.9823Z" fill="#FFF7EB"/>
<path d="M137.625 56.3871C137.522 56.58 137.418 56.7768 137.315 56.9697L153.439 73.2554H154.987L138.286 56.3871H137.625Z" fill="#FFF7EA"/>
<path d="M139.833 56.3871H138.286L154.987 73.2554H155.584C155.683 73.0384 155.787 72.8214 155.886 72.6044L139.833 56.3871Z" fill="#FFF6E9"/>
<path d="M156.387 71.5437L141.381 56.3871H139.833L155.89 72.6045C156.053 72.2509 156.216 71.8932 156.387 71.5437Z" fill="#FFF6E8"/>
<path d="M156.901 70.5029L142.924 56.3871H141.377L156.383 71.5436C156.554 71.1941 156.73 70.8485 156.901 70.5029Z" fill="#FFF5E7"/>
<path d="M157.422 69.4662L144.472 56.3871H142.924L156.901 70.5029C157.076 70.1574 157.247 69.8078 157.422 69.4662Z" fill="#FFF5E6"/>
<path d="M157.963 68.4497L146.02 56.3871H144.472L157.422 69.4663C157.601 69.1247 157.78 68.7872 157.963 68.4497Z" fill="#FFF5E4"/>
<path d="M158.508 67.4411L147.563 56.3871H146.016L157.959 68.4496C158.142 68.1121 158.325 67.7746 158.508 67.4411Z" fill="#FFF4E3"/>
<path d="M159.069 66.4405L149.111 56.383H147.563L158.508 67.437C158.695 67.1075 158.878 66.774 159.069 66.4405Z" fill="#FFF4E2"/>
<path d="M150.109 55.8366C150.113 56.0174 150.121 56.1982 150.121 56.3831C150.125 56.1982 150.117 56.0174 150.109 55.8366Z" fill="#FFF3E1"/>
<path d="M159.642 65.4601L150.113 55.8366C150.121 56.0174 150.125 56.1982 150.125 56.3831V56.3871H149.115L159.073 66.4446C159.256 66.1111 159.447 65.7856 159.642 65.4601Z" fill="#FFF3E1"/>
<path d="M149.914 54.0726C150.022 54.6391 150.086 55.2258 150.109 55.8325C150.086 55.2298 150.022 54.6432 149.914 54.0726Z" fill="#FFF3E0"/>
<path d="M150.109 55.8366L159.638 65.4601C159.829 65.1347 160.02 64.8052 160.219 64.4837L149.914 54.0766C150.022 54.6432 150.086 55.2298 150.109 55.8366Z" fill="#FFF3E0"/>
<path d="M149.242 51.8304C149.545 52.5376 149.767 53.285 149.915 54.0726L149.918 54.0766C149.767 53.289 149.545 52.5417 149.242 51.8304Z" fill="#FFF3DF"/>
<path d="M149.915 54.0726L160.219 64.4797C160.414 64.1582 160.616 63.8408 160.815 63.5233L149.238 51.8304C149.545 52.5417 149.767 53.289 149.915 54.0726Z" fill="#FFF3DF"/>
<path d="M146.481 48.0253C146.298 47.8605 146.107 47.6998 145.916 47.5471C146.107 47.6998 146.294 47.8565 146.481 48.0253C147.714 49.1423 148.633 50.4121 149.238 51.8305L149.242 51.8345C148.633 50.4121 147.714 49.1423 146.481 48.0253Z" fill="#FFF2DE"/>
<path d="M145.566 47.2859C145.041 46.9002 144.492 46.5546 143.911 46.2572C144.488 46.5546 145.041 46.9002 145.566 47.2859Z" fill="#FFF2DE"/>
<path d="M145.566 47.2859C145.681 47.3703 145.801 47.4546 145.916 47.5471C146.107 47.6998 146.298 47.8565 146.481 48.0252C147.714 49.1423 148.633 50.412 149.242 51.8345L160.819 63.5274C161.018 63.2099 161.217 62.8885 161.424 62.575L144.484 45.4657C144.293 45.7309 144.098 45.992 143.911 46.2572C144.492 46.5546 145.041 46.9001 145.566 47.2859Z" fill="#FFF2DE"/>
<path d="M162.041 61.6348L145.132 44.5575C144.914 44.8549 144.695 45.1603 144.48 45.4616L161.42 62.571C161.627 62.2576 161.834 61.9482 162.041 61.6348Z" fill="#FFF2DD"/>
<path d="M162.669 60.7066L145.797 43.6655C145.574 43.9628 145.355 44.2602 145.136 44.5615L162.045 61.6388C162.248 61.3254 162.458 61.016 162.669 60.7066Z" fill="#FFF2DC"/>
<path d="M163.306 59.7905L146.465 42.7815C146.238 43.0749 146.012 43.3682 145.793 43.6615L162.665 60.7026C162.88 60.4012 163.091 60.0958 163.306 59.7905Z" fill="#FFF1DB"/>
<path d="M163.958 58.8864L147.142 41.9015C146.915 42.1908 146.692 42.4882 146.469 42.7815L163.31 59.7904C163.521 59.4851 163.739 59.1877 163.958 58.8864Z" fill="#FFF1DA"/>
<path d="M164.615 57.9863L147.834 41.0376C147.603 41.3269 147.368 41.6122 147.142 41.9015L163.958 58.8864C164.177 58.585 164.392 58.2836 164.615 57.9863Z" fill="#FFF1D9"/>
<path d="M165.291 57.1063L148.53 40.1777C148.295 40.463 148.065 40.7523 147.838 41.0376L164.619 57.9863C164.838 57.693 165.064 57.3996 165.291 57.1063Z" fill="#FFF0D8"/>
<path d="M165.967 56.2303L149.23 39.3219C148.996 39.6031 148.761 39.8884 148.53 40.1737L165.291 57.1023C165.514 56.813 165.741 56.5197 165.967 56.2303Z" fill="#FFF0D7"/>
<path d="M166.664 55.3705L149.942 38.4821C149.704 38.7633 149.465 39.0406 149.226 39.3219L165.967 56.2303C166.198 55.941 166.433 55.6557 166.664 55.3705Z" fill="#FFF0D6"/>
<path d="M167.364 54.5186L150.654 37.6422C150.412 37.9195 150.177 38.2008 149.938 38.482L166.66 55.3704C166.898 55.0851 167.129 54.7998 167.364 54.5186Z" fill="#FFEFD5"/>
<path d="M168.08 53.6788L151.387 36.8185C151.144 37.0918 150.897 37.365 150.655 37.6423L167.364 54.5186C167.603 54.2373 167.841 53.9561 168.08 53.6788Z" fill="#FFEFD4"/>
<path d="M168.804 52.8471L152.123 35.9988C151.876 36.2721 151.633 36.5453 151.387 36.8185L168.08 53.6788C168.319 53.4016 168.561 53.1243 168.804 52.8471Z" fill="#FFEFD3"/>
<path d="M169.54 52.0274L152.866 35.1872C152.616 35.4564 152.373 35.7296 152.127 35.9989L168.808 52.8471C169.047 52.5738 169.293 52.2966 169.54 52.0274Z" fill="#FFEED3"/>
<path d="M170.284 51.2197L153.618 34.3876C153.368 34.6528 153.113 34.918 152.863 35.1872L169.536 52.0274C169.787 51.7541 170.033 51.4889 170.284 51.2197Z" fill="#FFEED2"/>
<path d="M171.036 50.4161L154.374 33.5879C154.12 33.8531 153.869 34.1224 153.618 34.3876L170.284 51.2197C170.535 50.9505 170.785 50.6813 171.036 50.4161Z" fill="#FFEED1"/>
<path d="M171.808 49.6325L155.146 32.8044C154.887 33.0656 154.629 33.3227 154.374 33.5879L171.036 50.416C171.291 50.1508 171.549 49.8937 171.808 49.6325Z" fill="#FFEDD0"/>
<path d="M172.58 48.849L155.922 32.0249C155.663 32.282 155.405 32.5432 155.146 32.8044L171.808 49.6325C172.062 49.3713 172.321 49.1101 172.58 48.849Z" fill="#FFEDCF"/>
<path d="M173.371 48.0855L156.706 31.2534C156.443 31.5105 156.185 31.7677 155.926 32.0248L172.584 48.8489C172.838 48.5918 173.105 48.3386 173.371 48.0855Z" fill="#FFEDCE"/>
<path d="M173.928 47.5471C173.821 47.2779 173.705 47.0127 173.594 46.7475C173.705 47.0127 173.817 47.2779 173.928 47.5471Z" fill="#FFECCD"/>
<path d="M157.497 30.4939C157.231 30.7471 156.964 30.9962 156.702 31.2534L173.367 48.0855C173.554 47.9047 173.737 47.7239 173.924 47.5471C173.813 47.2778 173.701 47.0126 173.586 46.7474L157.497 30.4939Z" fill="#FFECCD"/>
<path d="M173.59 46.7475C173.542 46.631 173.491 46.5184 173.439 46.4019C173.491 46.5184 173.542 46.631 173.59 46.7475Z" fill="#FFECCC"/>
<path d="M172.138 43.7178L158.293 29.7345C158.027 29.9836 157.764 30.2408 157.497 30.4939L173.59 46.7475C173.542 46.6309 173.491 46.5184 173.443 46.4059C173.041 45.4978 172.615 44.5977 172.146 43.7298C172.142 43.7218 172.138 43.7218 172.138 43.7178Z" fill="#FFECCC"/>
<path d="M161.866 31.7837C160.788 30.9841 159.666 30.2408 158.488 29.5496C158.488 29.5496 158.492 29.5496 158.492 29.5537C159.67 30.2408 160.791 30.9881 161.866 31.7837Z" fill="#FFECCB"/>
<path d="M172.138 43.7177C171.322 42.2109 170.431 40.7885 169.456 39.4464L161.866 31.7837C160.791 30.9881 159.67 30.2408 158.492 29.5537C158.492 29.5537 158.488 29.5537 158.488 29.5496C158.42 29.6099 158.361 29.6742 158.293 29.7345L172.138 43.7177Z" fill="#FFECCB"/>
<path d="M164.273 33.7326C163.501 33.0495 162.697 32.3986 161.866 31.7798L161.87 31.7838C162.701 32.4026 163.501 33.0495 164.273 33.7326Z" fill="#FFEBCA"/>
<path d="M169.456 39.4505C167.925 37.3409 166.194 35.4403 164.273 33.7366C163.501 33.0535 162.701 32.4026 161.87 31.7878L169.456 39.4505Z" fill="#FFEBCA"/>
<path d="M186.715 38.8318C186.719 38.8278 186.727 38.8237 186.735 38.8196L186.715 38.8318Z" fill="#FFE8C1"/>
<path d="M186.83 38.2531L186.763 38.5825L186.83 38.2531Z" fill="#FFE8C1"/>
<path d="M186.83 38.2531L186.763 38.5825L186.715 38.8277L186.731 38.8196C186.87 38.7352 187.009 38.6549 187.148 38.5745L186.83 38.2531Z" fill="#FFE8C1"/>
<path d="M187.089 36.9512L187.085 36.9471L186.83 38.2531L187.089 36.9512Z" fill="#FFE8C0"/>
<path d="M186.83 38.253L187.148 38.5745C187.471 38.3816 187.797 38.1888 188.123 37.9959L187.089 36.9512L186.83 38.253Z" fill="#FFE8C0"/>
<path d="M187.347 35.6533L187.339 35.6453L187.085 36.9472L187.089 36.9512L187.347 35.6533Z" fill="#FFE7BF"/>
<path d="M187.089 36.9511L188.123 37.9959C188.449 37.807 188.784 37.6182 189.114 37.4333L187.347 35.6493L187.089 36.9511Z" fill="#FFE7BF"/>
<path d="M187.606 34.3514L187.598 34.3434L187.339 35.6452L187.347 35.6533L187.606 34.3514Z" fill="#FFE7BE"/>
<path d="M187.347 35.6533L189.114 37.4373C189.444 37.2525 189.774 37.0637 190.108 36.8828L187.606 34.3554L187.347 35.6533Z" fill="#FFE7BE"/>
<path d="M187.869 33.0535L187.853 33.0374L187.598 34.3434L187.606 34.3514L187.869 33.0535Z" fill="#FFE7BD"/>
<path d="M187.606 34.3514L190.108 36.8788C190.447 36.698 190.785 36.5212 191.123 36.3444L187.865 33.0535L187.606 34.3514Z" fill="#FFE7BD"/>
<path d="M188.127 31.7516L188.111 31.7355L187.853 33.0374L187.869 33.0535L188.127 31.7516Z" fill="#FFE7BD"/>
<path d="M187.869 33.0535L191.127 36.3444C191.465 36.1676 191.807 35.9908 192.149 35.814L188.127 31.7516L187.869 33.0535Z" fill="#FFE7BD"/>
<path d="M188.386 30.4538L188.366 30.4337L188.111 31.7356L188.127 31.7516L188.386 30.4538Z" fill="#FFE6BC"/>
<path d="M188.127 31.7516L192.149 35.814C192.491 35.6412 192.838 35.4684 193.184 35.2997L188.386 30.4537L188.127 31.7516Z" fill="#FFE6BC"/>
<path d="M188.644 29.1519L188.624 29.1318L188.366 30.4337L188.386 30.4538L188.644 29.1519Z" fill="#FFE6BB"/>
<path d="M188.386 30.4537L193.184 35.2997C193.534 35.1309 193.884 34.9621 194.234 34.7974L188.644 29.1519L188.386 30.4537Z" fill="#FFE6BB"/>
<path d="M188.907 27.854L188.879 27.8259L188.624 29.1318L188.644 29.1519L188.907 27.854Z" fill="#FFE6BA"/>
<path d="M188.644 29.1519L194.234 34.7974C194.584 34.6327 194.938 34.4639 195.292 34.3032L188.907 27.854L188.644 29.1519Z" fill="#FFE6BA"/>
<path d="M189.166 26.5521L189.134 26.524L188.879 27.8259L188.907 27.854L189.166 26.5521Z" fill="#FFE5B9"/>
<path d="M188.907 27.854L195.292 34.3032C195.65 34.1425 196.012 33.9857 196.37 33.829L189.166 26.5521L188.907 27.854Z" fill="#FFE5B9"/>
<path d="M189.424 25.2542L189.392 25.2221L189.134 26.524L189.165 26.5521L189.424 25.2542Z" fill="#FFE5B8"/>
<path d="M189.166 26.5521L196.37 33.829C196.732 33.6723 197.094 33.5156 197.457 33.3629L189.424 25.2502L189.166 26.5521Z" fill="#FFE5B8"/>
<path d="M189.683 23.9563L189.647 23.9162L189.392 25.2221L189.424 25.2542L189.683 23.9563Z" fill="#FFE5B8"/>
<path d="M189.424 25.2542L197.457 33.3669C197.823 33.2143 198.189 33.0616 198.559 32.9169L189.687 23.9564L189.424 25.2542Z" fill="#FFE5B8"/>
<path d="M189.945 22.6545L189.906 22.6143L189.647 23.9162L189.683 23.9564L189.945 22.6545Z" fill="#FFE5B7"/>
<path d="M189.683 23.9564L198.555 32.9169C198.925 32.7682 199.299 32.6276 199.673 32.4829L189.941 22.6545L189.683 23.9564Z" fill="#FFE5B7"/>
<path d="M190.204 21.3566L190.16 21.3124L189.906 22.6143L189.945 22.6544L190.204 21.3566Z" fill="#FFE4B6"/>
<path d="M189.945 22.6545L199.677 32.4829C200.051 32.3383 200.424 32.1936 200.802 32.057L190.208 21.3566L189.945 22.6545Z" fill="#FFE4B6"/>
<path d="M190.462 20.0547L190.419 20.0065L190.16 21.3124L190.204 21.3566L190.462 20.0547Z" fill="#FFE4B5"/>
<path d="M190.204 21.3566L200.798 32.057C201.18 31.9163 201.562 31.7837 201.944 31.6511L190.462 20.0547L190.204 21.3566Z" fill="#FFE4B5"/>
<path d="M190.721 18.7568L190.673 18.7046L190.419 20.0065L190.462 20.0547L190.721 18.7568Z" fill="#FFE4B5"/>
<path d="M190.462 20.0547L201.944 31.6511C202.33 31.5185 202.716 31.386 203.102 31.2574L190.721 18.7528L190.462 20.0547Z" fill="#FFE4B5"/>
<path d="M190.984 17.4549L190.928 17.4027L190.673 18.7046L190.721 18.7568L190.984 17.4549Z" fill="#FFE3B4"/>
<path d="M190.721 18.7569L203.102 31.2614C203.492 31.1329 203.878 31.0043 204.272 30.8797L190.98 17.455L190.721 18.7569Z" fill="#FFE3B4"/>
<path d="M191.242 16.1571L191.187 16.1009L190.928 17.4027L190.984 17.455L191.242 16.1571Z" fill="#FFE3B3"/>
<path d="M190.984 17.455L204.276 30.8797C204.669 30.7551 205.071 30.6386 205.469 30.5221L191.242 16.1571L190.984 17.455Z" fill="#FFE3B3"/>
<path d="M191.501 14.8552L191.441 14.795L191.187 16.1009L191.242 16.1571L191.501 14.8552Z" fill="#FFE3B2"/>
<path d="M191.242 16.1571L205.465 30.5221C205.863 30.4056 206.265 30.285 206.667 30.1725L191.501 14.8552L191.242 16.1571Z" fill="#FFE3B2"/>
<path d="M191.759 13.5573L191.7 13.4931L191.441 14.7949L191.501 14.8552L191.759 13.5573Z" fill="#FFE3B2"/>
<path d="M191.501 14.8552L206.667 30.1725C207.072 30.06 207.478 29.9475 207.884 29.843L191.759 13.5573L191.501 14.8552Z" fill="#FFE3B2"/>
<path d="M192.022 12.2555L191.954 12.1912L191.7 13.4931L191.759 13.5573L192.022 12.2555Z" fill="#FFE2B1"/>
<path d="M191.759 13.5573L207.884 29.843C208.294 29.7345 208.707 29.634 209.121 29.5336L192.022 12.2554L191.759 13.5573Z" fill="#FFE2B1"/>
<path d="M192.281 10.9576L192.209 10.8853L191.954 12.1912L192.022 12.2555L192.281 10.9576Z" fill="#FFE2B0"/>
<path d="M192.022 12.2554L209.125 29.5296C209.543 29.4291 209.957 29.3246 210.374 29.2322L192.281 10.9576L192.022 12.2554Z" fill="#FFE2B0"/>
<path d="M192.48 9.94501C192.563 9.91286 192.651 9.88474 192.734 9.85259L192.659 9.77625C192.575 9.80839 192.491 9.83652 192.408 9.86464L192.209 10.8853L192.277 10.9536L192.48 9.94501Z" fill="#FFE2AF"/>
<path d="M192.479 9.94497L192.277 10.9576L210.37 29.2322C210.792 29.1358 211.218 29.0434 211.644 28.955L192.73 9.85255C192.651 9.8847 192.567 9.91283 192.479 9.94497Z" fill="#FFE2AF"/>
<path d="M193.876 9.44269L193.8 9.36635C193.418 9.49895 193.04 9.63557 192.659 9.7762L192.734 9.85255C193.116 9.71593 193.494 9.57931 193.876 9.44269Z" fill="#FFE2AF"/>
<path d="M192.734 9.85659L211.648 28.959C212.077 28.8706 212.507 28.7862 212.941 28.7018L193.876 9.44272C193.494 9.57934 193.116 9.71595 192.734 9.85659Z" fill="#FFE2AF"/>
<path d="M195.026 9.04494L194.954 8.97261C194.568 9.10521 194.182 9.23379 193.8 9.37041L193.876 9.44676C194.258 9.31014 194.644 9.17754 195.026 9.04494Z" fill="#FFE1AE"/>
<path d="M193.876 9.44271L212.94 28.6978C213.374 28.6134 213.808 28.529 214.245 28.4527L195.026 9.04089C194.644 9.17751 194.258 9.31011 193.876 9.44271Z" fill="#FFE1AE"/>
<path d="M196.187 8.65515L196.116 8.58282C195.726 8.71141 195.34 8.83999 194.954 8.97259L195.026 9.04492C195.412 8.91232 195.798 8.78373 196.187 8.65515Z" fill="#FFE1AD"/>
<path d="M195.026 9.04488L214.245 28.4567C214.687 28.3803 215.129 28.308 215.574 28.2357L196.187 8.65512C195.798 8.7837 195.412 8.91228 195.026 9.04488Z" fill="#FFE1AD"/>
<path d="M197.361 8.27742L197.289 8.20509C196.896 8.32966 196.506 8.45422 196.116 8.5828L196.187 8.65513C196.577 8.52655 196.967 8.40198 197.361 8.27742Z" fill="#FFE1AD"/>
<path d="M215.574 28.2357C215.698 28.2156 215.817 28.1956 215.94 28.1755L216.127 27.2312L197.361 8.27745C196.971 8.40201 196.577 8.52658 196.187 8.65516L215.574 28.2357Z" fill="#FFE1AD"/>
<path d="M198.547 7.9158L198.479 7.84749C198.081 7.96803 197.687 8.08456 197.289 8.20912L197.361 8.28145C197.755 8.15287 198.149 8.03232 198.547 7.9158Z" fill="#FFE1AC"/>
<path d="M216.183 26.9378L216.382 25.9293V25.9252L216.183 26.9378Z" fill="#FFE1AC"/>
<path d="M198.547 7.91583C198.149 8.03638 197.755 8.15692 197.361 8.27747L216.127 27.2312L216.187 26.9379L216.382 25.9253L198.547 7.91583Z" fill="#FFE1AC"/>
<path d="M216.382 25.9253V25.9293L216.64 24.6274L216.632 24.6194L216.382 25.9253Z" fill="#FFE1AB"/>
<path d="M199.744 7.56221L199.677 7.4939C199.275 7.61042 198.877 7.72695 198.479 7.8475L198.547 7.9158C198.944 7.79526 199.342 7.67471 199.744 7.56221Z" fill="#FFE1AB"/>
<path d="M198.547 7.91584L216.382 25.9293L216.636 24.6234L199.744 7.56224C199.342 7.67475 198.944 7.7953 198.547 7.91584Z" fill="#FFE1AB"/>
<path d="M200.95 7.21662L200.886 7.15233C200.48 7.26082 200.078 7.37735 199.676 7.49387L199.744 7.56218C200.146 7.44566 200.548 7.32913 200.95 7.21662Z" fill="#FFE0AB"/>
<path d="M216.632 24.6193L216.64 24.6274L216.895 23.3215L216.887 23.3175L216.632 24.6193Z" fill="#FFE0AB"/>
<path d="M199.744 7.56222L216.636 24.6234L216.891 23.3175L200.95 7.21666C200.548 7.32917 200.146 7.4457 199.744 7.56222Z" fill="#FFE0AB"/>
<path d="M216.887 23.3175L216.895 23.3215L217.154 22.0196L217.142 22.0116L216.887 23.3175Z" fill="#FFE0AA"/>
<path d="M202.175 6.89118L202.111 6.82689C201.702 6.93136 201.292 7.03985 200.886 7.15236L200.95 7.21665C201.355 7.10816 201.765 6.99967 202.175 6.89118Z" fill="#FFE0AA"/>
<path d="M200.95 7.21663L216.887 23.3134L217.142 22.0075L202.175 6.89116C201.765 6.99965 201.355 7.10814 200.95 7.21663Z" fill="#FFE0AA"/>
<path d="M203.408 6.57777L203.345 6.51347C202.931 6.61393 202.521 6.7184 202.107 6.82689L202.171 6.89118C202.585 6.78671 202.998 6.68224 203.408 6.57777Z" fill="#FFE0A9"/>
<path d="M217.142 22.0116L217.154 22.0196L217.408 20.7177L217.396 20.7056L217.142 22.0116Z" fill="#FFE0A9"/>
<path d="M202.175 6.89118L217.142 22.0076L217.396 20.7017L203.408 6.57375C202.998 6.68224 202.585 6.78671 202.175 6.89118Z" fill="#FFE0A9"/>
<path d="M217.396 20.7056L217.408 20.7177L217.663 19.4158L217.651 19.3997L217.396 20.7056Z" fill="#FFE0A9"/>
<path d="M204.657 6.27641L204.598 6.21614C204.18 6.31258 203.766 6.41705 203.349 6.5175L203.412 6.58179C203.826 6.47732 204.24 6.37285 204.657 6.27641Z" fill="#FFE0A9"/>
<path d="M203.408 6.57775L217.396 20.7057L217.651 19.3997L204.657 6.27638C204.24 6.37282 203.826 6.47729 203.408 6.57775Z" fill="#FFE0A9"/>
<path d="M205.919 5.98708L205.859 5.9268C205.437 6.01922 205.016 6.11566 204.594 6.21209L204.653 6.27237C205.075 6.17593 205.497 6.07949 205.919 5.98708Z" fill="#FFDFA8"/>
<path d="M217.651 19.3997L217.663 19.4158L217.921 18.1099L217.902 18.0938L217.651 19.3997Z" fill="#FFDFA8"/>
<path d="M204.657 6.27638L217.651 19.3997L217.906 18.0938L205.919 5.98708C205.497 6.07949 205.075 6.17593 204.657 6.27638Z" fill="#FFDFA8"/>
<path d="M207.196 5.7179L207.136 5.65762C206.71 5.74602 206.285 5.83442 205.859 5.92684L205.919 5.98711C206.344 5.8947 206.77 5.8063 207.196 5.7179Z" fill="#FFDFA8"/>
<path d="M217.902 18.0938L217.922 18.1099L218.176 16.808L218.156 16.7879L217.902 18.0938Z" fill="#FFDFA8"/>
<path d="M205.919 5.98708L217.906 18.0938L218.16 16.7879L207.196 5.71786C206.77 5.80626 206.344 5.89466 205.919 5.98708Z" fill="#FFDFA8"/>
<path d="M218.156 16.7879L218.176 16.808L218.435 15.5061L218.411 15.482L218.156 16.7879Z" fill="#FFDFA7"/>
<path d="M208.485 5.45667L208.425 5.39639C207.995 5.48077 207.566 5.56516 207.136 5.65356L207.196 5.71383C207.625 5.62543 208.055 5.54105 208.485 5.45667Z" fill="#FFDFA7"/>
<path d="M207.196 5.71789L218.156 16.788L218.411 15.4821L208.485 5.45671C208.055 5.54109 207.625 5.62547 207.196 5.71789Z" fill="#FFDFA7"/>
<path d="M209.786 5.20758L209.73 5.15132C209.296 5.23168 208.859 5.31205 208.425 5.39643L208.485 5.4567C208.918 5.37232 209.352 5.28794 209.786 5.20758Z" fill="#FFDFA6"/>
<path d="M218.411 15.482L218.435 15.5061L218.689 14.2042L218.665 14.1761L218.411 15.482Z" fill="#FFDFA6"/>
<path d="M208.485 5.45671L218.411 15.4821L218.665 14.1761L209.786 5.20758C209.352 5.28794 208.918 5.37233 208.485 5.45671Z" fill="#FFDFA6"/>
<path d="M211.106 4.98254L211.051 4.92628C210.609 4.99861 210.168 5.07496 209.73 5.1513L209.786 5.20756C210.227 5.13121 210.669 5.05487 211.106 4.98254Z" fill="#FFDFA6"/>
<path d="M218.665 14.1761L218.689 14.2042L218.948 12.8983L218.92 12.8702L218.665 14.1761Z" fill="#FFDFA6"/>
<path d="M209.786 5.20755L218.665 14.1761L218.92 12.8702L211.106 4.98253C210.669 5.05486 210.227 5.1312 209.786 5.20755Z" fill="#FFDFA6"/>
<path d="M218.92 12.8702L218.948 12.8983L219.203 11.5964L219.171 11.5643L218.92 12.8702Z" fill="#FFDFA5"/>
<path d="M212.443 4.76957L212.387 4.71332C211.942 4.78163 211.496 4.85395 211.051 4.92628L211.106 4.98254C211.552 4.91021 211.998 4.83788 212.443 4.76957Z" fill="#FFDFA5"/>
<path d="M211.106 4.98254L218.916 12.8702L219.171 11.5643L212.443 4.76958C211.998 4.83789 211.552 4.91021 211.106 4.98254Z" fill="#FFDFA5"/>
<path d="M219.171 11.5643L219.203 11.5964L219.461 10.2946L219.425 10.2584L219.171 11.5643Z" fill="#FFDEA5"/>
<path d="M213.796 4.57269L213.74 4.51643C213.291 4.58072 212.841 4.64502 212.391 4.71332L212.447 4.76958C212.893 4.70127 213.342 4.63698 213.796 4.57269Z" fill="#FFDEA5"/>
<path d="M212.443 4.76957L219.171 11.5643L219.425 10.2584L213.796 4.57268C213.342 4.63697 212.893 4.70126 212.443 4.76957Z" fill="#FFDEA5"/>
<path d="M219.425 10.2584L219.461 10.2946L219.716 8.99267L219.68 8.95248L219.425 10.2584Z" fill="#FFDEA4"/>
<path d="M215.16 4.38783L215.105 4.33157C214.647 4.38783 214.194 4.45212 213.74 4.51239L213.796 4.56865C214.249 4.50837 214.703 4.4481 215.16 4.38783Z" fill="#FFDEA4"/>
<path d="M213.796 4.57267L219.425 10.2584L219.68 8.95248L215.16 4.38783C214.703 4.44811 214.249 4.50838 213.796 4.57267Z" fill="#FFDEA4"/>
<path d="M219.68 8.95248L219.716 8.99267L219.974 7.68676L219.935 7.64658L219.68 8.95248Z" fill="#FFDEA4"/>
<path d="M216.549 4.22712L216.493 4.17087C216.032 4.2231 215.566 4.27534 215.109 4.33159L215.164 4.38785C215.622 4.33159 216.083 4.27936 216.549 4.22712Z" fill="#FFDEA4"/>
<path d="M215.16 4.38784L219.68 8.95249L219.935 7.64658L216.549 4.22711C216.083 4.27935 215.622 4.33158 215.16 4.38784Z" fill="#FFDEA4"/>
<path d="M219.935 7.64657L219.974 7.68675L220.229 6.38486L220.189 6.34468L219.935 7.64657Z" fill="#FFDEA4"/>
<path d="M217.949 4.08246L217.89 4.02219C217.42 4.06639 216.955 4.1146 216.489 4.16684L216.545 4.22309C217.014 4.17488 217.48 4.13068 217.949 4.08246Z" fill="#FFDEA4"/>
<path d="M216.549 4.22711L219.935 7.64658L220.189 6.34067L217.953 4.08246C217.48 4.13068 217.014 4.17488 216.549 4.22711Z" fill="#FFDEA4"/>
<path d="M219.37 3.95392L219.31 3.89365C218.837 3.93383 218.363 3.97803 217.894 4.02223L217.953 4.0825C218.423 4.0383 218.896 3.9941 219.37 3.95392Z" fill="#FFDEA3"/>
<path d="M220.189 6.34468L220.229 6.38486L220.488 5.08297L220.44 5.03877L220.189 6.34468Z" fill="#FFDEA3"/>
<path d="M220.189 6.3447L220.444 5.03879L219.374 3.9579C218.9 3.99808 218.427 4.04228 217.953 4.08648L220.189 6.3447Z" fill="#FFDEA3"/>
<path d="M220.738 3.7811C220.261 3.81324 219.783 3.85342 219.31 3.89361L219.37 3.95388C219.803 3.91772 220.237 3.88155 220.671 3.84941L220.44 5.03477L220.484 5.07897L220.738 3.7811Z" fill="#FFDEA3"/>
<path d="M220.671 3.85344C220.237 3.88558 219.803 3.92175 219.37 3.95791L220.44 5.0388L220.671 3.85344Z" fill="#FFDEA3"/>
</g>
<defs>
<clipPath id="clip0_1_2">
<rect width="258" height="107" fill="white"/>
</clipPath>
</defs>
</svg>
