<svg viewBox="0 0 17 18" fill="none" class="ionicon" xmlns="http://www.w3.org/2000/svg">
<path d="M1.5 6.875C1.5 4.40013 1.5 3.16269 2.26884 2.39384C3.03769 1.625 4.27513 1.625 6.75 1.625H10.25C12.7249 1.625 13.9623 1.625 14.7312 2.39384C15.5 3.16269 15.5 4.40013 15.5 6.875V12.8492C15.5 15.197 15.5 16.371 14.7612 16.73C14.0225 17.0891 13.0994 16.3638 11.2532 14.9132L10.6624 14.449C9.6243 13.6334 9.10526 13.2256 8.5 13.2256C7.89474 13.2256 7.3757 13.6334 6.33762 14.449L5.74678 14.9132C3.9006 16.3638 2.97751 17.0891 2.23876 16.73C1.5 16.371 1.5 15.197 1.5 12.8492V6.875Z" stroke-width="2"/>
</svg>
