<svg viewBox="0 0 20 20" class="ionicon" xmlns="http://www.w3.org/2000/svg"><title>Payment</title><path d="M17.8945 13.3342C17.3492 14.6237 16.4963 15.7601 15.4104 16.6439C14.3245 17.5277 13.0386 18.132 11.6652 18.404C10.2918 18.676 8.8726 18.6074 7.5318 18.2043C6.19099 17.8011 4.96935 17.0757 3.97369 16.0913C2.97802 15.107 2.23865 13.8937 1.82021 12.5576C1.40177 11.2214 1.31701 9.80317 1.57332 8.42672C1.82964 7.05028 2.41924 5.75758 3.29057 4.66163C4.16189 3.56569 5.28843 2.69988 6.57167 2.1399M18.5717 9.9999C18.5717 8.87428 18.35 7.75969 17.9192 6.71975C17.4885 5.67982 16.8571 4.73491 16.0612 3.93898C15.2652 3.14305 14.3203 2.51168 13.2804 2.08093C12.2405 1.65017 11.1259 1.42847 10.0002 1.42847V9.9999H18.5717Z" stroke-width="2" stroke-linecap="round" stroke-linejoin="round"/></svg>
