<svg width="16" height="23" viewBox="0 0 16 23" fill="none" xmlns="http://www.w3.org/2000/svg">
<path d="M9.69362 14.2548H5.4912C3.88475 14.2548 2.51539 13.0683 2.26136 11.4535L1.18233 4.60307C0.870234 2.62891 2.37023 0.836914 4.33717 0.836914H10.8477C12.8146 0.836914 14.3146 2.62645 14.0025 4.60307L12.9235 11.4535C12.6694 13.0683 11.3001 14.2548 9.69362 14.2548Z" fill="#18D3C9"/>
<path d="M13.4266 8.91582L9.22176 6.44443C8.21289 5.8512 6.97176 5.8512 5.96289 6.44443L1.75805 8.91582C0.749177 9.50905 0.129822 10.602 0.129822 11.786V16.7263C0.129822 17.9103 0.751596 19.0057 1.75805 19.5964L5.96289 22.0654C6.97176 22.6586 8.21289 22.6586 9.22176 22.0654L13.4266 19.5964C14.4355 19.0032 15.0548 17.9103 15.0548 16.7263V11.786C15.0548 10.602 14.4355 9.50659 13.4266 8.91582Z" fill="#FFE248"/>
<path fill-rule="evenodd" clip-rule="evenodd" d="M11.1685 12.008C11.5094 12.343 11.5141 12.8909 11.1791 13.2318L8.00733 16.4588C7.84464 16.6244 7.62226 16.7176 7.39015 16.7176C7.15804 16.7176 6.93566 16.6244 6.77296 16.4588L4.87619 14.529C4.54117 14.1881 4.54591 13.6402 4.88677 13.3052C5.22763 12.9702 5.77554 12.9749 6.11056 13.3158L7.39015 14.6177L9.94474 12.0185C10.2798 11.6777 10.8277 11.6729 11.1685 12.008Z" fill="white"/>
</svg>
