<svg width="14" height="13" viewBox="0 0 14 13" fill="none" xmlns="http://www.w3.org/2000/svg">
<path d="M13.0857 6.74383H13.5857H13.0857ZM9.08537 8.58656L8.59949 8.70457L9.08537 8.58656ZM9.82111 9.3223L9.93911 8.83643L9.82111 9.3223ZM9.08537 7.50782L8.59949 7.38981L9.08537 7.50782ZM9.82111 6.77208L9.93911 7.25796L9.82111 6.77208ZM12.7928 4.43L13.1464 4.07645L12.7928 4.43ZM12.7928 11.6644L13.1464 12.0179L12.7928 11.6644ZM4.99998 11.9573V11.4573V11.9573ZM2.62918 1.3787L11.9488 1.3787V0.378704L2.62918 0.378704V1.3787ZM4.99998 12.4573L11.0857 12.4573V11.4573L4.99998 11.4573V12.4573ZM0.499979 2.50791L0.499979 7.95728H1.49998L1.49998 2.50791H0.499979ZM11.0857 3.63711L2.62918 3.63711V4.63711L11.0857 4.63711V3.63711ZM12.5857 9.35055V9.95728H13.5857L13.5857 9.35055H12.5857ZM12.5857 6.13711V6.74383H13.5857L13.5857 6.13711H12.5857ZM10.3605 9.85055H13.0857V8.85055H10.3605V9.85055ZM12.5857 6.74383L12.5857 9.35055H13.5857L13.5857 6.74383H12.5857ZM13.0857 6.24383H10.3605V7.24383H13.0857L13.0857 6.24383ZM9.62135 3.63711H9.05712L9.05712 4.63711H9.62135V3.63711ZM11.9143 1.34419C11.9143 2.61053 10.8877 3.63711 9.62135 3.63711V4.63711C11.44 4.63711 12.9143 3.16282 12.9143 1.34419H11.9143ZM8.55712 8.04719C8.55712 8.30002 8.55356 8.51544 8.59949 8.70457L9.57124 8.46856C9.56068 8.42506 9.55712 8.35844 9.55712 8.04719H8.55712ZM10.3605 8.85055C10.0492 8.85055 9.98261 8.84699 9.93911 8.83643L9.7031 9.80818C9.89224 9.85411 10.1077 9.85055 10.3605 9.85055V8.85055ZM8.59949 8.70457C8.73195 9.24993 9.15775 9.67573 9.7031 9.80818L9.93911 8.83643C9.75733 8.79228 9.6154 8.65034 9.57124 8.46856L8.59949 8.70457ZM9.55712 8.04719C9.55712 7.73594 9.56068 7.66932 9.57124 7.62582L8.59949 7.38981C8.55356 7.57895 8.55712 7.79436 8.55712 8.04719H9.55712ZM10.3605 6.24383C10.1077 6.24383 9.89224 6.24027 9.7031 6.2862L9.93911 7.25796C9.98261 7.24739 10.0492 7.24383 10.3605 7.24383V6.24383ZM9.57124 7.62582C9.6154 7.44404 9.75733 7.30211 9.93911 7.25796L9.7031 6.2862C9.15775 6.41866 8.73195 6.84446 8.59949 7.38981L9.57124 7.62582ZM11.0857 4.63711C11.5712 4.63711 11.8851 4.63817 12.1163 4.66926C12.3332 4.69842 12.4012 4.74549 12.4392 4.78355L13.1464 4.07645C12.8915 3.82162 12.5773 3.72224 12.2496 3.67818C11.9362 3.63605 11.543 3.63711 11.0857 3.63711V4.63711ZM13.5857 6.13711C13.5857 5.67984 13.5868 5.28659 13.5446 4.97321C13.5006 4.64545 13.4012 4.33128 13.1464 4.07645L12.4392 4.78355C12.4773 4.82162 12.5244 4.88959 12.5535 5.10646C12.5846 5.33771 12.5857 5.65157 12.5857 6.13711H13.5857ZM11.0857 12.4573C11.543 12.4573 11.9362 12.4583 12.2496 12.4162C12.5773 12.3721 12.8915 12.2728 13.1464 12.0179L12.4392 11.3108C12.4012 11.3489 12.3332 11.396 12.1163 11.4251C11.8851 11.4562 11.5712 11.4573 11.0857 11.4573V12.4573ZM12.5857 9.95728C12.5857 10.4428 12.5846 10.7567 12.5535 10.9879C12.5244 11.2048 12.4773 11.2728 12.4392 11.3108L13.1464 12.0179C13.4012 11.7631 13.5006 11.4489 13.5446 11.1212C13.5868 10.8078 13.5857 10.4145 13.5857 9.95728H12.5857ZM4.99998 11.4573C4.04304 11.4573 3.37563 11.4562 2.87206 11.3885C2.38288 11.3227 2.12383 11.2024 1.93932 11.0179L1.23221 11.725C1.63349 12.1263 2.13874 12.2989 2.73881 12.3796C3.3245 12.4583 4.07131 12.4573 4.99998 12.4573V11.4573ZM0.499979 7.95728C0.499979 8.88595 0.498918 9.63275 0.577661 10.2184C0.658339 10.8185 0.830935 11.3238 1.23221 11.725L1.93932 11.0179C1.75481 10.8334 1.63451 10.5744 1.56874 10.0852C1.50104 9.58163 1.49998 8.91422 1.49998 7.95728H0.499979ZM0.499979 2.50791C0.499979 3.68383 1.45325 4.63711 2.62918 4.63711V3.63711C2.00554 3.63711 1.49998 3.13155 1.49998 2.50791H0.499979ZM11.9488 1.3787C11.9297 1.3787 11.9143 1.36325 11.9143 1.34419H12.9143C12.9143 0.810967 12.482 0.378704 11.9488 0.378704V1.3787ZM1.49998 2.50791C1.49998 1.88426 2.00554 1.3787 2.62918 1.3787V0.378704C1.45325 0.378704 0.499979 1.33198 0.499979 2.50791H1.49998Z" fill="#ED1F24"/>
</svg>
