<svg width="20" height="19" viewBox="0 0 20 19" fill="none" xmlns="http://www.w3.org/2000/svg">
<path d="M15.4286 5.60451L15.7022 8.048L15.7035 8.05933C15.7257 8.25749 15.7384 8.37095 15.754 8.4837C15.9066 9.58607 16.2681 10.6492 16.819 11.6161C16.8754 11.715 16.9345 11.8127 17.0377 11.9833L17.0436 11.9931L17.6838 13.0518C18.0271 13.6193 18.2464 13.9846 18.3704 14.2619C18.4428 14.424 18.4562 14.5006 18.4583 14.5258C18.4502 14.5458 18.4396 14.5647 18.4266 14.582C18.404 14.5932 18.3315 14.6214 18.1553 14.6433C17.8538 14.6808 17.4278 14.6821 16.7645 14.6821H3.23548C2.57224 14.6821 2.14616 14.6808 1.84467 14.6433C1.66849 14.6214 1.596 14.5932 1.57339 14.582C1.56042 14.5647 1.54976 14.5458 1.54166 14.5258C1.54378 14.5006 1.55718 14.424 1.62963 14.2619C1.75361 13.9846 1.97292 13.6193 2.31616 13.0518L2.95643 11.9931L2.96234 11.9833C3.06553 11.8127 3.12461 11.715 3.18097 11.6161C3.73194 10.6492 4.09341 9.58607 4.24599 8.4837C4.26159 8.37096 4.2743 8.25752 4.29648 8.05941L4.29776 8.048L4.57143 5.60451C4.88103 2.84021 7.21841 0.75 10 0.75C12.7816 0.75 15.119 2.84021 15.4286 5.60451ZM18.4585 14.5356C18.4584 14.5355 18.4584 14.5342 18.4587 14.5317C18.4587 14.5344 18.4586 14.5356 18.4585 14.5356ZM18.4351 14.5771C18.4352 14.5772 18.4342 14.5779 18.4319 14.5793C18.4338 14.5778 18.435 14.5771 18.4351 14.5771ZM1.56493 14.5771C1.56502 14.5771 1.5662 14.5778 1.56816 14.5793C1.56581 14.5779 1.56483 14.5772 1.56493 14.5771ZM1.54147 14.5356C1.54139 14.5356 1.54125 14.5344 1.54132 14.5317C1.54159 14.5341 1.54156 14.5355 1.54147 14.5356Z" stroke="white" stroke-width="1.5"/>
<path d="M12.4892 15.7104C12.3314 16.3922 11.9876 16.9758 11.5313 17.381C11.0773 17.7842 10.5385 17.989 10.0002 17.989C9.46182 17.989 8.92301 17.7842 8.46899 17.381C8.01271 16.9758 7.66894 16.3922 7.51108 15.7104" stroke="white" stroke-width="1.5" stroke-linecap="round"/>
</svg>
