<svg width="21" height="21" viewBox="0 0 21 21" fill="none" xmlns="http://www.w3.org/2000/svg">
<path d="M3.5 7.875C3.5 5.40013 3.5 4.16269 4.26884 3.39384C5.03769 2.625 6.27513 2.625 8.75 2.625H12.25C14.7249 2.625 15.9623 2.625 16.7312 3.39384C17.5 4.16269 17.5 5.40013 17.5 7.875V13.8492C17.5 16.197 17.5 17.371 16.7612 17.73C16.0225 18.0891 15.0994 17.3638 13.2532 15.9132L12.6624 15.449C11.6243 14.6334 11.1053 14.2256 10.5 14.2256C9.89474 14.2256 9.3757 14.6334 8.33762 15.449L7.74678 15.9132C5.9006 17.3638 4.97751 18.0891 4.23876 17.73C3.5 17.371 3.5 16.197 3.5 13.8492V7.875Z" stroke="white" stroke-width="2"/>
</svg>
