<svg width="46" height="30" viewBox="0 0 46 30" fill="none" xmlns="http://www.w3.org/2000/svg">
<path d="M1.32889 11.3758H44.62C45.1822 11.3758 45.6422 11.0738 45.8467 10.5705C46.0511 10.0671 45.9489 9.51342 45.54 9.11074L36.7489 0.402685C36.4933 0.151007 36.1867 0 35.8289 0C35.4711 0 35.1133 0.151007 34.9089 0.402685C34.3978 0.90604 34.3978 1.76174 34.9089 2.2651L41.4 8.75839H1.32889C0.562222 8.75839 0 9.36242 0 10.0671C0 10.7718 0.613333 11.3758 1.32889 11.3758Z" fill="black"/>
<path d="M44.6711 18.6241H1.32889C0.766667 18.6241 0.306667 18.9262 0.102222 19.4295C-0.102222 19.9329 0 20.4866 0.408889 20.8892L9.25111 29.5973C9.50667 29.849 9.81333 30 10.1711 30C10.5289 30 10.8867 29.849 11.0911 29.5973C11.6022 29.0939 11.6022 28.2382 11.0911 27.7349L4.6 21.2919H44.6711C45.4378 21.2919 46 20.6879 46 19.9832C46 19.2282 45.3867 18.6241 44.6711 18.6241Z" fill="black"/>
</svg>
