<svg width="21" height="21" viewBox="0 0 21 21" fill="none" xmlns="http://www.w3.org/2000/svg">
<path fill-rule="evenodd" clip-rule="evenodd" d="M19.5239 7.75286C18.8848 3.81946 15.5438 0.893225 11.5605 0.778033C11.3711 0.770609 11.1865 0.838797 11.0475 0.967569C10.9084 1.09634 10.8262 1.27513 10.8191 1.46453V1.46453V1.52861L11.2676 8.23799C11.297 8.68964 11.6853 9.03297 12.1372 9.00687L18.8649 8.55835C19.0544 8.54434 19.2306 8.4553 19.3543 8.31098C19.478 8.16665 19.539 7.97896 19.5239 7.78947V7.75286Z" stroke="white" stroke-opacity="0.7" stroke-width="1.5" stroke-linecap="round" stroke-linejoin="round"/>
<path d="M6.90151 4.76888C7.32947 4.66989 7.76741 4.88886 7.94499 5.29062C7.9915 5.38511 8.01947 5.48765 8.02737 5.59268C8.1189 6.89245 8.31112 9.73913 8.42096 11.2769C8.43971 11.5539 8.56808 11.812 8.77767 11.9941C8.98725 12.1762 9.26076 12.2673 9.53766 12.2471V12.2471L15.1853 11.8993C15.4374 11.8842 15.6846 11.9739 15.8683 12.1472C16.052 12.3205 16.156 12.5621 16.1555 12.8146V12.8146C15.9266 16.225 13.4764 19.0761 10.1392 19.8151C6.80201 20.5541 3.37718 19.0041 1.72988 16.0092C1.23813 15.1472 0.926719 14.1943 0.814553 13.2082C0.766601 12.9056 0.748208 12.5991 0.759633 12.2929C0.769346 8.65091 3.32714 5.51284 6.89236 4.76888" stroke="white" stroke-width="1.5" stroke-linecap="round" stroke-linejoin="round"/>
</svg>
