<svg width="10" height="15" viewBox="0 0 10 15" fill="none" xmlns="http://www.w3.org/2000/svg">
<path fill-rule="evenodd" clip-rule="evenodd" d="M7.70009 0.901468H1.92502C1.66975 0.901468 1.42493 0.996444 1.24442 1.1655C1.06392 1.33456 0.962511 1.56385 0.962511 1.80294V12.6206C0.962511 12.8596 1.06392 13.0889 1.24442 13.258C1.42493 13.427 1.66975 13.522 1.92502 13.522H7.70009C7.95537 13.522 8.20018 13.427 8.38069 13.258C8.5612 13.0889 8.6626 12.8596 8.6626 12.6206V1.80294C8.6626 1.56385 8.5612 1.33456 8.38069 1.1655C8.20018 0.996444 7.95537 0.901468 7.70009 0.901468ZM1.92502 0C1.41447 0 0.924838 0.189952 0.563826 0.528068C0.202814 0.866184 0 1.32477 0 1.80294V12.6206C0 13.0987 0.202814 13.5573 0.563826 13.8954C0.924838 14.2335 1.41447 14.4235 1.92502 14.4235H7.70009C8.21064 14.4235 8.70028 14.2335 9.06129 13.8954C9.4223 13.5573 9.62511 13.0987 9.62511 12.6206V1.80294C9.62511 1.32477 9.4223 0.866184 9.06129 0.528068C8.70028 0.189952 8.21064 0 7.70009 0L1.92502 0Z" fill="white"/>
<path fill-rule="evenodd" clip-rule="evenodd" d="M4.81261 12.6206C5.06788 12.6206 5.3127 12.5256 5.4932 12.3565C5.67371 12.1875 5.77512 11.9582 5.77512 11.7191C5.77512 11.48 5.67371 11.2507 5.4932 11.0817C5.3127 10.9126 5.06788 10.8176 4.81261 10.8176C4.55733 10.8176 4.31252 10.9126 4.13201 11.0817C3.9515 11.2507 3.8501 11.48 3.8501 11.7191C3.8501 11.9582 3.9515 12.1875 4.13201 12.3565C4.31252 12.5256 4.55733 12.6206 4.81261 12.6206Z" fill="white"/>
</svg>
