<svg width="258" height="107" viewBox="0 0 258 107" fill="none" xmlns="http://www.w3.org/2000/svg">
<g clip-path="url(#clip0_6474_619)">
<path d="M255.295 7.03177C252.884 3.40336 249.438 1.16121 244.963 0.313379C240.582 -0.518383 236.592 0.313379 232.992 2.80063C229.387 5.2919 227.175 8.74351 226.356 13.1635C225.52 17.684 226.332 21.7383 228.806 25.3305C231.281 28.9188 234.702 31.1248 239.083 31.9605C243.558 32.8084 247.565 32.0087 251.109 29.5617C254.654 27.1106 256.846 23.6268 257.686 19.1064C258.509 14.6864 257.709 10.6602 255.295 7.03177Z" fill="white"/>
<path d="M26.8344 27.2714H0V105.324H26.8344V27.2714Z" fill="white"/>
<path d="M87.9866 8.97266H61.3631L55.6899 27.2714H37.3215V48.7365H49.0101C46.8817 55.692 45.2903 61.3616 44.2281 65.7535C43.1658 70.1534 42.6327 73.7778 42.6327 76.6428C42.6327 86.5556 45.4892 94.0977 51.2062 99.253C56.9232 104.412 65.25 107 76.1787 107C81.8439 107 87.8116 105.718 94.0895 103.163L91.6627 82.011C87.919 83.337 84.4737 84.0041 81.3427 84.0041C77.599 84.0041 74.7624 83.0357 72.8408 81.0949C70.9152 79.1501 69.9564 76.3936 69.9564 72.8134C69.9564 69.0364 71.2216 62.9528 73.7519 54.5669L75.574 48.7405H96.5163V27.2714H82.2497L87.9866 8.97266Z" fill="white"/>
<path d="M145.916 47.5471C145.801 47.4547 145.686 47.3703 145.566 47.2859C145.682 47.3703 145.801 47.4547 145.916 47.5471Z" fill="white"/>
<path d="M172.58 48.849C172.321 49.1062 172.062 49.3673 171.808 49.6285C171.553 49.8897 171.291 50.1509 171.04 50.4121C170.785 50.6773 170.539 50.9465 170.288 51.2157C170.037 51.4849 169.787 51.7501 169.54 52.0233C169.293 52.2966 169.051 52.5698 168.808 52.8431C168.565 53.1163 168.323 53.3935 168.084 53.6748C167.845 53.9521 167.607 54.2333 167.368 54.5146C167.133 54.7959 166.898 55.0812 166.668 55.3665C166.437 55.6518 166.202 55.9371 165.971 56.2264C165.741 56.5157 165.518 56.809 165.291 57.1023C165.064 57.3957 164.838 57.689 164.619 57.9823C164.396 58.2797 164.177 58.581 163.962 58.8784C163.744 59.1797 163.525 59.4811 163.31 59.7824C163.095 60.0878 162.88 60.3932 162.669 60.6986C162.459 61.008 162.248 61.3174 162.041 61.6268C161.834 61.9362 161.627 62.2496 161.42 62.563C161.217 62.8805 161.018 63.1979 160.815 63.5153C160.617 63.8328 160.414 64.1502 160.219 64.4717C160.024 64.7931 159.833 65.1226 159.638 65.4481C159.447 65.7736 159.252 66.103 159.065 66.4325C158.878 66.762 158.691 67.0955 158.504 67.429C158.317 67.7625 158.138 68.1001 157.955 68.4376C157.776 68.7751 157.593 69.1127 157.418 69.4542C157.239 69.7957 157.068 70.1453 156.897 70.4909C156.726 70.8364 156.551 71.182 156.379 71.5316C156.212 71.8812 156.049 72.2388 155.882 72.5924C155.783 72.8094 155.675 73.0223 155.58 73.2433H176.387C176.892 70.1775 177.147 67.3647 177.147 64.8052C177.147 58.5047 176.065 52.7587 173.92 47.5391C173.733 47.7159 173.55 47.9007 173.363 48.0775C173.105 48.3387 172.838 48.5918 172.58 48.849Z" fill="white"/>
<path d="M169.456 39.4504C170.431 40.7925 171.322 42.2149 172.138 43.7217C172.138 43.7258 172.142 43.7258 172.142 43.7298C172.611 44.6017 173.041 45.4978 173.439 46.4059C173.041 45.4978 172.615 44.6017 172.142 43.7298C170.049 39.8522 167.419 36.5252 164.269 33.7366C166.194 35.4363 167.925 37.3409 169.456 39.4504Z" fill="white"/>
<path d="M169.262 93.5753C169.449 93.3422 169.576 93.0851 169.759 92.844L152.134 82.2239L149.417 80.5845C148.598 81.7659 147.587 82.7985 146.33 83.6866C144.003 85.322 141.218 86.1376 137.979 86.1376C134.232 86.1376 131.117 84.9402 128.638 82.5333C128.348 82.2521 128.077 81.9587 127.814 81.6574C125.861 79.3952 124.791 76.5945 124.62 73.2554H130.249C130.381 72.8696 130.516 72.4879 130.651 72.1022C130.786 71.7164 130.918 71.3307 131.057 70.949C131.196 70.5672 131.339 70.1935 131.479 69.8158C131.622 69.4381 131.761 69.0604 131.904 68.6867C132.047 68.313 132.199 67.9434 132.35 67.5737C132.497 67.204 132.648 66.8343 132.799 66.4647C132.951 66.099 133.11 65.7374 133.265 65.3717C133.42 65.0101 133.575 64.6444 133.734 64.2868C133.893 63.9292 134.057 63.5716 134.22 63.214C134.383 62.8563 134.546 62.5027 134.709 62.1491C134.876 61.7955 135.043 61.446 135.214 61.0964C135.381 60.7468 135.552 60.3972 135.724 60.0517C135.895 59.7061 136.07 59.3605 136.245 59.019C136.42 58.6774 136.595 58.3319 136.774 57.9944C136.953 57.6528 137.132 57.3153 137.315 56.9778C137.418 56.7849 137.518 56.588 137.625 56.3951H138.286H139.833H141.381H142.928H144.476H146.024H147.571H149.119H150.129V56.3911H137.629H124.62C124.819 52.9154 126.084 50.1027 128.415 47.9569C130.743 45.8072 133.627 44.7304 137.072 44.7304C139.678 44.7304 141.958 45.2487 143.911 46.2613C144.098 45.9961 144.293 45.7349 144.484 45.4697C144.699 45.1683 144.918 44.867 145.136 44.5656C145.355 44.2683 145.574 43.9669 145.797 43.6696C146.02 43.3722 146.246 43.0829 146.469 42.7896C146.696 42.4962 146.915 42.1989 147.142 41.9096C147.368 41.6203 147.603 41.335 147.834 41.0457C148.065 40.7564 148.295 40.4711 148.526 40.1858C148.761 39.9005 148.992 39.6152 149.226 39.3339C149.461 39.0527 149.704 38.7754 149.942 38.4941C150.181 38.2129 150.416 37.9316 150.659 37.6543C150.901 37.3771 151.148 37.1039 151.391 36.8306C151.633 36.5574 151.88 36.2842 152.127 36.0109C152.373 35.7377 152.62 35.4685 152.867 35.1992C153.117 34.93 153.368 34.6648 153.622 34.3996C153.873 34.1344 154.124 33.8652 154.378 33.6C154.633 33.3348 154.892 33.0776 155.15 32.8165C155.409 32.5553 155.667 32.2941 155.926 32.0369C156.185 31.7798 156.443 31.5186 156.706 31.2654C156.968 31.0083 157.235 30.7592 157.501 30.506C157.768 30.2529 158.031 29.9957 158.297 29.7466C158.361 29.6863 158.424 29.622 158.492 29.5617C158.365 29.4854 158.233 29.397 158.102 29.3207C152.075 25.8972 145.164 24.1854 137.371 24.1854C129.481 24.1854 122.463 25.9494 116.341 29.4774C110.214 33.0013 105.456 37.8874 102.066 44.1196C98.6726 50.3598 96.9778 57.5162 96.9778 65.5927C96.9778 73.6693 98.7243 80.8256 102.217 87.0618C105.71 93.3021 110.544 98.1841 116.715 101.712C119.249 103.155 121.938 104.288 124.771 105.14C128.861 106.369 133.253 107.004 137.979 107.004C141.62 107.004 145.069 106.638 148.335 105.939C151.06 105.357 153.662 104.541 156.121 103.476C161.535 101.117 165.92 97.8185 169.262 93.5753Z" fill="white"/>
<path d="M186.715 38.8316L186.763 38.5825L186.715 38.8316Z" fill="white"/>
<path d="M215.94 28.1755C215.817 28.1956 215.694 28.2156 215.574 28.2357C215.129 28.304 214.687 28.3804 214.245 28.4567C213.808 28.5331 213.374 28.6175 212.941 28.7018C212.511 28.7862 212.077 28.8706 211.648 28.959C211.222 29.0474 210.8 29.1398 210.374 29.2363C209.957 29.3327 209.539 29.4332 209.125 29.5336C208.712 29.6341 208.298 29.7345 207.888 29.843C207.482 29.9515 207.072 30.06 206.671 30.1725C206.269 30.285 205.867 30.4015 205.469 30.5221C205.071 30.6386 204.673 30.7551 204.276 30.8797C203.886 31.0043 203.496 31.1328 203.106 31.2614C202.72 31.39 202.334 31.5186 201.948 31.6552C201.566 31.7878 201.184 31.9204 200.802 32.061C200.424 32.1977 200.051 32.3423 199.677 32.487C199.303 32.6316 198.929 32.7723 198.559 32.9209C198.189 33.0696 197.823 33.2183 197.457 33.371C197.095 33.5237 196.733 33.6804 196.37 33.8371C196.012 33.9938 195.65 34.1465 195.292 34.3112C194.938 34.4719 194.588 34.6407 194.234 34.8055C193.884 34.9702 193.534 35.1349 193.184 35.3077C192.838 35.4765 192.492 35.6493 192.149 35.8221C191.807 35.9948 191.465 36.1716 191.127 36.3525C190.789 36.5293 190.447 36.7061 190.112 36.8869C189.778 37.0677 189.448 37.2565 189.118 37.4414C188.788 37.6262 188.457 37.8111 188.127 38.0039C187.801 38.1928 187.475 38.3856 187.153 38.5825C187.013 38.6669 186.874 38.7433 186.735 38.8276L186.802 38.7915L186.719 38.8397L181.758 64.0739C180.739 68.976 180.238 73.6773 180.238 78.1736C180.238 83.5901 181.603 88.4963 184.332 92.8922C187.069 97.2841 190.86 100.736 195.718 103.243C200.576 105.746 206.038 107 212.109 107C214.031 107 215.801 106.896 217.42 106.695L221.976 84.4621H220.153C216.406 84.4621 213.374 83.4173 211.047 81.3199C208.715 79.2264 207.558 76.5463 207.558 73.2715C207.558 72.0459 207.657 70.7159 207.856 69.2894L215.94 28.1755L216.183 26.9379L216.123 27.2312L215.94 28.1755Z" fill="white"/>
<path d="M130.245 73.2554H131.789L130.647 72.1022C130.512 72.4839 130.377 72.8656 130.245 73.2554Z" fill="white"/>
<path d="M130.647 72.098L131.789 73.2513H133.336L131.053 70.9448C130.914 71.3306 130.782 71.7163 130.647 72.098Z" fill="#FFFEFD"/>
<path d="M131.053 70.9449L133.336 73.2513H134.884L131.478 69.8118C131.335 70.1895 131.188 70.5672 131.053 70.9449Z" fill="#FFFDFB"/>
<path d="M131.475 69.8117L134.88 73.2513H136.428L131.9 68.6786C131.757 69.0563 131.618 69.434 131.475 69.8117Z" fill="#FFFDF9"/>
<path d="M131.904 68.6826L136.432 73.2553H137.979L132.35 67.5696C132.199 67.9393 132.048 68.3089 131.904 68.6826Z" fill="#FFFCF7"/>
<path d="M132.346 67.5696L137.975 73.2553H139.523L132.799 66.4646C132.644 66.8303 132.497 67.1999 132.346 67.5696Z" fill="#FFFBF6"/>
<path d="M132.795 66.4606L139.519 73.2513H141.066L133.261 65.3677C133.106 65.7333 132.951 66.095 132.795 66.4606Z" fill="#FFFBF5"/>
<path d="M133.261 65.3677L141.067 73.2514H142.614L133.73 64.2788C133.571 64.6445 133.416 65.0061 133.261 65.3677Z" fill="#FFFAF3"/>
<path d="M133.73 64.2827L142.614 73.2553H144.162L134.216 63.2098C134.052 63.5675 133.889 63.9211 133.73 64.2827Z" fill="#FFFAF2"/>
<path d="M134.216 63.21L144.162 73.2554H145.709L134.709 62.1451C134.542 62.4987 134.379 62.8523 134.216 63.21Z" fill="#FFF9F1"/>
<path d="M134.709 62.1451L145.709 73.2553H147.257L135.214 61.0923C135.043 61.4419 134.872 61.7915 134.709 62.1451Z" fill="#FFF9F0"/>
<path d="M135.21 61.0883L147.253 73.2513H148.8L135.723 60.0436C135.548 60.3932 135.381 60.7387 135.21 61.0883Z" fill="#FFF8EE"/>
<path d="M135.723 60.0436L148.8 73.2514H150.348L136.245 59.007C136.07 59.3525 135.894 59.6981 135.723 60.0436Z" fill="#FFF8ED"/>
<path d="M136.245 59.0108L150.348 73.2553H151.896L136.778 57.9862C136.595 58.3237 136.42 58.6653 136.245 59.0108Z" fill="#FFF7EC"/>
<path d="M136.774 57.9823L151.892 73.2514H153.439L137.315 56.9657C137.132 57.3072 136.953 57.6448 136.774 57.9823Z" fill="#FFF7EB"/>
<path d="M137.625 56.3871C137.522 56.58 137.418 56.7768 137.315 56.9697L153.439 73.2554H154.987L138.286 56.3871H137.625Z" fill="#FFF7EA"/>
<path d="M139.833 56.3871H138.286L154.987 73.2554H155.584C155.683 73.0384 155.787 72.8214 155.886 72.6044L139.833 56.3871Z" fill="#FFF6E9"/>
<path d="M156.387 71.5437L141.381 56.3871H139.833L155.89 72.6045C156.053 72.2509 156.216 71.8932 156.387 71.5437Z" fill="#FFF6E8"/>
<path d="M156.901 70.5029L142.925 56.3871H141.377L156.384 71.5436C156.555 71.1941 156.73 70.8485 156.901 70.5029Z" fill="#FFF5E7"/>
<path d="M157.422 69.4662L144.472 56.3871H142.924L156.9 70.5029C157.076 70.1574 157.247 69.8078 157.422 69.4662Z" fill="#FFF5E6"/>
<path d="M157.963 68.4497L146.02 56.3871H144.472L157.422 69.4663C157.601 69.1247 157.78 68.7872 157.963 68.4497Z" fill="#FFF5E4"/>
<path d="M158.508 67.4411L147.563 56.3871H146.016L157.959 68.4496C158.142 68.1121 158.325 67.7746 158.508 67.4411Z" fill="#FFF4E3"/>
<path d="M159.069 66.4406L149.111 56.3831H147.563L158.508 67.4371C158.695 67.1076 158.878 66.7741 159.069 66.4406Z" fill="#FFF4E2"/>
<path d="M150.109 55.8365C150.113 56.0174 150.121 56.1982 150.121 56.383C150.125 56.1982 150.117 56.0174 150.109 55.8365Z" fill="#FFF3E1"/>
<path d="M159.642 65.4601L150.113 55.8365C150.121 56.0174 150.125 56.1982 150.125 56.383V56.387H149.115L159.073 66.4445C159.256 66.111 159.447 65.7855 159.642 65.4601Z" fill="#FFF3E1"/>
<path d="M149.915 54.0725C150.022 54.6391 150.086 55.2257 150.109 55.8325C150.086 55.2297 150.022 54.6431 149.915 54.0725Z" fill="#FFF3E0"/>
<path d="M150.109 55.8366L159.638 65.4602C159.829 65.1347 160.02 64.8052 160.219 64.4837L149.915 54.0767C150.022 54.6432 150.086 55.2299 150.109 55.8366Z" fill="#FFF3E0"/>
<path d="M149.242 51.8304C149.545 52.5376 149.767 53.285 149.915 54.0726L149.919 54.0766C149.767 53.289 149.545 52.5417 149.242 51.8304Z" fill="#FFF3DF"/>
<path d="M149.915 54.0726L160.219 64.4797C160.414 64.1582 160.617 63.8408 160.815 63.5233L149.238 51.8304C149.545 52.5417 149.767 53.289 149.915 54.0726Z" fill="#FFF3DF"/>
<path d="M146.481 48.0253C146.298 47.8605 146.107 47.6998 145.916 47.5471C146.107 47.6998 146.294 47.8565 146.481 48.0253C147.715 49.1423 148.634 50.4121 149.238 51.8305L149.242 51.8345C148.634 50.4121 147.715 49.1423 146.481 48.0253Z" fill="#FFF2DE"/>
<path d="M145.566 47.2859C145.041 46.9001 144.492 46.5545 143.911 46.2572C144.488 46.5545 145.041 46.9001 145.566 47.2859Z" fill="#FFF2DE"/>
<path d="M145.566 47.2859C145.682 47.3703 145.801 47.4547 145.916 47.5471C146.107 47.6998 146.298 47.8565 146.481 48.0253C147.714 49.1423 148.634 50.4121 149.242 51.8345L160.819 63.5274C161.018 63.21 161.217 62.8885 161.424 62.5751L144.484 45.4657C144.293 45.7309 144.098 45.9921 143.911 46.2573C144.492 46.5546 145.041 46.9002 145.566 47.2859Z" fill="#FFF2DE"/>
<path d="M162.041 61.6347L145.132 44.5575C144.914 44.8548 144.695 45.1602 144.48 45.4616L161.42 62.571C161.627 62.2576 161.834 61.9482 162.041 61.6347Z" fill="#FFF2DD"/>
<path d="M162.669 60.7066L145.797 43.6655C145.574 43.9629 145.355 44.2602 145.136 44.5616L162.045 61.6388C162.248 61.3254 162.458 61.016 162.669 60.7066Z" fill="#FFF2DC"/>
<path d="M163.306 59.7904L146.465 42.7815C146.239 43.0748 146.012 43.3681 145.793 43.6615L162.665 60.7026C162.88 60.4012 163.091 60.0958 163.306 59.7904Z" fill="#FFF1DB"/>
<path d="M163.958 58.8863L147.142 41.9015C146.915 42.1908 146.692 42.4881 146.469 42.7815L163.31 59.7904C163.521 59.485 163.74 59.1877 163.958 58.8863Z" fill="#FFF1DA"/>
<path d="M164.615 57.9863L147.834 41.0376C147.603 41.3269 147.368 41.6122 147.142 41.9015L163.958 58.8863C164.177 58.585 164.392 58.2836 164.615 57.9863Z" fill="#FFF1D9"/>
<path d="M165.291 57.1063L148.53 40.1777C148.295 40.463 148.065 40.7523 147.838 41.0376L164.619 57.9863C164.838 57.693 165.064 57.3996 165.291 57.1063Z" fill="#FFF0D8"/>
<path d="M165.967 56.2304L149.23 39.3219C148.996 39.6032 148.761 39.8885 148.53 40.1738L165.291 57.1023C165.514 56.813 165.741 56.5197 165.967 56.2304Z" fill="#FFF0D7"/>
<path d="M166.664 55.3705L149.942 38.4821C149.704 38.7633 149.465 39.0406 149.226 39.3219L165.967 56.2303C166.198 55.941 166.433 55.6557 166.664 55.3705Z" fill="#FFF0D6"/>
<path d="M167.364 54.5185L150.655 37.6422C150.412 37.9195 150.177 38.2007 149.938 38.482L166.66 55.3704C166.898 55.0851 167.129 54.7998 167.364 54.5185Z" fill="#FFEFD5"/>
<path d="M168.08 53.6789L151.387 36.8186C151.144 37.0918 150.897 37.3651 150.655 37.6423L167.364 54.5187C167.603 54.2374 167.841 53.9561 168.08 53.6789Z" fill="#FFEFD4"/>
<path d="M168.804 52.8471L152.122 35.9989C151.876 36.2721 151.633 36.5454 151.386 36.8186L168.08 53.6789C168.319 53.4016 168.561 53.1244 168.804 52.8471Z" fill="#FFEFD3"/>
<path d="M169.54 52.0273L152.866 35.1871C152.616 35.4564 152.373 35.7296 152.126 35.9988L168.808 52.847C169.047 52.5738 169.293 52.2965 169.54 52.0273Z" fill="#FFEED3"/>
<path d="M170.284 51.2197L153.618 34.3876C153.368 34.6528 153.113 34.918 152.863 35.1872L169.536 52.0274C169.787 51.7541 170.033 51.4889 170.284 51.2197Z" fill="#FFEED2"/>
<path d="M171.036 50.416L154.374 33.5879C154.12 33.8531 153.869 34.1223 153.618 34.3875L170.284 51.2196C170.535 50.9504 170.785 50.6812 171.036 50.416Z" fill="#FFEED1"/>
<path d="M171.808 49.6324L155.146 32.8043C154.887 33.0655 154.629 33.3227 154.374 33.5879L171.036 50.416C171.29 50.1508 171.549 49.8936 171.808 49.6324Z" fill="#FFEDD0"/>
<path d="M172.58 48.849L155.922 32.0249C155.663 32.2821 155.405 32.5432 155.146 32.8044L171.808 49.6325C172.062 49.3714 172.321 49.1102 172.58 48.849Z" fill="#FFEDCF"/>
<path d="M173.371 48.0856L156.706 31.2534C156.443 31.5106 156.184 31.7677 155.926 32.0249L172.583 48.849C172.838 48.5918 173.105 48.3387 173.371 48.0856Z" fill="#FFEDCE"/>
<path d="M173.928 47.5471C173.821 47.2778 173.705 47.0126 173.594 46.7474C173.705 47.0126 173.817 47.2778 173.928 47.5471Z" fill="#FFECCD"/>
<path d="M157.497 30.4939C157.231 30.747 156.964 30.9962 156.702 31.2533L173.367 48.0855C173.554 47.9046 173.737 47.7238 173.924 47.547C173.813 47.2778 173.701 47.0126 173.586 46.7474L157.497 30.4939Z" fill="#FFECCD"/>
<path d="M173.59 46.7474C173.542 46.6309 173.491 46.5184 173.439 46.4019C173.491 46.5184 173.542 46.6309 173.59 46.7474Z" fill="#FFECCC"/>
<path d="M172.138 43.7178L158.293 29.7345C158.026 29.9836 157.764 30.2408 157.497 30.4939L173.59 46.7475C173.542 46.6309 173.491 46.5184 173.443 46.4059C173.041 45.4978 172.615 44.5977 172.146 43.7298C172.142 43.7218 172.138 43.7218 172.138 43.7178Z" fill="#FFECCC"/>
<path d="M161.866 31.7838C160.788 30.9842 159.666 30.2408 158.488 29.5497C158.488 29.5497 158.492 29.5497 158.492 29.5537C159.67 30.2408 160.792 30.9882 161.866 31.7838Z" fill="#FFECCB"/>
<path d="M172.138 43.7178C171.322 42.211 170.431 40.7885 169.456 39.4464L161.866 31.7838C160.791 30.9882 159.669 30.2408 158.492 29.5537C158.492 29.5537 158.488 29.5537 158.488 29.5497C158.42 29.61 158.361 29.6742 158.293 29.7345L172.138 43.7178Z" fill="#FFECCB"/>
<path d="M164.273 33.7326C163.501 33.0495 162.697 32.3986 161.866 31.7798L161.87 31.7838C162.701 32.4026 163.501 33.0495 164.273 33.7326Z" fill="#FFEBCA"/>
<path d="M169.456 39.4505C167.925 37.341 166.194 35.4404 164.273 33.7367C163.501 33.0536 162.701 32.4026 161.87 31.7878L169.456 39.4505Z" fill="#FFEBCA"/>
<path d="M186.715 38.8318C186.719 38.8277 186.727 38.8237 186.735 38.8196L186.715 38.8318Z" fill="#FFE8C1"/>
<path d="M186.83 38.2531L186.763 38.5825L186.83 38.2531Z" fill="#FFE8C1"/>
<path d="M186.83 38.2531L186.763 38.5825L186.715 38.8277L186.731 38.8196C186.87 38.7352 187.009 38.6549 187.148 38.5745L186.83 38.2531Z" fill="#FFE8C1"/>
<path d="M187.089 36.9512L187.085 36.9471L186.83 38.2531L187.089 36.9512Z" fill="#FFE8C0"/>
<path d="M186.83 38.2531L187.148 38.5745C187.471 38.3816 187.797 38.1888 188.123 37.9959L187.089 36.9512L186.83 38.2531Z" fill="#FFE8C0"/>
<path d="M187.347 35.6533L187.339 35.6453L187.085 36.9472L187.089 36.9512L187.347 35.6533Z" fill="#FFE7BF"/>
<path d="M187.089 36.9512L188.123 37.9959C188.449 37.807 188.784 37.6182 189.114 37.4334L187.347 35.6493L187.089 36.9512Z" fill="#FFE7BF"/>
<path d="M187.606 34.3514L187.598 34.3434L187.339 35.6453L187.347 35.6533L187.606 34.3514Z" fill="#FFE7BE"/>
<path d="M187.347 35.6532L189.114 37.4373C189.444 37.2525 189.774 37.0636 190.108 36.8828L187.606 34.3553L187.347 35.6532Z" fill="#FFE7BE"/>
<path d="M187.869 33.0535L187.853 33.0375L187.598 34.3434L187.606 34.3514L187.869 33.0535Z" fill="#FFE7BD"/>
<path d="M187.606 34.3513L190.108 36.8788C190.447 36.698 190.785 36.5212 191.123 36.3444L187.865 33.0535L187.606 34.3513Z" fill="#FFE7BD"/>
<path d="M188.127 31.7517L188.111 31.7356L187.853 33.0375L187.868 33.0536L188.127 31.7517Z" fill="#FFE7BD"/>
<path d="M187.869 33.0535L191.127 36.3444C191.465 36.1676 191.807 35.9908 192.149 35.814L188.127 31.7516L187.869 33.0535Z" fill="#FFE7BD"/>
<path d="M188.386 30.4538L188.366 30.4337L188.111 31.7356L188.127 31.7517L188.386 30.4538Z" fill="#FFE6BC"/>
<path d="M188.127 31.7516L192.149 35.814C192.492 35.6412 192.838 35.4684 193.184 35.2997L188.386 30.4537L188.127 31.7516Z" fill="#FFE6BC"/>
<path d="M188.645 29.1519L188.625 29.1318L188.366 30.4337L188.386 30.4538L188.645 29.1519Z" fill="#FFE6BB"/>
<path d="M188.386 30.4537L193.184 35.2997C193.534 35.1309 193.884 34.9621 194.234 34.7974L188.644 29.1519L188.386 30.4537Z" fill="#FFE6BB"/>
<path d="M188.907 27.8539L188.879 27.8258L188.625 29.1317L188.644 29.1518L188.907 27.8539Z" fill="#FFE6BA"/>
<path d="M188.644 29.1519L194.234 34.7974C194.584 34.6327 194.938 34.4639 195.292 34.3032L188.907 27.854L188.644 29.1519Z" fill="#FFE6BA"/>
<path d="M189.166 26.5521L189.134 26.5239L188.879 27.8258L188.907 27.8539L189.166 26.5521Z" fill="#FFE5B9"/>
<path d="M188.907 27.854L195.292 34.3032C195.65 34.1425 196.012 33.9857 196.37 33.829L189.166 26.5521L188.907 27.854Z" fill="#FFE5B9"/>
<path d="M189.424 25.2542L189.392 25.222L189.134 26.5239L189.165 26.5521L189.424 25.2542Z" fill="#FFE5B8"/>
<path d="M189.166 26.5521L196.37 33.829C196.732 33.6723 197.094 33.5156 197.457 33.3629L189.424 25.2502L189.166 26.5521Z" fill="#FFE5B8"/>
<path d="M189.683 23.9563L189.647 23.9161L189.392 25.222L189.424 25.2542L189.683 23.9563Z" fill="#FFE5B8"/>
<path d="M189.424 25.2543L197.456 33.367C197.823 33.2143 198.189 33.0616 198.559 32.917L189.687 23.9564L189.424 25.2543Z" fill="#FFE5B8"/>
<path d="M189.945 22.6544L189.906 22.6143L189.647 23.9161L189.683 23.9563L189.945 22.6544Z" fill="#FFE5B7"/>
<path d="M189.683 23.9563L198.554 32.9168C198.924 32.7682 199.298 32.6275 199.672 32.4829L189.941 22.6544L189.683 23.9563Z" fill="#FFE5B7"/>
<path d="M190.204 21.3566L190.16 21.3124L189.906 22.6143L189.945 22.6544L190.204 21.3566Z" fill="#FFE4B6"/>
<path d="M189.945 22.6544L199.677 32.4829C200.05 32.3382 200.424 32.1936 200.802 32.057L190.208 21.3566L189.945 22.6544Z" fill="#FFE4B6"/>
<path d="M190.463 20.0547L190.419 20.0065L190.16 21.3124L190.204 21.3566L190.463 20.0547Z" fill="#FFE4B5"/>
<path d="M190.204 21.3566L200.798 32.057C201.18 31.9163 201.562 31.7837 201.944 31.6511L190.462 20.0547L190.204 21.3566Z" fill="#FFE4B5"/>
<path d="M190.721 18.7568L190.673 18.7046L190.419 20.0065L190.462 20.0547L190.721 18.7568Z" fill="#FFE4B5"/>
<path d="M190.462 20.0547L201.944 31.6511C202.33 31.5185 202.716 31.386 203.102 31.2574L190.721 18.7528L190.462 20.0547Z" fill="#FFE4B5"/>
<path d="M190.984 17.4549L190.928 17.4027L190.673 18.7046L190.721 18.7568L190.984 17.4549Z" fill="#FFE3B4"/>
<path d="M190.721 18.7568L203.102 31.2614C203.492 31.1328 203.878 31.0042 204.272 30.8797L190.98 17.455L190.721 18.7568Z" fill="#FFE3B4"/>
<path d="M191.242 16.1571L191.187 16.1008L190.928 17.4027L190.984 17.455L191.242 16.1571Z" fill="#FFE3B3"/>
<path d="M190.984 17.455L204.276 30.8797C204.669 30.7551 205.071 30.6386 205.469 30.5221L191.242 16.1571L190.984 17.455Z" fill="#FFE3B3"/>
<path d="M191.501 14.8552L191.441 14.7949L191.187 16.1008L191.242 16.1571L191.501 14.8552Z" fill="#FFE3B2"/>
<path d="M191.242 16.1571L205.465 30.5221C205.863 30.4056 206.265 30.285 206.666 30.1725L191.501 14.8552L191.242 16.1571Z" fill="#FFE3B2"/>
<path d="M191.759 13.5573L191.7 13.493L191.441 14.7949L191.501 14.8552L191.759 13.5573Z" fill="#FFE3B2"/>
<path d="M191.501 14.8552L206.666 30.1725C207.072 30.06 207.478 29.9475 207.884 29.843L191.759 13.5574L191.501 14.8552Z" fill="#FFE3B2"/>
<path d="M192.022 12.2555L191.954 12.1912L191.7 13.4931L191.759 13.5573L192.022 12.2555Z" fill="#FFE2B1"/>
<path d="M191.76 13.5573L207.884 29.8429C208.294 29.7344 208.708 29.634 209.121 29.5335L192.022 12.2554L191.76 13.5573Z" fill="#FFE2B1"/>
<path d="M192.281 10.9576L192.209 10.8853L191.954 12.1912L192.022 12.2555L192.281 10.9576Z" fill="#FFE2B0"/>
<path d="M192.022 12.2554L209.125 29.5295C209.543 29.4291 209.957 29.3246 210.374 29.2322L192.281 10.9575L192.022 12.2554Z" fill="#FFE2B0"/>
<path d="M192.48 9.94501C192.563 9.91286 192.651 9.88474 192.734 9.85259L192.659 9.77625C192.575 9.80839 192.491 9.83652 192.408 9.86464L192.209 10.8853L192.277 10.9536L192.48 9.94501Z" fill="#FFE2AF"/>
<path d="M192.48 9.94496L192.277 10.9575L210.37 29.2322C210.792 29.1358 211.218 29.0433 211.644 28.9549L192.73 9.85254C192.651 9.88468 192.567 9.91281 192.48 9.94496Z" fill="#FFE2AF"/>
<path d="M193.876 9.44268L193.8 9.36633C193.418 9.49893 193.04 9.63555 192.658 9.77619L192.734 9.85253C193.116 9.71592 193.494 9.5793 193.876 9.44268Z" fill="#FFE2AF"/>
<path d="M192.734 9.85662L211.647 28.959C212.077 28.8706 212.507 28.7862 212.94 28.7019L193.876 9.44275C193.494 9.57937 193.116 9.71599 192.734 9.85662Z" fill="#FFE2AF"/>
<path d="M195.026 9.04498L194.954 8.97266C194.568 9.10526 194.182 9.23384 193.8 9.37046L193.876 9.4468C194.258 9.31018 194.644 9.17758 195.026 9.04498Z" fill="#FFE1AE"/>
<path d="M193.876 9.44271L212.941 28.6978C213.374 28.6134 213.808 28.529 214.245 28.4527L195.026 9.04089C194.644 9.17751 194.258 9.31011 193.876 9.44271Z" fill="#FFE1AE"/>
<path d="M196.187 8.65521L196.116 8.58289C195.726 8.71147 195.34 8.84005 194.954 8.97265L195.026 9.04498C195.412 8.91238 195.798 8.7838 196.187 8.65521Z" fill="#FFE1AD"/>
<path d="M195.026 9.04491L214.245 28.4567C214.687 28.3804 215.129 28.308 215.574 28.2357L196.187 8.65515C195.797 8.78373 195.412 8.91231 195.026 9.04491Z" fill="#FFE1AD"/>
<path d="M197.361 8.27741L197.289 8.20508C196.895 8.32964 196.506 8.45421 196.116 8.58279L196.187 8.65511C196.577 8.52653 196.967 8.40197 197.361 8.27741Z" fill="#FFE1AD"/>
<path d="M215.574 28.2357C215.698 28.2157 215.817 28.1956 215.94 28.1755L216.127 27.2312L197.361 8.27747C196.971 8.40203 196.577 8.52659 196.188 8.65517L215.574 28.2357Z" fill="#FFE1AD"/>
<path d="M198.547 7.91584L198.479 7.84753C198.081 7.96808 197.687 8.08461 197.29 8.20917L197.361 8.2815C197.755 8.15291 198.149 8.03237 198.547 7.91584Z" fill="#FFE1AC"/>
<path d="M216.183 26.9379L216.382 25.9293V25.9253L216.183 26.9379Z" fill="#FFE1AC"/>
<path d="M198.547 7.91577C198.149 8.03632 197.755 8.15686 197.361 8.27741L216.127 27.2311L216.187 26.9378L216.382 25.9252L198.547 7.91577Z" fill="#FFE1AC"/>
<path d="M216.382 25.9253V25.9293L216.64 24.6274L216.632 24.6194L216.382 25.9253Z" fill="#FFE1AB"/>
<path d="M199.744 7.56221L199.677 7.4939C199.275 7.61042 198.877 7.72695 198.479 7.8475L198.547 7.9158C198.944 7.79526 199.342 7.67471 199.744 7.56221Z" fill="#FFE1AB"/>
<path d="M198.547 7.91586L216.382 25.9293L216.636 24.6234L199.744 7.56226C199.342 7.67476 198.944 7.79531 198.547 7.91586Z" fill="#FFE1AB"/>
<path d="M200.95 7.21663L200.886 7.15234C200.48 7.26083 200.078 7.37736 199.677 7.49389L199.744 7.5622C200.146 7.44567 200.548 7.32914 200.95 7.21663Z" fill="#FFE0AB"/>
<path d="M216.633 24.6194L216.641 24.6274L216.895 23.3215L216.887 23.3175L216.633 24.6194Z" fill="#FFE0AB"/>
<path d="M199.744 7.56224L216.636 24.6234L216.891 23.3175L200.95 7.21667C200.548 7.32918 200.146 7.44571 199.744 7.56224Z" fill="#FFE0AB"/>
<path d="M216.887 23.3175L216.895 23.3215L217.154 22.0196L217.142 22.0116L216.887 23.3175Z" fill="#FFE0AA"/>
<path d="M202.175 6.8912L202.111 6.8269C201.702 6.93138 201.292 7.03987 200.886 7.15238L200.95 7.21667C201.355 7.10818 201.765 6.99969 202.175 6.8912Z" fill="#FFE0AA"/>
<path d="M200.95 7.21659L216.887 23.3134L217.142 22.0075L202.175 6.89111C201.765 6.9996 201.356 7.10809 200.95 7.21659Z" fill="#FFE0AA"/>
<path d="M203.408 6.57772L203.345 6.51343C202.931 6.61388 202.521 6.71836 202.107 6.82685L202.171 6.89114C202.585 6.78666 202.999 6.68219 203.408 6.57772Z" fill="#FFE0A9"/>
<path d="M217.142 22.0116L217.154 22.0196L217.408 20.7177L217.396 20.7057L217.142 22.0116Z" fill="#FFE0A9"/>
<path d="M202.175 6.89117L217.142 22.0075L217.396 20.7016L203.408 6.57373C202.999 6.68222 202.585 6.78669 202.175 6.89117Z" fill="#FFE0A9"/>
<path d="M217.396 20.7057L217.408 20.7177L217.663 19.4159L217.651 19.3998L217.396 20.7057Z" fill="#FFE0A9"/>
<path d="M204.658 6.27646L204.598 6.21619C204.18 6.31262 203.766 6.41709 203.349 6.51755L203.412 6.58184C203.826 6.47737 204.24 6.37289 204.658 6.27646Z" fill="#FFE0A9"/>
<path d="M203.408 6.57773L217.396 20.7056L217.651 19.3997L204.657 6.27637C204.24 6.3728 203.826 6.47728 203.408 6.57773Z" fill="#FFE0A9"/>
<path d="M205.919 5.98703L205.859 5.92676C205.437 6.01918 205.015 6.11561 204.594 6.21205L204.653 6.27232C205.075 6.17588 205.497 6.07945 205.919 5.98703Z" fill="#FFDFA8"/>
<path d="M217.651 19.3998L217.663 19.4159L217.921 18.1099L217.902 18.0939L217.651 19.3998Z" fill="#FFDFA8"/>
<path d="M204.657 6.27637L217.651 19.3997L217.906 18.0938L205.919 5.98706C205.497 6.07948 205.075 6.17591 204.657 6.27637Z" fill="#FFDFA8"/>
<path d="M207.196 5.71787L207.136 5.65759C206.71 5.74599 206.285 5.83439 205.859 5.92681L205.919 5.98708C206.344 5.89466 206.77 5.80627 207.196 5.71787Z" fill="#FFDFA8"/>
<path d="M217.902 18.0939L217.921 18.1099L218.176 16.8081L218.156 16.788L217.902 18.0939Z" fill="#FFDFA8"/>
<path d="M205.919 5.98711L217.906 18.0939L218.16 16.788L207.196 5.7179C206.77 5.8063 206.344 5.8947 205.919 5.98711Z" fill="#FFDFA8"/>
<path d="M218.156 16.788L218.176 16.8081L218.435 15.5062L218.411 15.4821L218.156 16.788Z" fill="#FFDFA7"/>
<path d="M208.485 5.45663L208.425 5.39636C207.995 5.48074 207.566 5.56513 207.136 5.65353L207.196 5.7138C207.625 5.6254 208.055 5.54102 208.485 5.45663Z" fill="#FFDFA7"/>
<path d="M207.196 5.71785L218.156 16.7879L218.411 15.482L208.485 5.45667C208.055 5.54105 207.625 5.62543 207.196 5.71785Z" fill="#FFDFA7"/>
<path d="M209.786 5.20762L209.73 5.15137C209.296 5.23173 208.859 5.31209 208.425 5.39648L208.485 5.45675C208.918 5.37237 209.352 5.28799 209.786 5.20762Z" fill="#FFDFA6"/>
<path d="M218.411 15.4821L218.435 15.5062L218.689 14.2043L218.666 14.1761L218.411 15.4821Z" fill="#FFDFA6"/>
<path d="M208.485 5.45665L218.411 15.482L218.665 14.1761L209.786 5.20752C209.352 5.28788 208.918 5.37226 208.485 5.45665Z" fill="#FFDFA6"/>
<path d="M211.107 4.98252L211.051 4.92627C210.609 4.9986 210.168 5.07494 209.73 5.15129L209.786 5.20754C210.227 5.1312 210.669 5.05485 211.107 4.98252Z" fill="#FFDFA6"/>
<path d="M218.666 14.1761L218.689 14.2043L218.948 12.8984L218.92 12.8702L218.666 14.1761Z" fill="#FFDFA6"/>
<path d="M209.786 5.20756L218.665 14.1761L218.92 12.8702L211.106 4.98254C210.669 5.05487 210.227 5.13122 209.786 5.20756Z" fill="#FFDFA6"/>
<path d="M218.92 12.8702L218.948 12.8984L219.203 11.5965L219.171 11.5643L218.92 12.8702Z" fill="#FFDFA5"/>
<path d="M212.443 4.76963L212.388 4.71338C211.942 4.78169 211.496 4.85402 211.051 4.92634L211.106 4.9826C211.552 4.91027 211.998 4.83794 212.443 4.76963Z" fill="#FFDFA5"/>
<path d="M211.106 4.98249L218.916 12.8702L219.171 11.5643L212.443 4.76953C211.998 4.83784 211.552 4.91017 211.106 4.98249Z" fill="#FFDFA5"/>
<path d="M219.171 11.5643L219.202 11.5965L219.461 10.2946L219.425 10.2584L219.171 11.5643Z" fill="#FFDEA5"/>
<path d="M213.796 4.57273L213.74 4.51648C213.291 4.58077 212.841 4.64506 212.392 4.71337L212.447 4.76962C212.893 4.70132 213.342 4.63702 213.796 4.57273Z" fill="#FFDEA5"/>
<path d="M212.443 4.76952L219.171 11.5643L219.425 10.2584L213.796 4.57263C213.342 4.63692 212.893 4.70121 212.443 4.76952Z" fill="#FFDEA5"/>
<path d="M219.425 10.2584L219.461 10.2946L219.716 8.9927L219.68 8.95251L219.425 10.2584Z" fill="#FFDEA4"/>
<path d="M215.161 4.3878L215.105 4.33154C214.647 4.3878 214.194 4.45209 213.74 4.51236L213.796 4.56862C214.249 4.50834 214.703 4.44807 215.161 4.3878Z" fill="#FFDEA4"/>
<path d="M213.796 4.57265L219.425 10.2584L219.68 8.95246L215.16 4.38782C214.703 4.44809 214.249 4.50836 213.796 4.57265Z" fill="#FFDEA4"/>
<path d="M219.68 8.95251L219.716 8.9927L219.974 7.68679L219.935 7.64661L219.68 8.95251Z" fill="#FFDEA4"/>
<path d="M216.549 4.22715L216.493 4.1709C216.032 4.22313 215.566 4.27537 215.109 4.33163L215.165 4.38788C215.622 4.33163 216.084 4.27939 216.549 4.22715Z" fill="#FFDEA4"/>
<path d="M215.16 4.3879L219.68 8.95255L219.934 7.64664L216.549 4.22717C216.083 4.27941 215.622 4.33165 215.16 4.3879Z" fill="#FFDEA4"/>
<path d="M219.935 7.64662L219.974 7.6868L220.229 6.38491L220.189 6.34473L219.935 7.64662Z" fill="#FFDEA4"/>
<path d="M217.949 4.08249L217.89 4.02222C217.42 4.06642 216.955 4.11463 216.489 4.16687L216.545 4.22312C217.014 4.17491 217.48 4.13071 217.949 4.08249Z" fill="#FFDEA4"/>
<path d="M216.549 4.22705L219.934 7.64652L220.189 6.34061L217.953 4.0824C217.48 4.13062 217.014 4.17482 216.549 4.22705Z" fill="#FFDEA4"/>
<path d="M219.37 3.95395L219.31 3.89368C218.836 3.93386 218.363 3.97806 217.894 4.02226L217.953 4.08253C218.423 4.03833 218.896 3.99413 219.37 3.95395Z" fill="#FFDEA3"/>
<path d="M220.189 6.34473L220.229 6.38491L220.488 5.08302L220.44 5.03882L220.189 6.34473Z" fill="#FFDEA3"/>
<path d="M220.189 6.34468L220.444 5.03877L219.374 3.95789C218.9 3.99807 218.427 4.04227 217.953 4.08647L220.189 6.34468Z" fill="#FFDEA3"/>
<path d="M220.738 3.78113C220.261 3.81327 219.783 3.85345 219.31 3.89364L219.37 3.95391C219.803 3.91775 220.237 3.88158 220.671 3.84944L220.44 5.0348L220.484 5.079L220.738 3.78113Z" fill="#FFDEA3"/>
<path d="M220.671 3.85339C220.237 3.88554 219.803 3.9217 219.37 3.95787L220.44 5.03876L220.671 3.85339Z" fill="#FFDEA3"/>
</g>
<defs>
<clipPath id="clip0_6474_619">
<rect width="258" height="107" fill="white"/>
</clipPath>
</defs>
</svg>
