<svg width="24" height="24" viewBox="0 0 24 24" fill="none" xmlns="http://www.w3.org/2000/svg">
<path fill-rule="evenodd" clip-rule="evenodd" d="M16.4334 20.5728C18.7824 20.5228 20.6554 18.5658 20.6034 16.2118V11.8698C20.6054 11.7648 20.6044 11.6718 20.6004 11.5788C20.4994 9.24082 18.6104 7.49682 16.1954 7.49682C16.1842 7.49682 16.174 7.49725 16.163 7.49771C16.1502 7.49824 16.1365 7.49882 16.1194 7.49882H7.88238C7.75638 7.49382 7.66538 7.49282 7.57438 7.49482C6.43138 7.51982 5.36938 7.98582 4.58138 8.81082C3.79138 9.63382 3.37138 10.7148 3.39638 11.8558V16.1958C3.39438 16.3038 3.39538 16.3978 3.39938 16.4898C3.50238 18.8428 5.48038 20.6828 7.85038 20.5698C10.5694 20.6158 13.3324 20.6158 16.1064 20.5688C16.2424 20.5748 16.3384 20.5758 16.4334 20.5728ZM16.1144 6.10382C19.2974 6.07782 21.8604 8.44082 21.9944 11.5178C21.9994 11.6388 22.0004 11.7628 21.9984 11.8858V16.1958C22.0664 19.3038 19.5824 21.8998 16.4604 21.9688C16.3324 21.9718 16.2114 21.9688 16.0894 21.9638C14.7114 21.9878 13.3254 21.9998 11.9464 21.9998C10.5754 21.9998 9.21138 21.9878 7.86938 21.9648C4.79038 22.0958 2.14238 19.6718 2.00538 16.5528C1.99938 16.4298 1.99938 16.3058 2.00138 16.1818V11.8698C1.96838 10.3728 2.52638 8.93882 3.57338 7.84582C4.61938 6.75182 6.02838 6.13182 7.54138 6.09982C7.66438 6.09582 7.79038 6.09682 7.91638 6.10482L11.8714 6.10382V5.87282C11.8624 5.19682 11.3004 4.64382 10.6164 4.64382H10.6064H9.61838H9.60038C8.53638 4.64382 7.66038 3.77682 7.64838 2.70582C7.64438 2.31982 7.95438 2.00482 8.33838 2.00082C8.68238 1.98482 9.04038 2.30582 9.04338 2.69082C9.04638 2.99882 9.29938 3.24782 9.60638 3.24782H9.61238H10.6014H10.6214C12.0614 3.24782 13.2474 4.41682 13.2664 5.86382V6.10382H16.1144ZM9.07968 11.5855C9.45241 11.5855 9.76044 11.8578 9.80919 12.2111L9.81591 12.3093V13.3258H10.8498C11.2564 13.3258 11.586 13.6499 11.586 14.0497C11.586 14.4162 11.309 14.719 10.9497 14.767L10.8498 14.7736H9.81591V15.7901C9.81591 16.1899 9.48629 16.5139 9.07968 16.5139C8.70696 16.5139 8.39893 16.2416 8.35018 15.8883L8.34346 15.7901V14.7736H7.30959C6.90299 14.7736 6.57337 14.4495 6.57337 14.0497C6.57337 13.6832 6.85034 13.3804 7.20969 13.3324L7.30959 13.3258H8.34346V12.3093C8.34346 11.9095 8.67308 11.5855 9.07968 11.5855ZM15.854 12.4153C15.854 12.0156 15.5244 11.6915 15.1178 11.6915H15.0189L14.919 11.6981C14.5597 11.746 14.2827 12.0489 14.2827 12.4153C14.2827 12.8151 14.6123 13.1392 15.0189 13.1392H15.1178L15.2177 13.1326C15.577 13.0847 15.854 12.7818 15.854 12.4153ZM16.798 15.0132C17.2046 15.0132 17.5342 15.3373 17.5342 15.7371C17.5342 16.1035 17.2573 16.4064 16.8979 16.4543L16.798 16.4609H16.6992C16.2926 16.4609 15.9629 16.1369 15.9629 15.7371C15.9629 15.3706 16.2399 15.0677 16.5993 15.0198L16.6992 15.0132H16.798Z" fill="white"/>
</svg>
