<svg width="63" height="63" viewBox="0 0 63 63" fill="none" xmlns="http://www.w3.org/2000/svg">
<circle cx="31.5" cy="31.5" r="31.5" fill="#F0F0F0"/>
<path d="M24.164 47.904L30.468 45.508C30.856 45.36 31.288 45.36 31.676 45.508L37.98 47.904C41.436 49.22 45.14 46.664 45.14 42.968V24.284C45.14 21.368 42.776 19 39.856 19H22.284C19.368 19 17 21.364 17 24.284V42.968C17.004 46.664 20.704 49.22 24.164 47.904Z" fill="#67DCD9"/>
<path d="M39.12 27.71L36.29 24.88C35.7279 24.3172 34.9654 24.0007 34.17 24H27.83C27.0346 24.0007 26.2721 24.3172 25.71 24.88L22.88 27.71C22.3172 28.2721 22.0007 29.0346 22 29.83V39C22 39.7956 22.3161 40.5587 22.8787 41.1213C23.4413 41.6839 24.2044 42 25 42H37C37.7956 42 38.5587 41.6839 39.1213 41.1213C39.6839 40.5587 40 39.7956 40 39V29.83C39.9993 29.0346 39.6828 28.2721 39.12 27.71ZM27.12 26.29C27.3116 26.1073 27.5652 26.0037 27.83 26H34.17C34.4348 26.0037 34.6884 26.1073 34.88 26.29L36.59 28H25.41L27.12 26.29ZM37 40H25C24.7348 40 24.4804 39.8946 24.2929 39.7071C24.1054 39.5196 24 39.2652 24 39V30H38V39C38 39.2652 37.8946 39.5196 37.7071 39.7071C37.5196 39.8946 37.2652 40 37 40Z" fill="white"/>
<path d="M34 32C33.7348 32 33.4804 32.1054 33.2929 32.2929C33.1054 32.4804 33 32.7348 33 33C33 33.5304 32.7893 34.0391 32.4142 34.4142C32.0391 34.7893 31.5304 35 31 35C30.4696 35 29.9609 34.7893 29.5858 34.4142C29.2107 34.0391 29 33.5304 29 33C29 32.7348 28.8946 32.4804 28.7071 32.2929C28.5196 32.1054 28.2652 32 28 32C27.7348 32 27.4804 32.1054 27.2929 32.2929C27.1054 32.4804 27 32.7348 27 33C27 34.0609 27.4214 35.0783 28.1716 35.8284C28.9217 36.5786 29.9391 37 31 37C32.0609 37 33.0783 36.5786 33.8284 35.8284C34.5786 35.0783 35 34.0609 35 33C35 32.7348 34.8946 32.4804 34.7071 32.2929C34.5196 32.1054 34.2652 32 34 32Z" fill="white"/>
</svg>
