<svg width="63" height="63" viewBox="0 0 63 63" fill="none" xmlns="http://www.w3.org/2000/svg">
<circle cx="31.5" cy="31.5" r="31.5" fill="#F0F0F0"/>
<path d="M22.1874 42H43V20.6158C43 18.0685 40.6792 16 37.8126 16H22.1874C19.3247 16 17 18.065 17 20.6158V37.3877C17 39.935 19.3208 42 22.1874 42Z" fill="#41D3CF"/>
<path d="M22.1874 42H43V20.6158C43 18.0685 40.6792 16 37.8126 16H22.1874C19.3247 16 17 18.065 17 20.6158V37.3877C17 39.935 19.3208 42 22.1874 42Z" fill="#FB579F"/>
<path d="M27.164 47.904L33.468 45.508C33.856 45.36 34.288 45.36 34.676 45.508L40.98 47.904C44.436 49.22 48.14 46.664 48.14 42.968V24.284C48.14 21.368 45.776 19 42.856 19H25.284C22.368 19 20 21.364 20 24.284V42.968C20.004 46.664 23.704 49.22 27.164 47.904Z" fill="#67DCD9"/>
<path d="M32.5 28C32.1061 28 31.7159 28.0776 31.352 28.2284C30.988 28.3792 30.6573 28.6001 30.3787 28.8787C30.1001 29.1573 29.8791 29.488 29.7284 29.852C29.5776 30.216 29.5 30.6061 29.5 31C29.5 31.394 29.5776 31.7841 29.7284 32.1481C29.8791 32.5121 30.1001 32.8428 30.3787 33.1214C30.6573 33.4 30.988 33.6209 31.352 33.7717C31.7159 33.9225 32.1061 34.0001 32.5 34.0001C33.2957 34.0001 34.0587 33.684 34.6214 33.1214C35.184 32.5588 35.5 31.7957 35.5 31C35.5 30.2044 35.184 29.4413 34.6214 28.8787C34.0587 28.3161 33.2957 28 32.5 28ZM31 31C31 30.6022 31.158 30.2207 31.4394 29.9394C31.7207 29.6581 32.1022 29.5 32.5 29.5C32.8978 29.5 33.2794 29.6581 33.5607 29.9394C33.842 30.2207 34 30.6022 34 31C34 31.3979 33.842 31.7794 33.5607 32.0607C33.2794 32.342 32.8978 32.5001 32.5 32.5001C32.1022 32.5001 31.7207 32.342 31.4394 32.0607C31.158 31.7794 31 31.3979 31 31Z" fill="#F0F0F0"/>
<path d="M24 27.25C24 26.6533 24.2371 26.081 24.659 25.659C25.081 25.2371 25.6533 25 26.25 25H38.7501C39.0456 25 39.3382 25.0582 39.6111 25.1713C39.8841 25.2843 40.1322 25.4501 40.3411 25.659C40.55 25.8679 40.7158 26.116 40.8288 26.389C40.9419 26.662 41.0001 26.9545 41.0001 27.25V34.7501C41.0001 35.0455 40.9419 35.3381 40.8288 35.6111C40.7158 35.8841 40.55 36.1321 40.3411 36.3411C40.1322 36.55 39.8841 36.7157 39.6111 36.8288C39.3382 36.9419 39.0456 37.0001 38.7501 37.0001H26.25C25.6533 37.0001 25.081 36.763 24.659 36.3411C24.2371 35.9191 24 35.3468 24 34.7501V27.25ZM26.25 26.5C26.0511 26.5 25.8603 26.579 25.7197 26.7197C25.579 26.8603 25.5 27.0511 25.5 27.25V28H26.25C26.4489 28 26.6397 27.921 26.7803 27.7803C26.921 27.6397 27 27.4489 27 27.25V26.5H26.25ZM25.5 32.5H26.25C26.8468 32.5 27.4191 32.7371 27.841 33.1591C28.263 33.581 28.5 34.1533 28.5 34.7501V35.5001H36.5001V34.7501C36.5001 34.1533 36.7371 33.581 37.1591 33.1591C37.5811 32.7371 38.1534 32.5 38.7501 32.5H39.5001V29.5H38.7501C38.1534 29.5 37.5811 29.263 37.1591 28.841C36.7371 28.4191 36.5001 27.8468 36.5001 27.25V26.5H28.5V27.25C28.5 27.5455 28.4418 27.8381 28.3288 28.1111C28.2157 28.384 28.0499 28.6321 27.841 28.841C27.6321 29.0499 27.384 29.2157 27.1111 29.3288C26.8381 29.4418 26.5455 29.5 26.25 29.5H25.5V32.5ZM39.5001 28V27.25C39.5001 27.0511 39.4211 26.8603 39.2804 26.7197C39.1398 26.579 38.949 26.5 38.7501 26.5H38.0001V27.25C38.0001 27.664 38.3361 28 38.7501 28H39.5001ZM39.5001 34.0001H38.7501C38.5512 34.0001 38.3604 34.0791 38.2198 34.2197C38.0791 34.3604 38.0001 34.5511 38.0001 34.7501V35.5001H38.7501C38.949 35.5001 39.1398 35.421 39.2804 35.2804C39.4211 35.1397 39.5001 34.949 39.5001 34.7501V34.0001ZM25.5 34.7501C25.5 35.1641 25.836 35.5001 26.25 35.5001H27V34.7501C27 34.5511 26.921 34.3604 26.7803 34.2197C26.6397 34.0791 26.4489 34.0001 26.25 34.0001H25.5V34.7501Z" fill="#F0F0F0"/>
<path d="M26.4011 38.5001C26.6644 38.9563 27.0433 39.3352 27.4995 39.5985C27.9558 39.8618 28.4733 40.0003 29.0001 40.0001H39.2502C39.874 40.0001 40.4917 39.8772 41.068 39.6385C41.6443 39.3998 42.1679 39.0499 42.609 38.6088C43.0501 38.1677 43.3999 37.6441 43.6387 37.0678C43.8774 36.4915 44.0002 35.8738 44.0002 35.25V30C44.0002 28.89 43.3972 27.92 42.5002 27.401V35.25C42.5002 36.112 42.1578 36.9387 41.5483 37.5482C40.9388 38.1577 40.1122 38.5001 39.2502 38.5001H26.4011Z" fill="#F0F0F0"/>
</svg>
