<svg width="19" height="18" viewBox="0 0 19 18" fill="none" xmlns="http://www.w3.org/2000/svg">
<path fill-rule="evenodd" clip-rule="evenodd" d="M9.75 0C7.26375 0 5.25 2.01375 5.25 4.5C5.25 6.98625 7.26375 9 9.75 9C12.2362 9 14.25 6.98625 14.25 4.5C14.25 2.01375 12.2362 0 9.75 0ZM12 4.5C12 3.2625 10.9875 2.25 9.75 2.25C8.5125 2.25 7.5 3.2625 7.5 4.5C7.5 5.7375 8.5125 6.75 9.75 6.75C10.9875 6.75 12 5.7375 12 4.5ZM16.5 14.625C16.275 13.8263 12.7875 12.375 9.75 12.375C6.7125 12.375 3.225 13.8263 3 14.6362V15.75H16.5V14.625ZM0.75 14.625C0.75 11.6325 6.74625 10.125 9.75 10.125C12.7537 10.125 18.75 11.6325 18.75 14.625V18H0.75V14.625Z" fill="#DADADA"/>
</svg>
