<svg viewBox="0 0 23 23" class="ionicon" xmlns="http://www.w3.org/2000/svg">
<path fill-rule="evenodd" clip-rule="evenodd" d="M16.4876 21.1444C19.1302 21.0881 21.2373 18.8865 21.1788 16.2383V11.3535C21.1811 11.2354 21.18 11.1308 21.1755 11.0261C21.0618 8.3959 18.9367 6.43389 16.2198 6.43389C16.2073 6.43389 16.1957 6.43438 16.1833 6.4349C16.169 6.4355 16.1536 6.43614 16.1343 6.43614H6.8677C6.72595 6.43052 6.62358 6.42939 6.5212 6.43164C5.23533 6.45977 4.04058 6.98402 3.15408 7.91214C2.26533 8.83802 1.79283 10.0541 1.82095 11.3378V16.2203C1.8187 16.3418 1.81983 16.4475 1.82433 16.551C1.9402 19.1981 4.16545 21.2681 6.8317 21.141C9.89058 21.1928 12.999 21.1928 16.1197 21.1399C16.2727 21.1466 16.3807 21.1478 16.4876 21.1444ZM16.1287 4.86676C19.7096 4.83751 22.5929 7.49589 22.7437 10.9575C22.7493 11.0936 22.7504 11.2331 22.7482 11.3715V16.2203C22.8247 19.7168 20.0302 22.6373 16.5179 22.7149C16.3739 22.7183 16.2378 22.7149 16.1006 22.7093C14.5503 22.7363 12.9911 22.7498 11.4397 22.7498C9.89731 22.7498 8.36281 22.7363 6.85306 22.7104C3.38918 22.8578 0.410182 20.1308 0.256057 16.6219C0.249307 16.4835 0.249307 16.344 0.251557 16.2045V11.3535C0.214432 9.66939 0.842182 8.05614 2.02006 6.82651C3.19681 5.59576 4.78193 4.89826 6.48406 4.86226C6.62243 4.85776 6.76418 4.85889 6.90593 4.86789L11.3553 4.86676V4.60689C11.3452 3.84639 10.7129 3.22426 9.94343 3.22426H9.93218H8.82068H8.80043C7.60343 3.22426 6.61793 2.24889 6.60443 1.04401C6.59993 0.609764 6.94868 0.255389 7.38068 0.250889C7.76768 0.232889 8.17043 0.594014 8.17381 1.02714C8.17718 1.37364 8.46181 1.65376 8.80718 1.65376H8.81393H9.92656H9.94906C11.5691 1.65376 12.9033 2.96889 12.9247 4.59676V4.86676H16.1287ZM8.21462 11.0336C8.63393 11.0336 8.98047 11.34 9.03532 11.7375L9.04288 11.848V12.9915H10.206C10.6634 12.9915 11.0342 13.3561 11.0342 13.8059C11.0342 14.2182 10.7226 14.5589 10.3184 14.6128L10.206 14.6202H9.04288V15.7638C9.04288 16.2136 8.67205 16.5782 8.21462 16.5782C7.79531 16.5782 7.44877 16.2718 7.39393 15.8743L7.38636 15.7638V14.6202H6.22328C5.76585 14.6202 5.39502 14.2557 5.39502 13.8059C5.39502 13.3936 5.70662 13.0529 6.11089 12.999L6.22328 12.9915H7.38636V11.848C7.38636 11.3982 7.75719 11.0336 8.21462 11.0336ZM15.8357 11.9672C15.8357 11.5175 15.4649 11.1529 15.0075 11.1529H14.8963L14.7839 11.1603C14.3796 11.2142 14.068 11.5549 14.068 11.9672C14.068 12.417 14.4389 12.7816 14.8963 12.7816H15.0075L15.1199 12.7741C15.5241 12.7202 15.8357 12.3795 15.8357 11.9672ZM16.8977 14.8898C17.3552 14.8898 17.726 15.2544 17.726 15.7042C17.726 16.1164 17.4144 16.4572 17.0101 16.5111L16.8977 16.5185H16.7865C16.3291 16.5185 15.9583 16.1539 15.9583 15.7042C15.9583 15.2919 16.2699 14.9512 16.6742 14.8973L16.7865 14.8898H16.8977Z"/>
</svg>
