<svg viewBox="0 0 14 20" class="ionicon" xmlns="http://www.w3.org/2000/svg">
<path fill-rule="evenodd" clip-rule="evenodd" d="M10.5 1.24327H2.625C2.2769 1.24327 1.94306 1.37426 1.69692 1.60742C1.45078 1.84058 1.3125 2.15681 1.3125 2.48655V17.4058C1.3125 17.7356 1.45078 18.0518 1.69692 18.285C1.94306 18.5181 2.2769 18.6491 2.625 18.6491H10.5C10.8481 18.6491 11.1819 18.5181 11.4281 18.285C11.6742 18.0518 11.8125 17.7356 11.8125 17.4058V2.48655C11.8125 2.15681 11.6742 1.84058 11.4281 1.60742C11.1819 1.37426 10.8481 1.24327 10.5 1.24327ZM2.625 0C1.92881 0 1.26113 0.261975 0.768845 0.728293C0.276562 1.19461 0 1.82707 0 2.48655V17.4058C0 18.0653 0.276562 18.6978 0.768845 19.1641C1.26113 19.6304 1.92881 19.8924 2.625 19.8924H10.5C11.1962 19.8924 11.8639 19.6304 12.3562 19.1641C12.8484 18.6978 13.125 18.0653 13.125 17.4058V2.48655C13.125 1.82707 12.8484 1.19461 12.3562 0.728293C11.8639 0.261975 11.1962 0 10.5 0L2.625 0Z"/>
</svg>
