<svg viewBox="0 0 22 22" class="ionicon" xmlns="http://www.w3.org/2000/svg">
<path d="M11 0C4.928 0 0 4.928 0 11C0 17.072 4.928 22 11 22C17.072 22 22 17.072 22 11C22 4.928 17.072 0 11 0ZM12.1 3.63L13.585 2.585C15.5748 3.2016 17.2818 4.50328 18.403 6.259L17.974 7.733L16.489 8.239L12.1 5.17V3.63ZM8.415 2.585L9.9 3.63V5.17L5.511 8.239L4.026 7.733L3.597 6.259C4.72471 4.5093 6.42926 3.20949 8.415 2.585ZM5.588 16.621L4.334 16.731C2.95509 15.1404 2.19724 13.1051 2.2 11C2.2 10.868 2.211 10.747 2.222 10.615L3.322 9.812L4.84 10.34L6.446 15.114L5.588 16.621ZM13.75 19.349C12.881 19.635 11.957 19.8 11 19.8C10.043 19.8 9.119 19.635 8.25 19.349L7.491 17.71L8.195 16.5H13.816L14.52 17.721L13.75 19.349ZM13.497 14.3H8.503L7.018 9.878L11 7.084L14.993 9.878L13.497 14.3ZM17.666 16.731L16.412 16.621L15.543 15.114L17.149 10.34L18.678 9.823L19.778 10.626C19.789 10.747 19.8 10.868 19.8 11C19.8 13.189 18.997 15.191 17.666 16.731Z"/>
</svg>
