<svg viewBox="0 0 18 18" class="ionicon" xmlns="http://www.w3.org/2000/svg"><title>Trash</title>
<path d="M6.18518 1H2.03704C1.4643 1 1 1.4643 1 2.03704V6.18518C1 6.75793 1.4643 7.22222 2.03704 7.22222H6.18518C6.75793 7.22222 7.22222 6.75793 7.22222 6.18518V2.03704C7.22222 1.4643 6.75793 1 6.18518 1Z" stroke-width="2" stroke-linecap="round" stroke-linejoin="round"/>
<path d="M6.18518 10.7778H2.03704C1.4643 10.7778 1 11.2421 1 11.8149V15.963C1 16.5358 1.4643 17.0001 2.03704 17.0001H6.18518C6.75793 17.0001 7.22222 16.5358 7.22222 15.963V11.8149C7.22222 11.2421 6.75793 10.7778 6.18518 10.7778Z" stroke-width="2" stroke-linecap="round" stroke-linejoin="round"/>
<path d="M15.963 10.7778H11.8149C11.2421 10.7778 10.7778 11.2421 10.7778 11.8149V15.963C10.7778 16.5358 11.2421 17.0001 11.8149 17.0001H15.963C16.5358 17.0001 17.0001 16.5358 17.0001 15.963V11.8149C17.0001 11.2421 16.5358 10.7778 15.963 10.7778Z" stroke-width="2" stroke-linecap="round" stroke-linejoin="round"/>
<path d="M10.7778 3.66675H17.0001" stroke-width="2" stroke-linecap="round" stroke-linejoin="round"/>
<path d="M14.3333 1V7.22222" stroke-width="2" stroke-linecap="round" stroke-linejoin="round"/>
</svg>
