<svg width="20" height="25" viewBox="0 0 20 25" fill="none" xmlns="http://www.w3.org/2000/svg">
<path d="M5.42257 15.3443C5.25107 15.5145 5.25107 15.7912 5.42257 15.9615C5.59407 16.1318 5.87275 16.1318 6.04425 15.9615C8.05 13.9745 11.2975 13.9745 13.3032 15.9615C13.4747 16.1318 13.7534 16.1323 13.9249 15.9615C14.0964 15.7907 14.097 15.5145 13.9249 15.3443C11.5762 13.0168 7.77242 13.0168 5.42257 15.3443Z" fill="#ED1F24"/>
<path d="M9.67431 15.3955C8.56012 15.3923 7.49046 15.8321 6.70443 16.6169C6.53293 16.7871 6.53293 17.0638 6.70443 17.2341C6.87593 17.4043 7.15461 17.4043 7.32611 17.2341C8.62279 15.9467 10.7247 15.9467 12.0214 17.2335C12.0214 17.2335 12.0214 17.2335 12.022 17.2341C12.1935 17.4043 12.4721 17.4043 12.6436 17.2341C12.8151 17.0638 12.8151 16.7871 12.6436 16.6169C11.8582 15.8321 10.7885 15.3928 9.67431 15.3955Z" fill="#ED1F24"/>
<path d="M8.15831 18.0601C7.98461 18.2287 7.98132 18.5049 8.15117 18.6773C8.32101 18.8498 8.59915 18.853 8.77285 18.6844C8.77504 18.6822 8.77779 18.68 8.77999 18.6773C9.27415 18.1878 10.0739 18.1878 10.5686 18.6773C10.7423 18.8459 11.0205 18.8427 11.1903 18.6702C11.3574 18.5005 11.3574 18.2293 11.1903 18.0596C10.3526 17.2301 8.99601 17.2301 8.15831 18.0601Z" fill="#ED1F24"/>
<path d="M15.193 0.408691C15.1122 0.32465 15.0011 0.274443 14.884 0.269531H2.76101C1.25051 0.269531 0 1.51652 0 3.01617V22.08C0 23.5802 1.25051 24.8272 2.76101 24.8272H16.5875C18.098 24.8272 19.3485 23.5802 19.3485 22.0806V4.64899C19.3446 4.52893 19.2935 4.41487 19.2067 4.33137L15.193 0.408691ZM18.469 22.0806C18.469 23.0989 17.6132 23.9541 16.5875 23.9541H2.76101C1.73532 23.9541 0.879476 23.0989 0.879476 22.0806V3.01617C0.879476 1.99785 1.73532 1.14269 2.76101 1.14269H14.7037L18.469 4.83126V22.0806Z" fill="#ED1F24"/>
<path d="M2.96834 10.9216V21.2101C2.96834 21.4513 3.15083 21.662 3.39324 21.662H15.735C15.9802 21.6587 16.1781 21.4612 16.1797 21.2178C16.1797 21.1676 16.1599 21.1114 16.1599 21.0661V10.9216C16.1561 10.6765 15.9571 10.4784 15.7103 10.4746H3.39324C3.15193 10.4806 2.96175 10.6798 2.96779 10.9194C2.96834 10.9199 2.96834 10.921 2.96834 10.9216ZM3.84782 11.3478H15.281V20.7888H3.84782V11.3478Z" fill="#ED1F24"/>
<path d="M5.5518 7.7191C5.79475 7.7191 5.99154 7.52373 5.99154 7.28252V5.31353C5.99154 5.07232 5.79475 4.87695 5.5518 4.87695C5.30884 4.87695 5.11206 5.07232 5.11206 5.31353V7.28252C5.11206 7.52373 5.30884 7.7191 5.5518 7.7191Z" fill="#ED1F24"/>
<path d="M9.45439 7.7191C9.69734 7.7191 9.89412 7.52373 9.89412 7.28252V5.31353C9.89412 5.07232 9.69734 4.87695 9.45439 4.87695C9.21143 4.87695 9.01465 5.07232 9.01465 5.31353V7.28252C9.01465 7.52373 9.21143 7.7191 9.45439 7.7191Z" fill="#ED1F24"/>
<path d="M13.302 7.7191C13.545 7.7191 13.7418 7.52373 13.7418 7.28252V5.31353C13.7418 5.07232 13.545 4.87695 13.302 4.87695C13.0591 4.87695 12.8623 5.07232 12.8623 5.31353V7.28252C12.8623 7.52373 13.0591 7.7191 13.302 7.7191Z" fill="#ED1F24"/>
</svg>
