<svg width="21" height="21" viewBox="0 0 21 21" fill="none" xmlns="http://www.w3.org/2000/svg">
<path d="M20.5854 10.742C20.5854 10.0282 20.5275 9.31058 20.404 8.6084H10.5001V12.6518H16.1716C15.9363 13.9558 15.1801 15.1094 14.0728 15.8425V18.466H17.4564C19.4434 16.6372 20.5854 13.9365 20.5854 10.742Z" fill="#ED1F24"/>
<path d="M10.5002 21.0007C13.3321 21.0007 15.7203 20.0708 17.4604 18.4658L14.0768 15.8423C13.1354 16.4827 11.9201 16.8454 10.5041 16.8454C7.76481 16.8454 5.44219 14.9974 4.60883 12.5127H1.11719V15.2173C2.89966 18.7629 6.5302 21.0007 10.5002 21.0007Z" fill="#ED1F24"/>
<path d="M4.60484 12.5129C4.16501 11.2088 4.16501 9.79672 4.60484 8.49266V5.78809H1.11706C-0.372191 8.75502 -0.372191 12.2505 1.11706 15.2174L4.60484 12.5129Z" fill="#ED1F24"/>
<path d="M10.5002 4.15595C11.9972 4.1328 13.444 4.6961 14.5282 5.73008L17.526 2.73229C15.6278 0.949817 13.1084 -0.0301577 10.5002 0.000707583C6.5302 0.000707583 2.89966 2.23844 1.11719 5.78796L4.60497 8.49253C5.43448 6.00401 7.76095 4.15595 10.5002 4.15595Z" fill="#ED1F24"/>
</svg>
