<svg width="258" height="107" viewBox="0 0 258 107" fill="none" xmlns="http://www.w3.org/2000/svg">
<g clip-path="url(#clip0)">
<path d="M255.295 7.03189C252.884 3.40348 249.438 1.16134 244.963 0.313501C240.582 -0.518261 236.592 0.313501 232.992 2.80075C229.387 5.29202 227.175 8.74363 226.356 13.1636C225.52 17.6841 226.332 21.7384 228.806 25.3307C231.281 28.9189 234.702 31.1249 239.083 31.9607C243.558 32.8085 247.565 32.0089 251.109 29.5618C254.654 27.1107 256.846 23.627 257.686 19.1065C258.509 14.6865 257.709 10.6603 255.295 7.03189Z" fill="white"/>
<path d="M26.8344 27.2715H0V105.325H26.8344V27.2715Z" fill="white"/>
<path d="M87.9864 8.97266H61.3628L55.6896 27.2714H37.3213V48.7365H49.0099C46.8814 55.692 45.29 61.3616 44.2278 65.7535C43.1656 70.1534 42.6325 73.7778 42.6325 76.6428C42.6325 86.5556 45.489 94.0977 51.2059 99.253C56.9229 104.412 65.2497 107 76.1784 107C81.8437 107 87.8113 105.718 94.0892 103.163L91.6624 82.011C87.9187 83.337 84.4734 84.0041 81.3424 84.0041C77.5987 84.0041 74.7621 83.0357 72.8405 81.0949C70.915 79.1501 69.9562 76.3936 69.9562 72.8134C69.9562 69.0364 71.2213 62.9528 73.7516 54.5669L75.5737 48.7405H96.5161V27.2714H82.2495L87.9864 8.97266Z" fill="white"/>
<path d="M145.916 47.5468C145.801 47.4544 145.686 47.37 145.566 47.2856C145.682 47.37 145.801 47.4544 145.916 47.5468Z" fill="white"/>
<path d="M172.58 48.849C172.321 49.1062 172.062 49.3673 171.808 49.6285C171.553 49.8897 171.291 50.1509 171.04 50.4121C170.785 50.6773 170.539 50.9465 170.288 51.2157C170.037 51.4849 169.787 51.7501 169.54 52.0233C169.293 52.2966 169.051 52.5698 168.808 52.8431C168.565 53.1163 168.323 53.3935 168.084 53.6748C167.845 53.9521 167.607 54.2333 167.368 54.5146C167.133 54.7959 166.898 55.0812 166.668 55.3665C166.437 55.6518 166.202 55.937 165.971 56.2264C165.741 56.5157 165.518 56.809 165.291 57.1023C165.064 57.3957 164.838 57.689 164.619 57.9823C164.396 58.2797 164.177 58.581 163.962 58.8784C163.744 59.1797 163.525 59.4811 163.31 59.7824C163.095 60.0878 162.88 60.3932 162.669 60.6986C162.459 61.008 162.248 61.3174 162.041 61.6268C161.834 61.9362 161.627 62.2496 161.42 62.563C161.217 62.8805 161.018 63.1979 160.815 63.5153C160.617 63.8328 160.414 64.1502 160.219 64.4717C160.024 64.7931 159.833 65.1226 159.638 65.4481C159.447 65.7736 159.252 66.103 159.065 66.4325C158.878 66.762 158.691 67.0955 158.504 67.429C158.317 67.7625 158.138 68.1001 157.955 68.4376C157.776 68.7751 157.593 69.1127 157.418 69.4542C157.239 69.7957 157.068 70.1453 156.897 70.4909C156.726 70.8364 156.551 71.182 156.379 71.5316C156.212 71.8812 156.049 72.2388 155.882 72.5924C155.783 72.8094 155.675 73.0223 155.58 73.2433H176.387C176.892 70.1775 177.147 67.3647 177.147 64.8052C177.147 58.5047 176.065 52.7587 173.92 47.5391C173.733 47.7159 173.55 47.9007 173.363 48.0775C173.105 48.3387 172.838 48.5918 172.58 48.849Z" fill="white"/>
<path d="M169.456 39.4507C170.431 40.7927 171.322 42.2152 172.138 43.722C172.138 43.726 172.142 43.726 172.142 43.73C172.611 44.602 173.041 45.498 173.439 46.4061C173.041 45.498 172.615 44.602 172.142 43.73C170.049 39.8525 167.419 36.5254 164.269 33.7368C166.194 35.4365 167.925 37.3411 169.456 39.4507Z" fill="white"/>
<path d="M169.262 93.5754C169.449 93.3424 169.576 93.0852 169.759 92.8441L152.134 82.2241L149.417 80.5847C148.598 81.766 147.587 82.7987 146.33 83.6867C144.003 85.3221 141.218 86.1378 137.979 86.1378C134.232 86.1378 131.117 84.9404 128.638 82.5335C128.348 82.2522 128.077 81.9589 127.814 81.6575C125.861 79.3953 124.791 76.5946 124.62 73.2555H130.249C130.381 72.8698 130.516 72.488 130.651 72.1023C130.786 71.7165 130.918 71.3308 131.057 70.9491C131.196 70.5673 131.339 70.1937 131.479 69.8159C131.622 69.4382 131.761 69.0605 131.904 68.6868C132.047 68.3131 132.199 67.9435 132.35 67.5738C132.497 67.2041 132.648 66.8345 132.799 66.4648C132.951 66.0991 133.11 65.7375 133.265 65.3718C133.42 65.0102 133.575 64.6446 133.734 64.2869C133.893 63.9293 134.057 63.5717 134.22 63.2141C134.383 62.8565 134.546 62.5029 134.709 62.1493C134.876 61.7957 135.043 61.4461 135.214 61.0965C135.381 60.7469 135.552 60.3973 135.724 60.0518C135.895 59.7062 136.07 59.3607 136.245 59.0191C136.42 58.6776 136.595 58.332 136.774 57.9945C136.953 57.6529 137.132 57.3154 137.315 56.9779C137.418 56.785 137.518 56.5881 137.625 56.3952H138.286H139.833H141.381H142.928H144.476H146.024H147.571H149.119H150.129V56.3912H137.629H124.62C124.819 52.9155 126.084 50.1028 128.415 47.9571C130.743 45.8073 133.627 44.7305 137.072 44.7305C139.678 44.7305 141.958 45.2488 143.911 46.2614C144.098 45.9962 144.293 45.735 144.484 45.4698C144.699 45.1685 144.918 44.8671 145.136 44.5657C145.355 44.2684 145.574 43.967 145.797 43.6697C146.02 43.3723 146.246 43.083 146.469 42.7897C146.696 42.4964 146.915 42.199 147.142 41.9097C147.368 41.6204 147.603 41.3351 147.834 41.0458C148.065 40.7565 148.295 40.4712 148.526 40.1859C148.761 39.9006 148.992 39.6153 149.226 39.3341C149.461 39.0528 149.704 38.7755 149.942 38.4943C150.181 38.213 150.416 37.9317 150.659 37.6545C150.901 37.3772 151.148 37.104 151.391 36.8307C151.633 36.5575 151.88 36.2843 152.127 36.011C152.373 35.7378 152.62 35.4686 152.867 35.1994C153.117 34.9301 153.368 34.6649 153.622 34.3997C153.873 34.1346 154.124 33.8653 154.378 33.6001C154.633 33.3349 154.892 33.0778 155.15 32.8166C155.409 32.5554 155.667 32.2942 155.926 32.0371C156.185 31.7799 156.443 31.5187 156.706 31.2656C156.968 31.0084 157.235 30.7593 157.501 30.5061C157.768 30.253 158.031 29.9958 158.297 29.7467C158.361 29.6864 158.424 29.6221 158.492 29.5619C158.365 29.4855 158.233 29.3971 158.102 29.3208C152.075 25.8973 145.164 24.1855 137.371 24.1855C129.481 24.1855 122.463 25.9495 116.341 29.4775C110.214 33.0014 105.456 37.8875 102.066 44.1197C98.6726 50.3599 96.9778 57.5163 96.9778 65.5928C96.9778 73.6694 98.7243 80.8257 102.217 87.062C105.71 93.3022 110.544 98.1843 116.715 101.712C119.249 103.155 121.938 104.288 124.771 105.14C128.861 106.369 133.253 107.004 137.979 107.004C141.62 107.004 145.069 106.639 148.335 105.939C151.06 105.357 153.662 104.541 156.121 103.476C161.535 101.118 165.92 97.8186 169.262 93.5754Z" fill="white"/>
<path d="M186.715 38.8316L186.763 38.5825L186.715 38.8316Z" fill="white"/>
<path d="M215.94 28.1756C215.817 28.1957 215.694 28.2158 215.574 28.2359C215.129 28.3042 214.687 28.3805 214.245 28.4569C213.808 28.5332 213.374 28.6176 212.941 28.702C212.511 28.7863 212.077 28.8707 211.648 28.9591C211.222 29.0475 210.8 29.1399 210.374 29.2364C209.957 29.3328 209.539 29.4333 209.125 29.5337C208.712 29.6342 208.298 29.7346 207.888 29.8431C207.482 29.9516 207.072 30.0601 206.671 30.1726C206.269 30.2851 205.867 30.4017 205.469 30.5222C205.071 30.6387 204.673 30.7553 204.276 30.8798C203.886 31.0044 203.496 31.133 203.106 31.2615C202.72 31.3901 202.334 31.5187 201.948 31.6553C201.566 31.7879 201.184 31.9205 200.802 32.0612C200.424 32.1978 200.051 32.3424 199.677 32.4871C199.303 32.6317 198.929 32.7724 198.559 32.9211C198.189 33.0697 197.823 33.2184 197.457 33.3711C197.095 33.5238 196.733 33.6805 196.37 33.8372C196.012 33.9939 195.65 34.1466 195.292 34.3113C194.938 34.4721 194.588 34.6408 194.234 34.8056C193.884 34.9703 193.534 35.1351 193.184 35.3078C192.838 35.4766 192.492 35.6494 192.149 35.8222C191.807 35.995 191.465 36.1718 191.127 36.3526C190.789 36.5294 190.447 36.7062 190.112 36.887C189.778 37.0678 189.448 37.2567 189.118 37.4415C188.788 37.6263 188.457 37.8112 188.127 38.004C187.801 38.1929 187.475 38.3858 187.153 38.5827C187.013 38.667 186.874 38.7434 186.735 38.8278L186.802 38.7916L186.719 38.8398L181.758 64.074C180.739 68.9761 180.238 73.6774 180.238 78.1738C180.238 83.5903 181.603 88.4964 184.332 92.8923C187.069 97.2842 190.86 100.736 195.718 103.243C200.576 105.746 206.038 107 212.109 107C214.031 107 215.801 106.896 217.42 106.695L221.976 84.4622H220.153C216.406 84.4622 213.374 83.4175 211.047 81.32C208.715 79.2265 207.558 76.5464 207.558 73.2716C207.558 72.046 207.657 70.716 207.856 69.2896L215.94 28.1756L216.183 26.938L216.123 27.2313L215.94 28.1756Z" fill="white"/>
<path d="M130.245 73.2553H131.789L130.647 72.1021C130.512 72.4838 130.377 72.8655 130.245 73.2553Z" fill="white"/>
<path d="M130.647 72.098L131.789 73.2513H133.336L131.053 70.9448C130.914 71.3306 130.782 71.7163 130.647 72.098Z" fill="#FFFEFD"/>
<path d="M131.053 70.9451L133.336 73.2516H134.884L131.478 69.812C131.335 70.1897 131.188 70.5674 131.053 70.9451Z" fill="#FFFDFB"/>
<path d="M131.475 69.8118L134.88 73.2514H136.428L131.9 68.6787C131.757 69.0564 131.618 69.4341 131.475 69.8118Z" fill="#FFFDF9"/>
<path d="M131.904 68.6829L136.432 73.2555H137.979L132.35 67.5698C132.199 67.9395 132.048 68.3092 131.904 68.6829Z" fill="#FFFCF7"/>
<path d="M132.346 67.5698L137.975 73.2556H139.523L132.799 66.4648C132.644 66.8305 132.497 67.2002 132.346 67.5698Z" fill="#FFFBF6"/>
<path d="M132.795 66.4606L139.519 73.2513H141.066L133.261 65.3677C133.106 65.7333 132.951 66.095 132.795 66.4606Z" fill="#FFFBF5"/>
<path d="M133.261 65.3677L141.067 73.2514H142.614L133.73 64.2788C133.571 64.6445 133.416 65.0061 133.261 65.3677Z" fill="#FFFAF3"/>
<path d="M133.73 64.2828L142.614 73.2554H144.162L134.216 63.21C134.052 63.5676 133.889 63.9212 133.73 64.2828Z" fill="#FFFAF2"/>
<path d="M134.216 63.2098L144.162 73.2553H145.709L134.709 62.145C134.542 62.4986 134.379 62.8522 134.216 63.2098Z" fill="#FFF9F1"/>
<path d="M134.709 62.1451L145.709 73.2553H147.257L135.214 61.0923C135.043 61.4419 134.872 61.7915 134.709 62.1451Z" fill="#FFF9F0"/>
<path d="M135.21 61.0882L147.253 73.2512H148.8L135.723 60.0435C135.548 60.393 135.381 60.7386 135.21 61.0882Z" fill="#FFF8EE"/>
<path d="M135.723 60.0435L148.8 73.2513H150.348L136.245 59.0068C136.07 59.3524 135.894 59.698 135.723 60.0435Z" fill="#FFF8ED"/>
<path d="M136.245 59.011L150.348 73.2554H151.896L136.778 57.9863C136.595 58.3239 136.42 58.6654 136.245 59.011Z" fill="#FFF7EC"/>
<path d="M136.774 57.9824L151.892 73.2515H153.439L137.315 56.9658C137.132 57.3074 136.953 57.6449 136.774 57.9824Z" fill="#FFF7EB"/>
<path d="M137.625 56.3872C137.522 56.5801 137.418 56.777 137.315 56.9698L153.439 73.2555H154.987L138.286 56.3872H137.625Z" fill="#FFF7EA"/>
<path d="M139.833 56.3872H138.286L154.987 73.2555H155.584C155.683 73.0385 155.787 72.8216 155.886 72.6046L139.833 56.3872Z" fill="#FFF6E9"/>
<path d="M156.387 71.5438L141.381 56.3872H139.833L155.89 72.6046C156.053 72.251 156.216 71.8934 156.387 71.5438Z" fill="#FFF6E8"/>
<path d="M156.901 70.5031L142.925 56.3872H141.377L156.384 71.5438C156.555 71.1942 156.73 70.8486 156.901 70.5031Z" fill="#FFF5E7"/>
<path d="M157.422 69.4664L144.472 56.3872H142.924L156.9 70.5031C157.076 70.1575 157.247 69.8079 157.422 69.4664Z" fill="#FFF5E6"/>
<path d="M157.963 68.4498L146.02 56.3872H144.472L157.422 69.4664C157.601 69.1248 157.78 68.7873 157.963 68.4498Z" fill="#FFF5E4"/>
<path d="M158.508 67.4412L147.563 56.3872H146.016L157.959 68.4498C158.142 68.1122 158.325 67.7747 158.508 67.4412Z" fill="#FFF4E3"/>
<path d="M159.069 66.4403L149.111 56.3828H147.563L158.508 67.4368C158.695 67.1073 158.878 66.7738 159.069 66.4403Z" fill="#FFF4E2"/>
<path d="M150.109 55.8364C150.113 56.0172 150.121 56.1981 150.121 56.3829C150.125 56.1981 150.117 56.0172 150.109 55.8364Z" fill="#FFF3E1"/>
<path d="M159.642 65.4599L150.113 55.8364C150.121 56.0172 150.125 56.1981 150.125 56.3829V56.3869H149.115L159.073 66.4444C159.256 66.1109 159.447 65.7854 159.642 65.4599Z" fill="#FFF3E1"/>
<path d="M149.915 54.0728C150.022 54.6393 150.086 55.226 150.109 55.8327C150.086 55.23 150.022 54.6433 149.915 54.0728Z" fill="#FFF3E0"/>
<path d="M150.109 55.8366L159.638 65.4602C159.829 65.1347 160.02 64.8052 160.219 64.4837L149.915 54.0767C150.022 54.6432 150.086 55.2299 150.109 55.8366Z" fill="#FFF3E0"/>
<path d="M149.242 51.8306C149.545 52.5378 149.767 53.2851 149.915 54.0727L149.919 54.0767C149.767 53.2892 149.545 52.5418 149.242 51.8306Z" fill="#FFF3DF"/>
<path d="M149.915 54.0727L160.219 64.4798C160.414 64.1583 160.617 63.8409 160.815 63.5235L149.238 51.8306C149.545 52.5418 149.767 53.2892 149.915 54.0727Z" fill="#FFF3DF"/>
<path d="M146.481 48.025C146.298 47.8603 146.107 47.6996 145.916 47.5469C146.107 47.6996 146.294 47.8563 146.481 48.025C147.715 49.1421 148.634 50.4118 149.238 51.8303L149.242 51.8343C148.634 50.4118 147.715 49.1421 146.481 48.025Z" fill="#FFF2DE"/>
<path d="M145.566 47.286C145.041 46.9002 144.492 46.5547 143.911 46.2573C144.488 46.5547 145.041 46.9002 145.566 47.286Z" fill="#FFF2DE"/>
<path d="M145.566 47.2861C145.682 47.3704 145.801 47.4548 145.916 47.5472C146.107 47.6999 146.298 47.8566 146.481 48.0254C147.714 49.1424 148.634 50.4122 149.242 51.8346L160.819 63.5275C161.018 63.2101 161.217 62.8886 161.424 62.5752L144.484 45.4658C144.293 45.731 144.098 45.9922 143.911 46.2574C144.492 46.5547 145.041 46.9003 145.566 47.2861Z" fill="#FFF2DE"/>
<path d="M162.041 61.6349L145.132 44.5576C144.914 44.855 144.695 45.1603 144.48 45.4617L161.42 62.5711C161.627 62.2577 161.834 61.9483 162.041 61.6349Z" fill="#FFF2DD"/>
<path d="M162.669 60.7066L145.797 43.6655C145.574 43.9629 145.355 44.2602 145.136 44.5616L162.045 61.6388C162.248 61.3254 162.458 61.016 162.669 60.7066Z" fill="#FFF2DC"/>
<path d="M163.306 59.7907L146.465 42.7817C146.239 43.0751 146.012 43.3684 145.793 43.6617L162.665 60.7028C162.88 60.4014 163.091 60.0961 163.306 59.7907Z" fill="#FFF1DB"/>
<path d="M163.958 58.8862L147.142 41.9014C146.915 42.1907 146.692 42.488 146.469 42.7813L163.31 59.7903C163.521 59.4849 163.74 59.1876 163.958 58.8862Z" fill="#FFF1DA"/>
<path d="M164.615 57.9863L147.834 41.0376C147.603 41.3269 147.368 41.6122 147.142 41.9015L163.958 58.8863C164.177 58.585 164.392 58.2836 164.615 57.9863Z" fill="#FFF1D9"/>
<path d="M165.291 57.1063L148.53 40.1777C148.295 40.463 148.065 40.7523 147.838 41.0376L164.619 57.9863C164.838 57.693 165.064 57.3996 165.291 57.1063Z" fill="#FFF0D8"/>
<path d="M165.967 56.2303L149.23 39.3218C148.996 39.603 148.761 39.8883 148.53 40.1736L165.291 57.1022C165.514 56.8129 165.741 56.5196 165.967 56.2303Z" fill="#FFF0D7"/>
<path d="M166.664 55.3703L149.942 38.4819C149.704 38.7632 149.465 39.0405 149.226 39.3217L165.967 56.2302C166.198 55.9409 166.433 55.6556 166.664 55.3703Z" fill="#FFF0D6"/>
<path d="M167.364 54.5184L150.655 37.6421C150.412 37.9193 150.177 38.2006 149.938 38.4819L166.66 55.3703C166.898 55.085 167.129 54.7997 167.364 54.5184Z" fill="#FFEFD5"/>
<path d="M168.08 53.6786L151.387 36.8184C151.144 37.0916 150.897 37.3648 150.655 37.6421L167.364 54.5184C167.603 54.2371 167.841 53.9559 168.08 53.6786Z" fill="#FFEFD4"/>
<path d="M168.804 52.8472L152.122 35.999C151.876 36.2723 151.633 36.5455 151.386 36.8187L168.08 53.679C168.319 53.4017 168.561 53.1245 168.804 52.8472Z" fill="#FFEFD3"/>
<path d="M169.54 52.0272L152.866 35.187C152.616 35.4562 152.373 35.7295 152.126 35.9987L168.808 52.8469C169.047 52.5737 169.293 52.2964 169.54 52.0272Z" fill="#FFEED3"/>
<path d="M170.284 51.2198L153.618 34.3877C153.368 34.6529 153.113 34.9181 152.863 35.1873L169.536 52.0275C169.787 51.7542 170.033 51.489 170.284 51.2198Z" fill="#FFEED2"/>
<path d="M171.036 50.416L154.374 33.5879C154.12 33.8531 153.869 34.1223 153.618 34.3875L170.284 51.2196C170.535 50.9504 170.785 50.6812 171.036 50.416Z" fill="#FFEED1"/>
<path d="M171.808 49.6323L155.146 32.8042C154.887 33.0654 154.629 33.3225 154.374 33.5877L171.036 50.4159C171.29 50.1507 171.549 49.8935 171.808 49.6323Z" fill="#FFEDD0"/>
<path d="M172.58 48.849L155.922 32.0249C155.663 32.2821 155.405 32.5432 155.146 32.8044L171.808 49.6325C172.062 49.3714 172.321 49.1102 172.58 48.849Z" fill="#FFEDCF"/>
<path d="M173.371 48.0856L156.706 31.2534C156.443 31.5106 156.184 31.7677 155.926 32.0249L172.583 48.849C172.838 48.5918 173.105 48.3387 173.371 48.0856Z" fill="#FFEDCE"/>
<path d="M173.928 47.5472C173.821 47.278 173.705 47.0128 173.594 46.7476C173.705 47.0128 173.817 47.278 173.928 47.5472Z" fill="#FFECCD"/>
<path d="M157.497 30.4941C157.231 30.7473 156.964 30.9964 156.702 31.2536L173.367 48.0857C173.554 47.9049 173.737 47.7241 173.924 47.5473C173.813 47.2781 173.701 47.0129 173.586 46.7477L157.497 30.4941Z" fill="#FFECCD"/>
<path d="M173.59 46.7474C173.542 46.6309 173.491 46.5184 173.439 46.4019C173.491 46.5184 173.542 46.6309 173.59 46.7474Z" fill="#FFECCC"/>
<path d="M172.138 43.7176L158.293 29.7344C158.026 29.9835 157.764 30.2407 157.497 30.4938L173.59 46.7473C173.542 46.6308 173.491 46.5183 173.443 46.4058C173.041 45.4977 172.615 44.5976 172.146 43.7297C172.142 43.7216 172.138 43.7216 172.138 43.7176Z" fill="#FFECCC"/>
<path d="M161.866 31.7839C160.788 30.9843 159.666 30.2409 158.488 29.5498C158.488 29.5498 158.492 29.5498 158.492 29.5538C159.67 30.2409 160.792 30.9883 161.866 31.7839Z" fill="#FFECCB"/>
<path d="M172.138 43.7179C171.322 42.2111 170.431 40.7886 169.456 39.4466L161.866 31.7839C160.791 30.9883 159.669 30.2409 158.492 29.5538C158.492 29.5538 158.488 29.5538 158.488 29.5498C158.42 29.6101 158.361 29.6744 158.293 29.7346L172.138 43.7179Z" fill="#FFECCB"/>
<path d="M164.273 33.7326C163.501 33.0495 162.697 32.3986 161.866 31.7798L161.87 31.7838C162.701 32.4026 163.501 33.0495 164.273 33.7326Z" fill="#FFEBCA"/>
<path d="M169.456 39.4503C167.925 37.3407 166.194 35.4401 164.273 33.7364C163.501 33.0533 162.701 32.4024 161.87 31.7876L169.456 39.4503Z" fill="#FFEBCA"/>
<path d="M186.715 38.8321C186.719 38.828 186.727 38.8239 186.735 38.8198L186.715 38.8321Z" fill="#FFE8C1"/>
<path d="M186.83 38.2529L186.763 38.5824L186.83 38.2529Z" fill="#FFE8C1"/>
<path d="M186.83 38.2529L186.763 38.5824L186.715 38.8275L186.731 38.8195C186.87 38.7351 187.009 38.6547 187.148 38.5744L186.83 38.2529Z" fill="#FFE8C1"/>
<path d="M187.089 36.9513L187.085 36.9473L186.83 38.2532L187.089 36.9513Z" fill="#FFE8C0"/>
<path d="M186.83 38.2531L187.148 38.5745C187.471 38.3816 187.797 38.1888 188.123 37.9959L187.089 36.9512L186.83 38.2531Z" fill="#FFE8C0"/>
<path d="M187.347 35.6531L187.339 35.645L187.085 36.9469L187.089 36.9509L187.347 35.6531Z" fill="#FFE7BF"/>
<path d="M187.089 36.9513L188.123 37.996C188.449 37.8072 188.784 37.6183 189.114 37.4335L187.347 35.6494L187.089 36.9513Z" fill="#FFE7BF"/>
<path d="M187.606 34.3513L187.598 34.3433L187.339 35.6452L187.347 35.6532L187.606 34.3513Z" fill="#FFE7BE"/>
<path d="M187.347 35.6533L189.114 37.4374C189.444 37.2526 189.774 37.0637 190.108 36.8829L187.606 34.3555L187.347 35.6533Z" fill="#FFE7BE"/>
<path d="M187.869 33.0537L187.853 33.0376L187.598 34.3435L187.606 34.3515L187.869 33.0537Z" fill="#FFE7BD"/>
<path d="M187.606 34.3516L190.108 36.879C190.447 36.6982 190.785 36.5214 191.123 36.3446L187.865 33.0537L187.606 34.3516Z" fill="#FFE7BD"/>
<path d="M188.127 31.7514L188.111 31.7354L187.853 33.0372L187.868 33.0533L188.127 31.7514Z" fill="#FFE7BD"/>
<path d="M187.869 33.0534L191.127 36.3442C191.465 36.1674 191.807 35.9906 192.149 35.8138L188.127 31.7515L187.869 33.0534Z" fill="#FFE7BD"/>
<path d="M188.386 30.4537L188.366 30.4336L188.111 31.7355L188.127 31.7516L188.386 30.4537Z" fill="#FFE6BC"/>
<path d="M188.127 31.7515L192.149 35.8139C192.492 35.6411 192.838 35.4683 193.184 35.2995L188.386 30.4536L188.127 31.7515Z" fill="#FFE6BC"/>
<path d="M188.645 29.1519L188.625 29.1318L188.366 30.4337L188.386 30.4538L188.645 29.1519Z" fill="#FFE6BB"/>
<path d="M188.386 30.4537L193.184 35.2997C193.534 35.1309 193.884 34.9621 194.234 34.7974L188.644 29.1519L188.386 30.4537Z" fill="#FFE6BB"/>
<path d="M188.907 27.8538L188.879 27.8257L188.625 29.1316L188.644 29.1517L188.907 27.8538Z" fill="#FFE6BA"/>
<path d="M188.644 29.1519L194.234 34.7974C194.584 34.6327 194.938 34.4639 195.292 34.3032L188.907 27.854L188.644 29.1519Z" fill="#FFE6BA"/>
<path d="M189.166 26.5521L189.134 26.5239L188.879 27.8258L188.907 27.8539L189.166 26.5521Z" fill="#FFE5B9"/>
<path d="M188.907 27.8541L195.292 34.3033C195.65 34.1426 196.012 33.9859 196.37 33.8292L189.166 26.5522L188.907 27.8541Z" fill="#FFE5B9"/>
<path d="M189.424 25.2543L189.392 25.2222L189.134 26.5241L189.165 26.5522L189.424 25.2543Z" fill="#FFE5B8"/>
<path d="M189.166 26.5519L196.37 33.8288C196.732 33.6721 197.094 33.5154 197.457 33.3627L189.424 25.25L189.166 26.5519Z" fill="#FFE5B8"/>
<path d="M189.683 23.9562L189.647 23.916L189.392 25.2219L189.424 25.2541L189.683 23.9562Z" fill="#FFE5B8"/>
<path d="M189.424 25.2544L197.456 33.3671C197.823 33.2144 198.189 33.0617 198.559 32.9171L189.687 23.9565L189.424 25.2544Z" fill="#FFE5B8"/>
<path d="M189.945 22.6544L189.906 22.6143L189.647 23.9161L189.683 23.9563L189.945 22.6544Z" fill="#FFE5B7"/>
<path d="M189.683 23.9562L198.554 32.9167C198.924 32.768 199.298 32.6274 199.672 32.4827L189.941 22.6543L189.683 23.9562Z" fill="#FFE5B7"/>
<path d="M190.204 21.3567L190.16 21.3125L189.906 22.6144L189.945 22.6546L190.204 21.3567Z" fill="#FFE4B6"/>
<path d="M189.945 22.6543L199.677 32.4828C200.05 32.3381 200.424 32.1935 200.802 32.0568L190.208 21.3564L189.945 22.6543Z" fill="#FFE4B6"/>
<path d="M190.463 20.0546L190.419 20.0063L190.16 21.3123L190.204 21.3565L190.463 20.0546Z" fill="#FFE4B5"/>
<path d="M190.204 21.3566L200.798 32.057C201.18 31.9163 201.562 31.7837 201.944 31.6511L190.462 20.0547L190.204 21.3566Z" fill="#FFE4B5"/>
<path d="M190.721 18.7568L190.673 18.7046L190.419 20.0065L190.462 20.0547L190.721 18.7568Z" fill="#FFE4B5"/>
<path d="M190.462 20.0548L201.944 31.6513C202.33 31.5187 202.716 31.3861 203.102 31.2575L190.721 18.7529L190.462 20.0548Z" fill="#FFE4B5"/>
<path d="M190.984 17.4551L190.928 17.4028L190.673 18.7047L190.721 18.757L190.984 17.4551Z" fill="#FFE3B4"/>
<path d="M190.721 18.757L203.102 31.2615C203.492 31.133 203.878 31.0044 204.272 30.8798L190.98 17.4551L190.721 18.757Z" fill="#FFE3B4"/>
<path d="M191.242 16.1573L191.187 16.1011L190.928 17.403L190.984 17.4552L191.242 16.1573Z" fill="#FFE3B3"/>
<path d="M190.984 17.4551L204.276 30.8798C204.669 30.7553 205.071 30.6387 205.469 30.5222L191.242 16.1572L190.984 17.4551Z" fill="#FFE3B3"/>
<path d="M191.501 14.8552L191.441 14.7949L191.187 16.1008L191.242 16.1571L191.501 14.8552Z" fill="#FFE3B2"/>
<path d="M191.242 16.1569L205.465 30.5218C205.863 30.4053 206.265 30.2848 206.666 30.1723L191.501 14.855L191.242 16.1569Z" fill="#FFE3B2"/>
<path d="M191.759 13.5575L191.7 13.4932L191.441 14.7951L191.501 14.8553L191.759 13.5575Z" fill="#FFE3B2"/>
<path d="M191.501 14.855L206.666 30.1723C207.072 30.0598 207.478 29.9473 207.884 29.8428L191.759 13.5571L191.501 14.855Z" fill="#FFE3B2"/>
<path d="M192.022 12.2557L191.954 12.1914L191.7 13.4933L191.759 13.5576L192.022 12.2557Z" fill="#FFE2B1"/>
<path d="M191.76 13.5573L207.884 29.8429C208.294 29.7344 208.708 29.634 209.121 29.5335L192.022 12.2554L191.76 13.5573Z" fill="#FFE2B1"/>
<path d="M192.281 10.9576L192.209 10.8853L191.954 12.1912L192.022 12.2555L192.281 10.9576Z" fill="#FFE2B0"/>
<path d="M192.022 12.2554L209.125 29.5295C209.543 29.4291 209.957 29.3246 210.374 29.2322L192.281 10.9575L192.022 12.2554Z" fill="#FFE2B0"/>
<path d="M192.48 9.94513C192.563 9.91299 192.651 9.88486 192.734 9.85271L192.659 9.77637C192.575 9.80851 192.491 9.83664 192.408 9.86477L192.209 10.8854L192.277 10.9537L192.48 9.94513Z" fill="#FFE2AF"/>
<path d="M192.48 9.94496L192.277 10.9575L210.37 29.2322C210.792 29.1358 211.218 29.0433 211.644 28.9549L192.73 9.85254C192.651 9.88468 192.567 9.91281 192.48 9.94496Z" fill="#FFE2AF"/>
<path d="M193.876 9.44256L193.8 9.36621C193.418 9.49881 193.04 9.63543 192.658 9.77607L192.734 9.85241C193.116 9.71579 193.494 9.57918 193.876 9.44256Z" fill="#FFE2AF"/>
<path d="M192.734 9.85674L211.647 28.9592C212.077 28.8708 212.507 28.7864 212.94 28.702L193.876 9.44287C193.494 9.57949 193.116 9.71611 192.734 9.85674Z" fill="#FFE2AF"/>
<path d="M195.026 9.04498L194.954 8.97266C194.568 9.10526 194.182 9.23384 193.8 9.37046L193.876 9.4468C194.258 9.31018 194.644 9.17758 195.026 9.04498Z" fill="#FFE1AE"/>
<path d="M193.876 9.44283L212.941 28.6979C213.374 28.6135 213.808 28.5292 214.245 28.4528L195.026 9.04102C194.644 9.17763 194.258 9.31023 193.876 9.44283Z" fill="#FFE1AE"/>
<path d="M196.187 8.65534L196.116 8.58301C195.726 8.71159 195.34 8.84017 194.954 8.97277L195.026 9.0451C195.412 8.9125 195.798 8.78392 196.187 8.65534Z" fill="#FFE1AD"/>
<path d="M195.026 9.04504L214.245 28.4568C214.687 28.3805 215.129 28.3082 215.574 28.2358L196.187 8.65527C195.797 8.78386 195.412 8.91244 195.026 9.04504Z" fill="#FFE1AD"/>
<path d="M197.361 8.27741L197.289 8.20508C196.895 8.32964 196.506 8.45421 196.116 8.58279L196.187 8.65511C196.577 8.52653 196.967 8.40197 197.361 8.27741Z" fill="#FFE1AD"/>
<path d="M215.574 28.2356C215.698 28.2155 215.817 28.1954 215.94 28.1754L216.127 27.2311L197.361 8.27734C196.971 8.40191 196.577 8.52647 196.188 8.65505L215.574 28.2356Z" fill="#FFE1AD"/>
<path d="M198.547 7.91597L198.479 7.84766C198.081 7.9682 197.687 8.08473 197.29 8.20929L197.361 8.28162C197.755 8.15304 198.149 8.03249 198.547 7.91597Z" fill="#FFE1AC"/>
<path d="M216.183 26.9379L216.382 25.9293V25.9253L216.183 26.9379Z" fill="#FFE1AC"/>
<path d="M198.547 7.91602C198.149 8.03656 197.755 8.15711 197.361 8.27765L216.127 27.2314L216.187 26.9381L216.382 25.9255L198.547 7.91602Z" fill="#FFE1AC"/>
<path d="M216.382 25.925V25.9291L216.64 24.6272L216.632 24.6191L216.382 25.925Z" fill="#FFE1AB"/>
<path d="M199.744 7.56196L199.677 7.49365C199.275 7.61018 198.877 7.72671 198.479 7.84725L198.547 7.91556C198.944 7.79501 199.342 7.67447 199.744 7.56196Z" fill="#FFE1AB"/>
<path d="M198.547 7.91561L216.382 25.9291L216.636 24.6232L199.744 7.56201C199.342 7.67452 198.944 7.79507 198.547 7.91561Z" fill="#FFE1AB"/>
<path d="M200.95 7.21663L200.886 7.15234C200.48 7.26083 200.078 7.37736 199.677 7.49389L199.744 7.5622C200.146 7.44567 200.548 7.32914 200.95 7.21663Z" fill="#FFE0AB"/>
<path d="M216.633 24.6193L216.641 24.6273L216.895 23.3214L216.887 23.3174L216.633 24.6193Z" fill="#FFE0AB"/>
<path d="M199.744 7.56236L216.636 24.6235L216.891 23.3176L200.95 7.2168C200.548 7.32931 200.146 7.44583 199.744 7.56236Z" fill="#FFE0AB"/>
<path d="M216.887 23.3176L216.895 23.3216L217.154 22.0198L217.142 22.0117L216.887 23.3176Z" fill="#FFE0AA"/>
<path d="M202.175 6.89095L202.111 6.82666C201.702 6.93113 201.292 7.03962 200.886 7.15213L200.95 7.21642C201.355 7.10793 201.765 6.99944 202.175 6.89095Z" fill="#FFE0AA"/>
<path d="M200.95 7.21659L216.887 23.3134L217.142 22.0075L202.175 6.89111C201.765 6.9996 201.356 7.10809 200.95 7.21659Z" fill="#FFE0AA"/>
<path d="M203.408 6.57796L203.345 6.51367C202.931 6.61413 202.521 6.7186 202.107 6.82709L202.171 6.89138C202.585 6.78691 202.999 6.68244 203.408 6.57796Z" fill="#FFE0A9"/>
<path d="M217.142 22.0115L217.154 22.0195L217.408 20.7176L217.396 20.7056L217.142 22.0115Z" fill="#FFE0A9"/>
<path d="M202.175 6.89117L217.142 22.0075L217.396 20.7016L203.408 6.57373C202.999 6.68222 202.585 6.78669 202.175 6.89117Z" fill="#FFE0A9"/>
<path d="M217.396 20.7058L217.408 20.7179L217.663 19.416L217.651 19.3999L217.396 20.7058Z" fill="#FFE0A9"/>
<path d="M204.658 6.27658L204.598 6.21631C204.18 6.31274 203.766 6.41722 203.349 6.51767L203.412 6.58196C203.826 6.47749 204.24 6.37302 204.658 6.27658Z" fill="#FFE0A9"/>
<path d="M203.408 6.57773L217.396 20.7056L217.651 19.3997L204.657 6.27637C204.24 6.3728 203.826 6.47728 203.408 6.57773Z" fill="#FFE0A9"/>
<path d="M205.919 5.98703L205.859 5.92676C205.437 6.01918 205.015 6.11561 204.594 6.21205L204.653 6.27232C205.075 6.17588 205.497 6.07945 205.919 5.98703Z" fill="#FFDFA8"/>
<path d="M217.651 19.3997L217.663 19.4157L217.921 18.1098L217.902 18.0938L217.651 19.3997Z" fill="#FFDFA8"/>
<path d="M204.657 6.27661L217.651 19.4L217.906 18.0941L205.919 5.9873C205.497 6.07972 205.075 6.17616 204.657 6.27661Z" fill="#FFDFA8"/>
<path d="M207.196 5.71799L207.136 5.65771C206.71 5.74611 206.285 5.83451 205.859 5.92693L205.919 5.98721C206.344 5.89479 206.77 5.80639 207.196 5.71799Z" fill="#FFDFA8"/>
<path d="M217.902 18.094L217.921 18.1101L218.176 16.8082L218.156 16.7881L217.902 18.094Z" fill="#FFDFA8"/>
<path d="M205.919 5.98699L217.906 18.0938L218.16 16.7878L207.196 5.71777C206.77 5.80617 206.344 5.89457 205.919 5.98699Z" fill="#FFDFA8"/>
<path d="M218.156 16.7878L218.176 16.8079L218.435 15.506L218.411 15.4819L218.156 16.7878Z" fill="#FFDFA7"/>
<path d="M208.485 5.45676L208.425 5.39648C207.995 5.48087 207.566 5.56525 207.136 5.65365L207.196 5.71392C207.625 5.62552 208.055 5.54114 208.485 5.45676Z" fill="#FFDFA7"/>
<path d="M207.196 5.71772L218.156 16.7878L218.411 15.4819L208.485 5.45654C208.055 5.54092 207.625 5.62531 207.196 5.71772Z" fill="#FFDFA7"/>
<path d="M209.786 5.20762L209.73 5.15137C209.296 5.23173 208.859 5.31209 208.425 5.39648L208.485 5.45675C208.918 5.37237 209.352 5.28799 209.786 5.20762Z" fill="#FFDFA6"/>
<path d="M218.411 15.4822L218.435 15.5063L218.689 14.2044L218.666 14.1763L218.411 15.4822Z" fill="#FFDFA6"/>
<path d="M208.485 5.45665L218.411 15.482L218.665 14.1761L209.786 5.20752C209.352 5.28788 208.918 5.37226 208.485 5.45665Z" fill="#FFDFA6"/>
<path d="M211.107 4.98252L211.051 4.92627C210.609 4.9986 210.168 5.07494 209.73 5.15129L209.786 5.20754C210.227 5.1312 210.669 5.05485 211.107 4.98252Z" fill="#FFDFA6"/>
<path d="M218.666 14.176L218.689 14.2041L218.948 12.8982L218.92 12.8701L218.666 14.176Z" fill="#FFDFA6"/>
<path d="M209.786 5.20744L218.665 14.176L218.92 12.8701L211.106 4.98242C210.669 5.05475 210.227 5.13109 209.786 5.20744Z" fill="#FFDFA6"/>
<path d="M218.92 12.8704L218.948 12.8985L219.203 11.5966L219.171 11.5645L218.92 12.8704Z" fill="#FFDFA5"/>
<path d="M212.443 4.76963L212.388 4.71338C211.942 4.78169 211.496 4.85402 211.051 4.92634L211.106 4.9826C211.552 4.91027 211.998 4.83794 212.443 4.76963Z" fill="#FFDFA5"/>
<path d="M211.106 4.98249L218.916 12.8702L219.171 11.5643L212.443 4.76953C211.998 4.83784 211.552 4.91017 211.106 4.98249Z" fill="#FFDFA5"/>
<path d="M219.171 11.5642L219.202 11.5964L219.461 10.2945L219.425 10.2583L219.171 11.5642Z" fill="#FFDEA5"/>
<path d="M213.796 4.57286L213.74 4.5166C213.291 4.58089 212.841 4.64518 212.392 4.71349L212.447 4.76975C212.893 4.70144 213.342 4.63715 213.796 4.57286Z" fill="#FFDEA5"/>
<path d="M212.443 4.76964L219.171 11.5644L219.425 10.2585L213.796 4.57275C213.342 4.63704 212.893 4.70134 212.443 4.76964Z" fill="#FFDEA5"/>
<path d="M219.425 10.2585L219.461 10.2947L219.716 8.99282L219.68 8.95264L219.425 10.2585Z" fill="#FFDEA4"/>
<path d="M215.161 4.3878L215.105 4.33154C214.647 4.3878 214.194 4.45209 213.74 4.51236L213.796 4.56862C214.249 4.50834 214.703 4.44807 215.161 4.3878Z" fill="#FFDEA4"/>
<path d="M213.796 4.57253L219.425 10.2582L219.68 8.95234L215.16 4.3877C214.703 4.44797 214.249 4.50824 213.796 4.57253Z" fill="#FFDEA4"/>
<path d="M219.68 8.95239L219.716 8.99257L219.974 7.68667L219.935 7.64648L219.68 8.95239Z" fill="#FFDEA4"/>
<path d="M216.549 4.22715L216.493 4.1709C216.032 4.22313 215.566 4.27537 215.109 4.33163L215.165 4.38788C215.622 4.33163 216.084 4.27939 216.549 4.22715Z" fill="#FFDEA4"/>
<path d="M215.16 4.38778L219.68 8.95243L219.934 7.64652L216.549 4.22705C216.083 4.27929 215.622 4.33152 215.16 4.38778Z" fill="#FFDEA4"/>
<path d="M219.935 7.64662L219.974 7.6868L220.229 6.38491L220.189 6.34473L219.935 7.64662Z" fill="#FFDEA4"/>
<path d="M217.949 4.08224L217.89 4.02197C217.42 4.06617 216.955 4.11439 216.489 4.16663L216.545 4.22288C217.014 4.17466 217.48 4.13046 217.949 4.08224Z" fill="#FFDEA4"/>
<path d="M216.549 4.22717L219.934 7.64664L220.189 6.34073L217.953 4.08252C217.48 4.13074 217.014 4.17494 216.549 4.22717Z" fill="#FFDEA4"/>
<path d="M219.37 3.95383L219.31 3.89355C218.836 3.93374 218.363 3.97794 217.894 4.02214L217.953 4.08241C218.423 4.03821 218.896 3.99401 219.37 3.95383Z" fill="#FFDEA3"/>
<path d="M220.189 6.34448L220.229 6.38466L220.488 5.08277L220.44 5.03857L220.189 6.34448Z" fill="#FFDEA3"/>
<path d="M220.189 6.3448L220.444 5.0389L219.374 3.95801C218.9 3.99819 218.427 4.04239 217.953 4.08659L220.189 6.3448Z" fill="#FFDEA3"/>
<path d="M220.738 3.78125C220.261 3.8134 219.783 3.85358 219.31 3.89376L219.37 3.95403C219.803 3.91787 220.237 3.8817 220.671 3.84956L220.44 5.03492L220.484 5.07912L220.738 3.78125Z" fill="#FFDEA3"/>
<path d="M220.671 3.85352C220.237 3.88566 219.803 3.92182 219.37 3.95799L220.44 5.03888L220.671 3.85352Z" fill="#FFDEA3"/>
</g>
<defs>
<clipPath id="clip0">
<rect width="258" height="107" fill="white"/>
</clipPath>
</defs>
</svg>
